<?xml version="1.0" encoding="UTF-8" standalone="no"?>
<!-- Generator: Adobe Illustrator 13.0.0, SVG Export Plug-In . SVG Version: 6.00 Build 14948)  -->

<svg
   xmlns:ns="&amp;#38;#38;#38;#38;ns_sfw;"
   xmlns:dc="http://purl.org/dc/elements/1.1/"
   xmlns:cc="http://creativecommons.org/ns#"
   xmlns:rdf="http://www.w3.org/1999/02/22-rdf-syntax-ns#"
   xmlns:svg="http://www.w3.org/2000/svg"
   xmlns="http://www.w3.org/2000/svg"
   xmlns:sodipodi="http://sodipodi.sourceforge.net/DTD/sodipodi-0.dtd"
   xmlns:inkscape="http://www.inkscape.org/namespaces/inkscape"
   version="1.1"
   id="svg2"
   x="0px"
   y="0px"
   width="290.74826"
   height="110.52657"
   viewBox="0.25 0 290.74826 110.52658"
   enable-background="new 0.25 0 567.927 113.032"
   xml:space="preserve"
   inkscape:version="0.92.1 r15371"
   sodipodi:docname="system.svg"><defs
     id="defs21" /><sodipodi:namedview
     pagecolor="#ffffff"
     bordercolor="#666666"
     borderopacity="1"
     objecttolerance="10"
     gridtolerance="10"
     guidetolerance="10"
     inkscape:pageopacity="0"
     inkscape:pageshadow="2"
     inkscape:window-width="1366"
     inkscape:window-height="768"
     id="namedview19"
     showgrid="false"
     inkscape:zoom="1.8078363"
     inkscape:cx="137.18031"
     inkscape:cy="5.9249026"
     inkscape:window-x="0"
     inkscape:window-y="0"
     inkscape:window-maximized="0"
     inkscape:current-layer="g4889"
     fit-margin-top="0"
     fit-margin-left="0"
     fit-margin-right="0"
     fit-margin-bottom="0"
     inkscape:pagecheckerboard="true" /><metadata
     id="metadata3"><ns:sfw><ns:slices /><ns:sliceSourceBounds
         x="677.036"
         y="482.984"
         width="567.927"
         height="113.032"
         bottomLeftOrigin="true" /></ns:sfw><rdf:RDF><cc:Work
         rdf:about=""><dc:format>image/svg+xml</dc:format><dc:type
           rdf:resource="http://purl.org/dc/dcmitype/StillImage" /><dc:title></dc:title><dc:creator><cc:Agent><dc:title>UDb23</dc:title></cc:Agent></dc:creator></cc:Work></rdf:RDF></metadata><g
     transform="matrix(0.77798037,0,0,0.77798037,-1.6802734,-214.16344)"
     id="g4889"><g
       id="g4970"
       transform="matrix(4.8581272,0,0,4.8581272,-184.45287,-309.2635)"><g
         id="g4957"><g
           id="g4945"><g
             id="g4934"><g
               id="g4924"><g
                 id="g4915"><g
                   id="g4907"><g
                     id="g4900"><g
                       id="g4894"><path
                         d="m 390.00781,458.66016 c -1.81797,-0.0297 -3.74597,0.36555 -5.32031,1.34961 -2.62144,2.39984 -3.62058,6.47943 -4.34961,9.62109 -0.38963,1.69886 -0.7034,3.54045 -1.09961,5.08594 -0.39628,1.54548 -0.93575,2.76802 -1.42187,3.19726 -0.2431,0.21468 -0.41269,0.28024 -0.72461,0.25 -0.70456,-0.25625 -1.0918,-0.56325 -1.67578,-0.82812 -5.38683,-1.92435 -10.89583,-0.77474 -15.55664,1.96875 -4.66081,2.74348 -8.52799,7.06787 -10.81836,11.67383 -0.0117,0.0227 -0.022,0.0493 -0.0312,0.0742 -2.11653,5.53032 -5.75516,11.86535 -11.35938,13.62891 -0.50516,-2.53697 0.15799,-5.4189 1.26172,-8.48047 1.20665,-3.34685 2.82013,-6.82439 3.44727,-10.22461 1.29906,-2.00371 1.69728,-3.66854 1.13281,-5.01367 -0.57946,-1.38059 -1.96663,-2.09228 -3.4961,-2.55859 -3.05894,-0.93264 -7.22018,-1.04113 -9.46875,-1.78321 -0.0391,-0.0113 -0.0805,-0.0217 -0.12109,-0.0293 -11.80282,-2.05856 -22.74841,6.58451 -26.95313,17.00195 -0.0185,0.045 -0.0324,0.0914 -0.043,0.13867 -1.34243,6.24371 -7.87696,10.13101 -13.94336,11.4961 -0.028,0.008 -0.0568,0.0139 -0.084,0.0215 -3.33318,1.11791 -5.8141,-0.0628 -7.38086,-2.25391 -1.5667,-2.19095 -2.07118,-5.45036 -0.98437,-8.31445 0.0283,-0.0752 0.0466,-0.15425 0.0527,-0.23437 0.1985,-2.54555 2.11231,-6.85559 4.5625,-9.47461 1.22516,-1.3095 2.56372,-2.18207 3.77149,-2.37305 1.18495,-0.18747 2.31528,0.16708 3.55468,1.61328 0.14276,0.25361 0.23503,0.8639 0.18555,1.65234 -0.0503,0.80406 -0.2013,1.74477 -0.27734,2.65235 -0.0759,0.90761 -0.12659,1.79552 0.29687,2.61133 0.21169,0.40792 0.59182,0.77967 1.06836,0.96093 0.41955,0.1597 0.88636,0.16922 1.38672,0.10547 1.85496,0.37671 3.48046,0.21591 4.65234,-0.7207 1.1602,-0.92723 1.69667,-2.48268 1.75391,-4.45117 1.70975,-3.13591 1.58309,-6.13074 -0.0371,-8.13672 -1.63372,-2.0228 -4.57643,-2.93052 -7.99414,-2.44141 -6.01385,-0.75813 -11.51777,1.46065 -15.79102,5.18946 -4.28444,3.73859 -7.3737,8.98552 -8.67773,14.4082 -1.0053,3.13024 -0.91865,6.7352 0.34766,9.77734 1.27065,3.05239 3.81573,5.54713 7.55273,6.12891 l 0.006,0.002 c 7.61968,1.14947 15.98917,0.0616 22.19141,-5.09961 0.052,-0.0431 0.0986,-0.0924 0.13867,-0.14648 0.87438,-1.17974 1.51551,-1.57502 1.74609,-1.6211 0.11532,-0.0227 0.15156,-0.016 0.25977,0.043 0.10828,0.0593 0.2721,0.2017 0.45312,0.43164 0.7239,0.92043 1.48117,3.06545 2.89258,4.54102 0.0253,0.0265 0.0518,0.0515 0.0801,0.0742 3.04944,2.45454 6.81913,2.75571 10.26367,1.78906 3.4332,-0.96344 6.60423,-3.14451 8.7832,-5.78125 l 0.0215,-0.0234 0.002,-0.002 c 0.58484,-0.65034 1.16824,-1.26505 1.66797,-1.72461 0.20867,-0.192 0.25362,-0.1913 0.42578,-0.31641 -0.0492,0.42395 -0.0782,0.83431 -0.37695,1.80274 -0.0314,0.10167 -0.0415,0.2102 -0.0332,0.31641 0.19124,2.44281 1.24511,4.19867 2.78906,5.17382 1.54389,0.97516 3.47175,1.18782 5.42383,0.94922 3.9042,-0.47724 8.03951,-2.69918 10.10546,-5.48828 0.007,-0.0113 0.0139,-0.0199 0.0215,-0.0312 0.88445,-1.31044 1.54397,-1.74631 1.70898,-1.7832 0.0825,-0.0189 0.0675,-0.0234 0.16016,0.0371 0.0926,0.0582 0.25755,0.21702 0.43555,0.4707 0.71188,1.01465 1.44102,3.32922 3.09179,4.72266 0.0106,0.008 0.0213,0.0178 0.0312,0.0254 3.07135,2.35067 6.80453,2.6078 10.21289,1.6289 1.31985,-0.37904 2.59628,-0.94188 3.79493,-1.63672 a 9.6808861,9.6808861 0 0 1 2.03906,-1.36914 c 1.06714,-0.82492 2.03552,-1.75354 2.86133,-2.75 l 0.0195,-0.0215 c 10e-4,-0.001 0.003,-0.002 0.004,-0.004 0.58485,-0.65034 1.16818,-1.26504 1.66797,-1.72461 0.20901,-0.192 0.25534,-0.1913 0.42774,-0.3164 -0.0492,0.42391 -0.0782,0.83434 -0.37696,1.80273 -0.0314,0.10092 -0.0409,0.20743 -0.0332,0.3125 0.0469,0.61737 0.14911,1.19029 0.30078,1.71875 a 9.6808861,9.6808861 0 0 1 7.58203,4.42969 c 0.093,-0.009 0.18419,-0.005 0.27735,-0.0156 3.88898,-0.45686 8.01425,-2.65104 10.08203,-5.42578 0.008,-0.0113 0.0198,-0.022 0.0273,-0.0371 0.54645,-0.8197 1.01067,-1.35534 1.36133,-1.65234 0.35074,-0.29707 0.54829,-0.34022 0.64649,-0.33984 0.0982,2.6e-4 0.20628,0.0352 0.41601,0.22461 0.20976,0.18973 0.47215,0.52476 0.74609,0.94531 0.54796,0.84113 1.1532,2.00525 1.97657,3.05078 0.81921,1.0402 1.91448,2.00036 3.41601,2.25 6.30618,1.71012 13.53615,1.38707 19.50977,-1.63867 0.0378,-0.0189 0.0734,-0.0403 0.10742,-0.0645 2.33431,-1.65456 5.39775,-3.45273 7.95898,-5.67578 2.56124,-2.22308 4.67497,-4.94172 4.84766,-8.41015 0.0302,-0.5794 -0.52294,-1.01532 -1.08008,-0.85352 -2.78472,0.80742 -5.02527,3.0862 -7.34961,5.2168 -2.32433,2.13056 -4.69827,4.11952 -7.45117,4.6914 -0.0737,0.0151 -0.14599,0.0398 -0.21289,0.0742 -2.55092,1.30175 -5.76069,1.12878 -8.08008,-0.16015 -2.15747,-1.19898 -3.47906,-3.25091 -3.10156,-6.09961 6.56716,-0.33071 14.067,-0.65022 19.2168,-5.86328 2.88196,-2.78189 3.48312,-7.10668 2.26562,-10.60743 -1.20537,-3.46582 -4.40687,-6.18346 -8.8457,-5.57031 -6.00151,-0.46462 -11.41849,1.90429 -15.5957,5.7207 -4.13772,3.7804 -7.08201,8.97732 -8.33008,14.36133 -0.97871,1.49496 -3.28497,4.61082 -5.48828,6.52149 -1.11466,0.96657 -2.21454,1.57062 -2.86719,1.62304 -0.32617,0.0265 -0.52465,-0.0305 -0.75195,-0.21679 -0.19427,-0.16101 -0.40887,-0.55854 -0.60352,-1.06836 4.226,-14.26587 9.08598,-28.36078 13.42578,-42.64063 0.1115,-0.36661 -0.0391,-0.76148 -0.36523,-0.96289 -0.98204,-0.60691 -2.23801,-0.95021 -3.5918,-1.0625 l -0.004,0.004 c -0.25385,-0.0211 -0.50982,-0.0348 -0.76953,-0.0391 z m -168.91406,0.93554 c -1.57708,-0.0694 -3.34932,0.22268 -5.27148,0.90821 -3.78883,1.35129 -5.2501,2.87861 -8.02149,8.37695 -3.21719,6.3829 -10.64584,17.2886 -23.13281,33.96289 -5.65464,7.55078 -10.82353,14.79052 -11.48633,16.08984 -0.66269,1.29933 -4.27486,6.40559 -8.02734,11.34766 -3.75238,4.94211 -8.63453,11.37899 -10.84961,14.30469 -2.21509,2.92565 -4.54061,6.32634 -5.16797,7.55468 -1.0748,2.10456 -1.05988,2.33542 0.26953,4.0254 3.10327,3.94514 10.35716,4.17666 15.44336,0.49218 3.82784,-2.77285 5.61579,-5.2749 11.03711,-15.44531 2.18187,-4.07868 6.6877,-10.45571 8.26172,-13.45117 0.92939,-1.76871 10.82237,-0.97108 16.02148,-0.98242 16.40811,-0.0305 22.0967,0.76082 23.39844,2.54101 0.43249,0.5915 1.66022,5.46451 2.72852,10.83008 2.23667,11.23313 4.50448,16.70592 7.73828,18.67773 1.22414,0.7465 3.35053,1.3576 4.72656,1.35938 7.72902,0.008 9.23032,-9.09306 3.60156,-21.83789 -3.54924,-8.03652 -3.68367,-10.1378 -0.7832,-12.20313 8.71496,-0.1609 20.63381,0.0944 33.94726,0.57618 0.29404,-1.05325 0.62187,-2.0776 1.01172,-3.02149 1.29268,-6.05703 8.82417,-9.38426 14.21289,-6.46484 3.89927,1.87465 4.27129,6.44389 3.05078,10.24414 9.57723,0.44204 19.43609,0.9549 29.15625,1.49414 1.70713,-1.22024 3.76223,-2.01034 5.74219,-2.19141 3.9895,-0.31186 9.33154,-0.51279 11.8086,3.20118 0.31048,0.0183 0.63403,0.0364 0.94335,0.0547 1.48398,-1.78711 3.43835,-3.39477 5.66797,-4.22461 4.79055,-1.47617 11.70987,-1.74978 14.60547,3.18946 0.91229,-0.74087 1.8429,-2.45419 3.22461,-3.19532 a 9.6808861,9.6808861 0 0 1 -4.56836,-8.20703 9.6808861,9.6808861 0 0 1 0.0371,-0.75586 c -48.61747,-0.57619 -121.06788,-1.52079 -122.01367,-2.04297 -2.45181,-1.35352 -3.07966,-3.15091 -5.69141,-16.3164 -2.08108,-10.49023 -3.89718,-24.12753 -3.90625,-29.29297 -0.008,-5.91962 -2.98361,-9.38956 -7.71484,-9.59766 z m 47.30273,16.55664 c -3.09181,0.008 -5.89379,1.7218 -8.23632,3.44727 -0.95522,0.7036 -1.77399,1.36913 -2.55664,1.98633 0.1466,-0.48325 0.24256,-0.95075 0.2246,-1.39258 -0.0525,-1.28735 -0.97989,-2.24818 -2.08984,-2.66797 -2.21994,-0.83966 -5.38482,-0.36032 -8.04687,0.58203 -0.2278,0.0809 -0.40933,0.25443 -0.5,0.47852 -3.80196,9.39628 -10.35097,18.39764 -9.98633,28.4375 0.62317,6.69702 1.9363,5.929 8.9668,5.8164 0.38907,-0.10318 1.379,-1.51 1.51562,-1.88867 1.2569,-3.4848 3.40175,-9.96376 5.82617,-14.55664 0.0163,-0.0302 0.0305,-0.0612 0.043,-0.0937 0.54681,-1.44049 3.14737,-5.4612 5.48828,-7.8457 1.17043,-1.19225 2.36525,-1.92346 2.7793,-1.95899 0.207,-0.0189 0.18553,-0.0446 0.32031,0.16407 0.12968,0.20069 0.28889,0.75423 0.32813,1.60742 -0.39427,1.06866 -0.50179,2.00127 -0.10352,2.75 0.43618,0.81993 1.30824,1.15579 2.13086,1.25976 1.6453,0.20788 3.59176,-0.28617 4.91406,-0.58203 0.34447,-0.0767 0.60416,-0.35941 0.65235,-0.70898 0.10469,-0.76173 0.56831,-1.99687 1.14648,-3.34571 0.57811,-1.34879 1.25994,-2.83402 1.77149,-4.26953 0.51149,-1.43554 0.88306,-2.81498 0.70312,-4.09375 -0.0901,-0.63938 -0.34484,-1.26707 -0.82031,-1.75195 -0.47208,-0.48136 -1.12762,-0.7925 -1.90625,-0.93945 -0.85734,-0.29594 -1.72071,-0.43545 -2.56446,-0.4336 z m 57.55469,5.74414 c 0.22114,-0.005 0.43939,8.3e-4 0.6543,0.0176 1.98002,0.15383 3.61206,1.1189 4.54687,3.41602 -2.54717,6.78089 -6.19334,13.51145 -11.91601,17.89453 l -1.04102,0.49609 -1.03515,0.27735 c -1.77504,-0.20637 -2.67007,-0.91171 -3.20313,-1.99024 -0.54647,-1.10566 -0.64944,-2.70938 -0.39062,-4.49219 0.51774,-3.56556 2.43694,-7.75902 3.80078,-9.91796 0.0246,-0.0389 0.0464,-0.0803 0.0645,-0.12305 1.29092,-3.05493 5.20242,-5.5042 8.51953,-5.57813 z m 44.66211,0.0195 c 2.11424,0.0189 3.87063,0.95826 4.91992,3.5371 -2.62901,6.71124 -6.19769,13.41142 -11.89258,17.75391 -1.21885,0.56693 -2.19696,0.81689 -2.92382,0.83594 -0.74352,0.0189 -1.22228,-0.16236 -1.60547,-0.47852 -0.7665,-0.63258 -1.2072,-2.08264 -1.20508,-3.96484 0.006,-3.76445 1.76657,-8.95367 3.06445,-10.75 0.0464,-0.0639 0.0825,-0.13491 0.10938,-0.20899 0.63574,-1.76643 2.0772,-3.48946 3.84765,-4.73632 1.7704,-1.24687 3.85562,-2.00548 5.68555,-1.98828 z m 41.56836,0.3457 c 0.96525,-0.0113 1.2899,0.31735 1.54102,1.04687 0.25133,0.72941 0.22019,1.91687 -0.14454,3.15039 -0.72921,2.46709 -2.70976,4.96019 -4.86523,5.23243 -0.0745,0.008 -0.14763,0.0298 -0.2168,0.0566 -1.4434,0.59539 -3.02135,0.89273 -4.61132,0.99414 -0.12964,-0.10016 -0.25953,-0.19307 -0.31055,-0.33594 -0.0718,-0.20031 -0.094,-0.50761 -0.0195,-0.91406 0.15118,-0.8129 0.6973,-1.95347 1.45117,-3.10547 1.49049,-2.27777 3.78986,-4.6495 4.94141,-5.50586 0.94435,-0.4309 1.69818,-0.61088 2.23242,-0.61719 z m -197.52734,1.70117 c 1.15964,0.71664 3.32425,8.99678 5.2539,20.0957 1.04152,5.99139 1.69033,11.09941 1.44141,11.34961 -0.59824,0.60102 -18.58612,0.73301 -24.45313,0.17969 -3.31714,-0.31287 -4.55486,-0.70128 -4.4121,-1.38477 0.58293,-2.79106 21.16305,-30.86253 22.16992,-30.24023 z m 165.07031,33.11523 a 9.6808861,9.6808861 0 0 1 0.0195,0.52344 9.6808861,9.6808861 0 0 1 -5.91211,8.90625 c 0.47674,1.84375 0.26283,3.6688 -0.19531,5.48438 0.47414,0.0293 0.90377,0.0553 1.36719,0.084 4.00431,-6.88412 12.46093,-11.32157 20.32421,-8.94726 1.95224,0.0417 2.76395,2.19827 4.32618,2.50781 1.93893,-2.14307 4.92389,-4.03932 8.04687,-4.38477 3.90565,-0.28206 9.08192,-1.12877 11.80469,2.38086 1.57744,2.50865 1.58942,6.18147 -0.043,8.69727 2.62902,-1.23751 4.98557,-3.32122 7.02539,-6.72656 6.15617,-10.2773 9.70394,-8.32881 -22.91992,-8.26758 -0.40929,7.7e-4 -10.77531,-0.10988 -23.84375,-0.25782 z m 19.40039,15.52735 c -0.0616,0.0338 -0.12548,0.0642 -0.17969,0.0391 -0.13837,0.15148 -0.22342,0.273 -0.29101,0.38477 0.15521,-0.10203 0.30678,-0.19727 0.45312,-0.28516 0.006,-0.0479 0.0124,-0.0887 0.0176,-0.13867 z"
                         style="fill:#ffffff;fill-opacity:1;stroke-width:0.5589965"
                         transform="scale(0.26458333)"
                         id="path5328"
                         inkscape:connector-curvature="0" /><path
                         sodipodi:nodetypes="ccccccccccscsccccccsccccccccsccccsccscccscccscccccccccccccccscscccsccscccccccccccccsccccsccccccccccccccccccscccsccccccsscccscccscccccccccsccccccccccccsccccccccccsccccsccscccsccscscsccccccccccsscccscscccccsscccccccccccccscccscccsscscccscc"
                         style="fill:#ffffff;fill-opacity:1;stroke-width:0.14790116"
                         d="m 75.784327,137.17842 c -0.630503,-0.008 -1.305953,0.25751 -1.700716,0.8487 -0.0025,0.004 -0.0049,0.007 -0.007,0.0114 -0.741044,1.42567 -0.918481,3.05891 -1.347572,4.55936 l 0.003,-0.009 c -0.148389,0.3984 -0.197833,0.83153 -0.284591,1.23097 -0.08677,0.39944 -0.207668,0.75967 -0.47815,1.03233 -0.003,0.003 -0.0058,0.006 -0.0084,0.009 -0.435762,0.54238 -1.037645,1.13086 -1.694386,1.47471 -0.648502,0.33953 -1.334882,0.44151 -2.010272,0.0613 -0.412038,-0.61586 -0.497732,-1.48473 -0.289709,-2.27623 0.209872,-0.79855 0.711094,-1.50489 1.429332,-1.80018 0.160635,-0.0402 0.275732,-0.0404 0.350422,-0.0186 0.07629,0.0222 0.119918,0.0606 0.157781,0.12502 0.07571,0.12875 0.09528,0.37327 0.09648,0.62991 0.0015,0.25664 -0.01449,0.51996 0.06009,0.7318 0.03726,0.10592 0.107983,0.20614 0.220284,0.25335 0.108204,0.0455 0.236893,0.0373 0.384987,-0.008 0.300402,0.0464 0.544024,-0.0229 0.699942,-0.18663 0.164392,-0.1726 0.238727,-0.41582 0.280687,-0.67619 0.08392,-0.52075 0.03891,-1.1441 0.106385,-1.44887 0.01198,-0.0542 -0.01449,-0.10965 -0.06429,-0.13433 -2.055071,-1.01823 -4.680184,0.22404 -5.445336,2.33452 0,9.7e-4 -0.0015,0.002 -0.0015,0.003 -0.537369,0.86365 -0.569286,1.99124 -0.167084,2.84062 0.400738,0.84632 1.26704,1.40872 2.447217,1.10145 1.348031,0.057 2.580269,-0.85499 3.404419,-1.68268 0.0098,0.38352 0.134368,0.69148 0.346503,0.90851 0.266754,0.27288 0.649744,0.4043 1.056384,0.42646 0.813278,0.0443 1.747067,-0.33314 2.171336,-1.02361 v -9.1e-4 c 0.176269,-0.29107 0.316612,-0.44898 0.406906,-0.50459 0.04515,-0.0278 0.07268,-0.0323 0.09798,-0.0298 0.02529,0.002 0.05542,0.0146 0.09497,0.046 0.158195,0.12537 0.379071,0.54869 0.730573,0.97462 0.01168,0.0141 0.02634,0.0254 0.04298,0.0331 0.834798,0.38104 1.664598,0.18222 2.353166,-0.27348 0.460668,-0.30487 0.857516,-0.72548 1.180784,-1.16967 0.0043,0.068 -0.01168,0.13718 0.0037,0.20346 0.07651,0.33249 0.280228,0.63811 0.558977,0.85892 0.278764,0.22081 0.635472,0.35732 1.017604,0.3399 0.382133,-0.0174 0.785296,-0.19143 1.147122,-0.57011 0.0077,-0.008 0.01405,-0.0172 0.01923,-0.0271 0.20576,-0.38811 0.372031,-0.51698 0.496194,-0.53795 0.124148,-0.021 0.270511,0.0572 0.454101,0.19986 0.183589,0.14262 0.391524,0.33656 0.644937,0.47904 0.253429,0.14248 0.560679,0.23057 0.915405,0.14907 l -0.02823,0.003 0.20045,0.002 c 0.0015,3e-5 0.003,3e-5 0.0044,0 l 0.198957,-0.005 -0.0099,-3.1e-4 c 0.761765,0.0424 1.616072,-0.20933 2.228146,-0.69753 0.611838,-0.48803 0.975423,-1.23674 0.702338,-2.12265 -0.08713,-0.29587 -0.346576,-0.57388 -0.64584,-0.86163 -0.299603,-0.28805 -0.644272,-0.57999 -0.910923,-0.85531 -0.266636,-0.27532 -0.441248,-0.53658 -0.445375,-0.71466 -0.0021,-0.089 0.02538,-0.16365 0.115704,-0.24944 0.08759,-0.0832 0.242572,-0.16984 0.473328,-0.24764 0.270969,-0.0119 0.389985,0.0702 0.476345,0.20857 0.08806,0.14108 0.127653,0.35677 0.162292,0.57311 0.03464,0.21634 0.05749,0.43446 0.189624,0.59415 0.0661,0.0798 0.168341,0.13689 0.286425,0.14546 0.114846,0.008 0.243505,-0.024 0.395192,-0.0884 0.176446,-0.0511 0.298539,-0.20485 0.390977,-0.39039 0.09352,-0.18763 0.157189,-0.41669 0.186947,-0.64945 0.02974,-0.23275 0.02585,-0.46845 -0.02705,-0.67138 -0.0529,-0.20293 -0.161671,-0.38508 -0.351916,-0.45771 -0.0038,-0.002 -0.008,-0.003 -0.01198,-0.004 -0.676737,-0.17967 -1.541781,-0.29667 -2.329724,-0.1704 -0.787944,0.12627 -1.510234,0.51033 -1.830839,1.32234 0,0.002 -0.0015,0.003 -0.0019,0.005 -0.165161,0.47453 -0.0035,0.92593 0.267479,1.32775 0.27094,0.40183 0.65325,0.77247 0.971326,1.12579 0.318047,0.35333 0.562394,0.68902 0.591738,0.97943 0.01464,0.14521 -0.01599,0.28196 -0.121412,0.43247 -0.102791,0.14674 -0.28471,0.30439 -0.562897,0.46642 -0.414952,0.0865 -0.669563,0.0246 -0.829178,-0.10969 -0.162159,-0.13647 -0.245975,-0.36583 -0.268056,-0.64494 -0.04419,-0.55822 0.172896,-1.28508 0.330263,-1.59793 0.03857,-0.0763 -0.01213,-0.16747 -0.09736,-0.1749 -0.41581,-0.0367 -0.744106,0.12758 -0.999265,0.37566 -0.255144,0.24808 -0.449265,0.57647 -0.640737,0.89558 -0.191459,0.31911 -0.380373,0.62904 -0.60286,0.84119 -0.193869,0.18487 -0.416357,0.27851 -0.697532,0.2807 0.0028,-1.19626 0.459633,-2.37493 0.71738,-3.58715 l -0.0093,0.0271 c 0.115807,-0.24098 0.18288,-0.44187 0.197152,-0.61789 0.01435,-0.17602 -0.03192,-0.33435 -0.140654,-0.44419 -0.213879,-0.21603 -0.587552,-0.23868 -1.094542,-0.20075 -1.958507,-0.60712 -4.198248,0.15029 -5.262604,1.93903 v 9e-4 c -0.360864,0.61775 -0.676781,1.58374 -1.117083,2.33272 -0.220136,0.37449 -0.469882,0.69131 -0.757328,0.88357 -0.265364,0.17748 -0.562246,0.24882 -0.926542,0.17791 -0.09173,-0.90334 0.29178,-1.8144 0.47815,-2.75677 0.888235,-1.25767 2.109633,-2.40714 2.625734,-3.97213 l -0.0075,0.0177 c 0.334552,-0.64771 0.275983,-1.20269 -0.01864,-1.5784 -0.294604,-0.3757 -0.798725,-0.56886 -1.324129,-0.57521 z m 0.08143,1.14442 c 0.118558,0.0724 0.187953,0.16865 0.205257,0.32247 0.02217,0.19704 -0.03227,0.46672 -0.132534,0.75283 -0.199312,0.56875 -0.565382,1.19673 -0.753438,1.56998 l -0.109388,0.17641 c 0.0022,-0.0327 -0.0015,-0.049 0.0033,-0.0866 0.02711,-0.24101 0.09331,-0.57413 0.181815,-0.93105 0.1642,-0.66219 0.405027,-1.38371 0.604975,-1.80409 z m 33.568153,0.14366 c -0.27551,-0.0214 -0.566,-0.0124 -0.8433,0.008 -0.36974,0.0277 -0.71528,0.0794 -0.96229,0.11961 l -0.003,6.1e-4 c -0.61935,0.11637 -1.03308,0.37852 -1.26251,0.72969 -0.22946,0.35117 -0.26868,0.77885 -0.18213,1.20543 0.17038,0.83986 0.8155,1.69678 1.57177,2.14609 0.30552,0.49179 0.28201,0.82574 0.12442,1.05337 -0.15931,0.23011 -0.4877,0.3666 -0.83097,0.37476 -0.34323,0.008 -0.68693,-0.11201 -0.87303,-0.3417 -0.18519,-0.22857 -0.24384,-0.57375 0.0139,-1.10145 0.27534,-0.28524 0.40682,-0.49876 0.39131,-0.69663 -0.008,-0.10204 -0.0716,-0.19316 -0.15357,-0.23923 -0.082,-0.0461 -0.17622,-0.0589 -0.27621,-0.055 -0.19996,0.008 -0.43135,0.0865 -0.64433,0.22359 -0.21299,0.1371 -0.40745,0.33548 -0.50728,0.59295 v 0.002 c -0.2391,0.65037 -0.90377,1.29277 -1.63612,1.59883 -0.72573,0.3033 -1.48835,0.28506 -2.01775,-0.31345 -0.22103,-0.66263 -0.23545,-1.48094 -0.0165,-2.19929 0.22083,-0.72469 0.6709,-1.34031 1.36621,-1.62137 0.16129,-0.0405 0.27643,-0.0404 0.35134,-0.0186 0.0763,0.0222 0.1199,0.0606 0.15777,0.12502 0.0757,0.12875 0.0955,0.37327 0.0968,0.62991 0.001,0.25664 -0.0145,0.51996 0.0601,0.7318 0.0373,0.10591 0.10797,0.20614 0.22029,0.25334 0.1082,0.0455 0.23688,0.0373 0.385,-0.008 0.30037,0.0464 0.54371,-0.0229 0.69962,-0.18663 0.16436,-0.17258 0.23878,-0.41586 0.28071,-0.6762 0.0838,-0.52067 0.0389,-1.14381 0.10639,-1.44856 0.012,-0.0542 -0.0145,-0.10966 -0.0643,-0.13433 -1.92997,-0.95721 -4.40302,0.0859 -5.292666,1.99853 -0.0015,0.003 -0.0027,0.007 -0.0038,0.01 -0.215374,0.59551 -0.47957,1.43686 -0.865222,2.10462 -0.192834,0.33387 -0.415543,0.62288 -0.669889,0.81684 -0.220136,0.16786 -0.467974,0.24861 -0.747433,0.25365 0.07417,-1.35777 0.591353,-2.70352 0.880559,-4.08182 l -0.0095,0.0276 c 0.09503,-0.19615 0.150785,-0.35829 0.165295,-0.50008 0.01449,-0.1418 -0.01946,-0.27565 -0.11421,-0.36034 -0.09472,-0.0847 -0.223819,-0.109 -0.367845,-0.10398 -0.139056,0.005 -0.301896,0.0406 -0.48655,0.0962 -0.461171,0.017 -0.794126,0.21585 -1.011585,0.51631 -0.219944,0.30388 -0.333088,0.7 -0.412644,1.12429 -0.159083,0.84858 -0.190512,1.82459 -0.503988,2.39283 l -0.0015,0.002 c -0.466835,0.87575 -0.213436,1.68779 0.352212,2.09711 0.565662,0.40932 1.43189,0.42055 2.137985,-0.20436 l -0.05469,0.0277 c 0.207461,-0.0443 0.366174,-0.21626 0.52502,-0.40782 0.15886,-0.19157 0.311139,-0.41324 0.447489,-0.58033 0.06818,-0.0836 0.132801,-0.153 0.185735,-0.19625 0.05293,-0.0432 0.08986,-0.0532 0.09738,-0.0529 0.0075,3.5e-4 0.01796,-0.003 0.05048,0.0547 0.03254,0.0576 0.06966,0.16882 0.09918,0.33629 0.0033,0.0185 0.0108,0.036 0.02193,0.0511 0.52885,0.71271 1.355187,0.9455 2.191777,0.91061 0.83659,-0.0349 1.69507,-0.32905 2.34685,-0.68221 0.0156,-0.009 0.0292,-0.0205 0.0397,-0.0349 0.24385,-0.33126 0.43533,-0.44549 0.59566,-0.46432 0.16032,-0.0188 0.32402,0.0568 0.51601,0.18483 0.38397,0.25607 0.8528,0.71034 1.54143,0.61489 l -0.0168,0.001 c 0.54631,0.002 1.18662,-0.039 1.77252,-0.21728 0.58536,-0.1781 1.12195,-0.49849 1.42993,-1.05637 0.25899,-0.43445 0.32389,-0.84032 0.25124,-1.20843 -0.0728,-0.36874 -0.27664,-0.69452 -0.53013,-0.99446 -0.49655,-0.58756 -1.18715,-1.09375 -1.56666,-1.60544 -2e-5,-0.34422 0.0968,-0.51871 0.22179,-0.59055 0.13036,-0.0749 0.32454,-0.0614 0.52653,0.0394 0.20197,0.10075 0.4004,0.28502 0.51992,0.5055 0.11952,0.22048 0.16295,0.47128 0.0736,0.72909 -0.0262,0.0758 0.0272,0.15559 0.10729,0.16018 0.34303,0.0199 0.64619,-0.014 0.86824,-0.17581 0.21323,-0.15537 0.31253,-0.43307 0.28611,-0.80182 0.12961,-0.32936 0.15416,-0.60483 0.0778,-0.82826 -0.0777,-0.22758 -0.25588,-0.38689 -0.47334,-0.48777 -0.21747,-0.10087 -0.47793,-0.15263 -0.75344,-0.174 z m -15.524847,1.05336 c -0.156154,-0.002 -0.324851,0.0138 -0.503707,0.0463 -0.801935,-0.1575 -1.728255,0.1603 -2.301461,0.72188 -0.290315,0.28441 -0.491046,0.63594 -0.519917,1.02391 -0.02887,0.38796 0.119682,0.80311 0.49047,1.19521 0.01035,0.011 0.02269,0.02 0.03635,0.0265 0.579329,0.27315 1.145095,1.04652 1.276062,1.69409 0.06549,0.32379 0.02615,0.60296 -0.135833,0.7895 -0.160724,0.18509 -0.462146,0.30345 -0.986042,0.26176 -0.372326,-0.0878 -0.525581,-0.2363 -0.591752,-0.42164 -0.06666,-0.18671 -0.03758,-0.43661 0.03245,-0.70205 0.07005,-0.26543 0.176993,-0.54097 0.236834,-0.78979 0.02991,-0.12441 0.04878,-0.24272 0.03996,-0.35613 -0.0087,-0.11341 -0.05128,-0.22711 -0.142148,-0.30684 -0.02875,-0.0253 -0.06777,-0.0354 -0.105187,-0.0274 -1.047377,0.22681 -1.529771,1.19477 -1.451265,2.06405 0.03925,0.43464 0.216202,0.85127 0.535239,1.14442 0.319038,0.29314 0.780238,0.45497 1.353296,0.38769 l -0.01683,9e-4 c 0.868342,0.0185 1.787533,-0.10953 2.557521,-0.57762 l 0.0015,-9.1e-4 c 0.789097,-0.4949 0.997623,-1.30201 0.818042,-2.04571 -0.179434,-0.74303 -0.725855,-1.4374 -1.441637,-1.78546 l -0.0018,-10e-4 c -0.454752,-0.23214 -0.599074,-0.47774 -0.606158,-0.67679 -0.0071,-0.19938 0.128274,-0.39063 0.328178,-0.507 0.199888,-0.11638 0.449427,-0.14665 0.640426,-0.0493 0.191015,0.0974 0.352981,0.32373 0.364251,0.80272 l 0.0087,-0.0481 c -0.08027,0.19838 -0.0552,0.38529 0.05379,0.49948 0.109003,0.11419 0.267006,0.15181 0.423752,0.15357 0.156746,0.002 0.318283,-0.0343 0.454101,-0.10488 0.135832,-0.0706 0.256963,-0.18495 0.272892,-0.34652 l -0.0096,0.0367 c 0.243519,-0.55705 0.26776,-1.07405 0.07031,-1.46389 -0.197448,-0.38985 -0.61734,-0.62884 -1.180784,-0.63743 z m -13.485155,1.94774 c 0.398771,0.21268 0.566003,0.49051 0.599562,0.82646 0.03428,0.34324 -0.08321,0.75346 -0.292416,1.17117 -0.417051,0.83271 -1.187424,1.68566 -1.68628,2.14249 -0.165353,0.12072 -0.306924,0.15268 -0.43125,0.13554 -0.125391,-0.0173 -0.241005,-0.0872 -0.339611,-0.19745 -0.197226,-0.2205 -0.305416,-0.60053 -0.246743,-0.89889 0.0015,-0.004 0.0015,-0.009 0.0019,-0.0135 0.05709,-0.69056 0.261607,-1.52833 0.653663,-2.16353 0.387975,-0.6286 0.940607,-1.0528 1.741285,-1.00227 z"
                         id="path5361"
                         inkscape:connector-curvature="0" /><path
                         id="path5396"
                         transform="scale(0.26458333)"
                         d="m 369.91797,509.21094 a 8.3606559,8.3606559 0 0 0 -8.36133,8.36133 8.3606559,8.3606559 0 0 0 8.36133,8.35937 8.3606559,8.3606559 0 0 0 8.36133,-8.35937 8.3606559,8.3606559 0 0 0 -8.36133,-8.36133 z m -2.88477,2.59765 a 1.9474989,1.9474989 0 0 1 1.94727,1.94922 1.9474989,1.9474989 0 0 1 -1.94727,1.94727 1.9474989,1.9474989 0 0 1 -1.94726,-1.94727 1.9474989,1.9474989 0 0 1 1.94726,-1.94922 z"
                         style="color:#000000;clip-rule:nonzero;display:inline;overflow:visible;visibility:visible;opacity:1;isolation:auto;mix-blend-mode:normal;color-interpolation:sRGB;color-interpolation-filters:linearRGB;solid-color:#000000;solid-opacity:1;fill:#db0123;fill-opacity:1;fill-rule:evenodd;stroke:none;stroke-width:0.4471972;stroke-linecap:round;stroke-linejoin:round;stroke-miterlimit:4;stroke-dasharray:1.78878883, 1.78878883;stroke-dashoffset:0;stroke-opacity:1;color-rendering:auto;image-rendering:auto;shape-rendering:auto;text-rendering:auto;enable-background:accumulate"
                         inkscape:connector-curvature="0" /></g></g></g></g></g></g></g></g></g></g></svg>