<?xml version="1.0" encoding="UTF-8" ?>
<!DOCTYPE svg PUBLIC "-//W3C//DTD SVG 1.1//EN" "http://www.w3.org/Graphics/SVG/1.1/DTD/svg11.dtd">
<svg width="530pt" height="160pt" viewBox="0 0 530 160" version="1.1" xmlns="http://www.w3.org/2000/svg">
<g id="#ffcc00ff">
<path fill="#ffcc00" opacity="1.00" d=" M 47.65 53.67 C 56.45 48.12 68.16 47.62 77.36 52.49 C 83.18 55.37 87.69 60.35 90.81 65.97 C 81.69 70.31 72.72 74.95 63.60 79.29 C 72.43 84.20 81.61 88.47 90.61 93.08 C 85.83 102.65 75.76 109.26 65.06 109.73 C 51.50 110.60 38.22 101.16 34.55 88.10 C 30.51 75.39 36.22 60.50 47.65 53.67 Z" />
</g>
<g id="#ff0000ff">
<path fill="#ff0000" opacity="1.00" d=" M 451.66 57.43 C 460.95 47.02 478.77 46.64 488.77 56.23 C 494.81 61.66 497.04 70.18 496.69 78.06 C 496.44 87.03 497.09 96.03 496.16 104.96 C 496.35 106.60 493.85 107.62 492.95 106.17 C 490.45 104.59 488.67 100.78 485.34 101.29 C 483.02 102.97 481.76 105.99 478.96 107.00 C 475.23 106.77 474.57 101.44 470.87 101.16 C 466.82 101.32 466.04 107.10 462.06 107.22 C 459.07 105.52 457.18 102.44 454.18 100.73 C 451.58 102.61 449.71 105.33 447.01 107.08 C 444.42 106.24 445.30 103.03 445.01 100.98 C 445.13 91.29 444.67 81.59 445.23 71.91 C 445.64 66.56 448.22 61.64 451.56 57.54 C 451.59 57.52 451.63 57.46 451.66 57.43 M 452.21 66.19 C 450.40 66.96 448.93 68.45 448.15 70.24 C 446.25 74.04 449.14 78.89 453.07 79.86 C 457.33 81.29 462.15 77.43 461.98 72.99 C 462.32 68.12 456.67 64.09 452.21 66.19 M 473.39 66.38 C 468.46 68.49 467.81 75.87 472.36 78.76 C 476.42 82.14 483.05 79.00 483.69 73.95 C 484.73 68.57 478.25 63.58 473.39 66.38 Z" />
</g>
<g id="#007d91ff">
<path fill="#007d91" opacity="1.00" d=" M 337.42 51.74 C 340.09 50.35 343.20 51.20 346.08 50.99 C 348.90 51.20 351.96 50.36 354.58 51.74 C 355.05 51.87 356.00 52.12 356.47 52.25 C 357.52 52.63 358.59 52.95 359.68 53.22 C 363.32 55.19 366.10 58.41 368.71 61.55 C 368.91 62.90 369.09 64.25 369.26 65.62 C 369.02 66.10 368.55 67.07 368.32 67.56 C 366.91 67.81 365.50 67.98 364.09 68.16 C 363.94 64.80 364.45 60.92 361.88 58.28 C 357.34 52.83 349.49 52.69 342.97 52.93 C 337.43 52.88 332.47 55.87 328.55 59.55 C 328.55 58.98 328.54 57.83 328.53 57.25 C 329.60 55.73 330.98 54.48 332.31 53.20 C 333.40 52.94 334.47 52.62 335.53 52.25 C 336.01 52.12 336.95 51.87 337.42 51.74 Z" />
</g>
<g id="#00a2b8ff">
<path fill="#00a2b8" opacity="1.00" d=" M 389.57 51.13 C 392.84 50.94 396.13 50.92 399.40 51.13 C 400.43 51.62 401.50 51.98 402.62 52.22 C 403.74 53.26 404.86 54.30 405.99 55.35 C 406.00 54.51 406.02 52.84 406.02 52.00 C 408.86 52.00 411.70 52.00 414.55 52.00 C 415.69 53.18 416.85 54.33 418.04 55.46 L 418.03 55.72 C 418.02 56.24 418.00 57.27 417.99 57.79 C 417.37 60.39 416.23 63.32 412.97 62.67 C 412.99 59.78 413.00 56.88 413.01 53.99 C 410.89 53.99 408.78 54.00 406.67 54.01 C 407.10 55.85 407.55 57.69 408.04 59.51 C 405.47 56.86 402.70 54.04 398.97 53.18 C 394.13 52.39 388.94 53.00 384.78 55.73 C 383.41 56.96 382.11 58.26 380.80 59.54 C 380.82 58.90 380.85 57.63 380.87 56.99 C 381.92 55.10 383.74 53.79 385.50 52.61 C 386.89 52.22 388.25 51.72 389.57 51.13 Z" />
</g>
<g id="#004863ff">
<path fill="#004863" opacity="1.00" d=" M 108.98 52.00 C 118.22 52.10 127.46 51.84 136.69 52.13 C 136.34 52.60 135.64 53.52 135.29 53.98 L 134.50 54.00 C 128.22 54.03 121.94 53.97 115.66 54.06 C 114.17 54.02 112.68 54.00 111.19 53.97 C 111.12 54.36 110.97 55.13 110.90 55.52 C 110.44 55.99 109.52 56.93 109.06 57.40 C 109.01 55.60 109.00 53.80 108.98 52.00 Z" />
</g>
<g id="#005c73ff">
<path fill="#005c73" opacity="1.00" d=" M 136.69 52.13 C 140.65 51.80 144.64 52.08 148.62 52.00 C 149.62 53.12 150.58 54.27 151.61 55.36 C 151.64 55.40 151.71 55.48 151.75 55.52 L 151.82 56.63 C 151.85 57.60 151.93 59.55 151.96 60.52 C 149.98 60.53 147.99 60.54 146.01 60.54 C 146.01 58.36 146.01 56.18 146.00 54.00 C 142.43 54.00 138.86 53.96 135.29 53.98 C 135.64 53.52 136.34 52.60 136.69 52.13 Z" />
</g>
<g id="#006179ff">
<path fill="#006179" opacity="1.00" d=" M 157.00 51.99 C 157.48 51.99 158.43 52.01 158.90 52.02 C 158.91 52.51 158.93 53.50 158.94 53.99 C 158.98 55.95 159.01 57.91 159.05 59.87 C 160.34 59.93 161.63 59.99 162.92 60.05 C 162.94 60.53 162.98 61.50 163.00 61.98 C 163.01 62.80 163.02 64.42 163.03 65.24 C 160.98 63.42 158.94 61.61 156.84 59.85 C 157.02 57.23 157.01 54.61 157.00 51.99 Z" />
</g>
<g id="#007690ff">
<path fill="#007690" opacity="1.00" d=" M 158.90 52.02 C 164.14 52.02 169.38 52.00 174.62 51.99 C 176.27 53.77 177.89 55.59 179.58 57.36 C 179.65 57.43 179.79 57.57 179.86 57.64 L 179.60 58.40 C 179.22 59.42 178.82 60.43 178.41 61.44 C 176.32 58.80 174.01 56.35 171.62 53.98 C 167.40 54.00 163.17 53.99 158.94 53.99 C 158.93 53.50 158.91 52.51 158.90 52.02 Z" />
</g>
<g id="#007a90ff">
<path fill="#007a90" opacity="1.00" d=" M 197.36 51.99 C 202.76 52.01 208.17 51.99 213.57 52.00 C 214.70 53.15 215.84 54.30 216.99 55.42 L 216.99 55.71 C 216.99 57.85 216.99 59.99 217.00 62.14 C 214.07 64.25 210.55 65.02 206.99 65.12 C 206.99 64.34 207.00 62.78 207.00 62.00 C 207.00 61.51 207.00 60.54 207.00 60.05 C 208.33 60.01 209.67 59.97 211.01 59.93 C 211.01 57.94 211.01 55.96 211.02 53.99 C 206.78 53.98 202.53 54.00 198.29 53.95 C 196.51 55.89 194.82 57.90 193.30 60.05 L 192.90 59.95 C 192.95 59.37 193.06 58.22 193.12 57.65 C 193.94 55.38 195.76 53.72 197.36 51.99 Z" />
</g>
<g id="#008699ff">
<path fill="#008699" opacity="1.00" d=" M 222.01 52.00 C 229.19 52.00 236.37 52.00 243.56 52.00 C 244.69 53.16 245.83 54.30 247.00 55.43 L 247.00 55.70 C 247.00 57.26 247.00 58.82 247.00 60.39 C 243.68 60.85 240.34 61.10 237.00 61.20 L 237.00 60.00 C 238.33 59.98 239.66 59.96 241.00 59.94 C 241.00 57.96 241.01 55.98 241.01 53.99 C 235.34 53.99 229.67 53.99 224.00 54.00 C 223.99 55.83 223.99 57.67 224.00 59.50 C 223.49 59.13 222.48 58.37 221.98 58.00 C 222.00 56.00 222.00 54.00 222.01 52.00 Z" />
</g>
<g id="#008ba1ff">
<path fill="#008ba1" opacity="1.00" d=" M 249.01 52.01 C 256.20 51.99 263.40 52.01 270.60 51.99 C 271.79 53.25 273.05 54.46 274.14 55.82 C 273.07 58.40 270.82 59.94 268.02 59.95 C 268.01 57.96 268.00 55.98 268.00 53.99 C 262.33 53.99 256.67 54.00 251.01 54.00 C 250.99 55.88 250.97 57.77 250.96 59.65 C 250.47 59.47 249.50 59.11 249.02 58.93 C 249.01 58.54 249.01 57.76 249.00 57.37 C 248.99 55.58 249.00 53.80 249.01 52.01 Z" />
</g>
<g id="#00899fff">
<path fill="#00899f" opacity="1.00" d=" M 280.01 52.00 C 287.21 52.00 294.41 52.00 301.62 52.00 C 302.13 52.57 303.15 53.72 303.66 54.29 C 302.62 56.45 301.20 58.44 299.13 59.72 C 299.06 57.81 299.01 55.91 298.96 54.00 C 293.30 53.99 287.65 53.99 281.99 54.00 C 282.00 55.81 282.00 57.62 282.01 59.44 C 281.50 59.09 280.48 58.38 279.97 58.03 C 279.99 56.02 280.00 54.01 280.01 52.00 Z" />
</g>
<g id="#969696ff">
<path fill="#969696" opacity="1.00" d=" M 328.55 59.55 C 332.47 55.87 337.43 52.88 342.97 52.93 C 349.49 52.69 357.34 52.83 361.88 58.28 C 364.45 60.92 363.94 64.80 364.09 68.16 C 360.97 66.68 357.59 65.76 354.11 65.90 C 354.90 59.80 346.86 55.94 341.99 58.91 C 339.67 60.02 338.52 62.44 337.88 64.79 C 334.64 64.54 331.41 64.21 328.19 63.85 C 328.32 62.42 328.50 60.99 328.55 59.55 Z" />
</g>
<g id="#b5b5b5ff">
<path fill="#b5b5b5" opacity="1.00" d=" M 384.78 55.73 C 388.94 53.00 394.13 52.39 398.97 53.18 C 402.70 54.04 405.47 56.86 408.04 59.51 C 407.55 57.69 407.10 55.85 406.67 54.01 C 408.78 54.00 410.89 53.99 413.01 53.99 C 413.00 56.88 412.99 59.78 412.97 62.67 C 412.96 63.77 412.95 64.87 412.95 65.97 C 411.37 65.97 409.80 65.97 408.23 65.96 C 406.76 63.17 405.06 60.49 402.86 58.21 C 401.53 57.85 400.22 57.47 398.91 57.07 C 397.71 57.51 396.52 57.94 395.36 58.42 C 394.96 58.64 394.18 59.08 393.79 59.29 C 390.76 58.18 387.75 57.00 384.78 55.73 Z" />
</g>
<g id="#6b6b6bff">
<path fill="#6b6b6b" opacity="1.00" d=" M 111.19 53.97 C 112.68 54.00 114.17 54.02 115.66 54.06 C 119.26 55.80 122.69 57.87 126.12 59.93 C 126.05 61.47 126.00 63.02 125.96 64.56 C 122.86 63.54 119.92 62.13 117.07 60.55 C 115.05 60.15 113.00 59.99 110.96 59.79 C 110.92 58.37 110.90 56.94 110.90 55.52 C 110.97 55.13 111.12 54.36 111.19 53.97 Z" />
<path fill="#6b6b6b" opacity="1.00" d=" M 134.50 54.00 L 135.29 53.98 C 138.86 53.96 142.43 54.00 146.00 54.00 C 146.01 56.18 146.01 58.36 146.01 60.54 L 146.01 61.07 C 142.08 58.87 138.15 56.66 134.50 54.00 Z" />
</g>
<g id="#5e5e5eff">
<path fill="#5e5e5e" opacity="1.00" d=" M 115.66 54.06 C 121.94 53.97 128.22 54.03 134.50 54.00 C 138.15 56.66 142.08 58.87 146.01 61.07 C 146.00 63.05 145.99 65.02 145.98 67.00 C 144.66 67.00 143.35 67.01 142.03 67.02 C 142.01 64.68 141.99 62.35 141.97 60.01 C 136.69 59.98 131.40 60.04 126.12 59.93 C 122.69 57.87 119.26 55.80 115.66 54.06 Z" />
</g>
<g id="#808080ff">
<path fill="#808080" opacity="1.00" d=" M 158.94 53.99 C 163.17 53.99 167.40 54.00 171.62 53.98 C 174.01 56.35 176.32 58.80 178.41 61.44 C 179.90 63.30 181.44 65.14 182.96 66.98 C 176.26 65.53 169.44 64.39 163.00 61.98 C 162.98 61.50 162.94 60.53 162.92 60.05 C 161.63 59.99 160.34 59.93 159.05 59.87 C 159.01 57.91 158.98 55.95 158.94 53.99 Z" />
<path fill="#808080" opacity="1.00" d=" M 117.07 60.55 C 119.92 62.13 122.86 63.54 125.96 64.56 C 125.95 64.76 125.95 65.15 125.95 65.34 C 125.93 67.55 125.96 69.76 126.00 71.97 C 128.98 71.99 131.96 72.01 134.94 72.03 C 134.99 73.70 135.05 75.37 135.12 77.03 C 133.56 76.96 132.00 76.94 130.44 76.89 C 125.98 75.20 121.53 73.50 116.99 72.05 C 117.00 70.36 117.02 68.67 117.04 66.99 C 117.06 64.84 117.07 62.70 117.07 60.55 Z" />
<path fill="#808080" opacity="1.00" d=" M 197.96 87.14 C 200.97 87.57 203.98 87.97 207.00 88.31 C 207.00 88.86 206.99 89.95 206.99 90.50 C 207.00 91.38 207.01 93.14 207.02 94.02 C 203.97 93.75 200.95 93.34 197.94 92.83 C 198.03 90.93 198.05 89.03 197.96 87.14 Z" />
</g>
<g id="#929292ff">
<path fill="#929292" opacity="1.00" d=" M 198.29 53.95 C 202.53 54.00 206.78 53.98 211.02 53.99 C 211.01 55.96 211.01 57.94 211.01 59.93 C 209.67 59.97 208.33 60.01 207.00 60.05 C 207.00 60.54 207.00 61.51 207.00 62.00 C 202.41 61.51 197.80 61.07 193.30 60.05 C 194.82 57.90 196.51 55.89 198.29 53.95 Z" />
<path fill="#929292" opacity="1.00" d=" M 116.99 72.05 C 121.53 73.50 125.98 75.20 130.44 76.89 C 129.01 76.91 127.59 76.93 126.17 76.96 C 126.08 78.21 125.96 79.45 125.83 80.70 C 125.60 80.97 125.16 81.52 124.93 81.79 C 122.57 79.79 119.70 80.25 116.98 81.12 C 116.97 79.63 116.97 78.13 116.96 76.63 C 116.96 75.10 116.98 73.58 116.99 72.05 Z" />
</g>
<g id="#999999ff">
<path fill="#999999" opacity="1.00" d=" M 224.00 54.00 C 229.67 53.99 235.34 53.99 241.01 53.99 C 241.01 55.98 241.00 57.96 241.00 59.94 C 239.66 59.96 238.33 59.98 237.00 60.00 C 234.00 60.04 231.00 60.11 228.00 60.05 C 226.82 60.01 225.64 59.93 224.47 59.81 L 224.00 59.50 C 223.99 57.67 223.99 55.83 224.00 54.00 Z" />
<path fill="#999999" opacity="1.00" d=" M 251.01 54.00 C 256.67 54.00 262.33 53.99 268.00 53.99 C 268.00 55.98 268.01 57.96 268.02 59.95 C 266.66 60.03 265.30 60.09 263.95 60.14 C 263.95 60.88 263.96 62.35 263.97 63.09 C 260.97 62.65 257.96 62.25 254.99 61.63 C 254.97 61.28 254.95 60.56 254.93 60.20 C 253.60 60.03 252.27 59.89 250.96 59.65 C 250.97 57.77 250.99 55.88 251.01 54.00 Z" />
</g>
<g id="#9c9c9cff">
<path fill="#9c9c9c" opacity="1.00" d=" M 281.99 54.00 C 287.65 53.99 293.30 53.99 298.96 54.00 C 299.01 55.91 299.06 57.81 299.13 59.72 C 297.76 59.92 296.37 60.05 295.00 60.19 C 292.06 60.45 289.10 60.61 286.15 60.45 C 284.91 60.26 283.68 60.02 282.46 59.72 L 282.01 59.44 C 282.00 57.62 282.00 55.81 281.99 54.00 Z" />
</g>
<g id="#007689ff">
<path fill="#007689" opacity="1.00" d=" M 303.66 54.29 L 303.91 53.85 C 304.16 54.32 304.67 55.27 304.93 55.74 C 305.10 59.12 304.96 62.50 304.91 65.88 C 303.62 65.90 302.34 65.92 301.06 65.94 C 301.04 66.47 301.00 67.54 300.98 68.08 C 299.05 69.22 297.02 70.20 295.02 71.21 C 295.01 69.42 295.00 67.63 295.00 65.83 C 294.99 63.95 294.99 62.07 295.00 60.19 C 296.37 60.05 297.76 59.92 299.13 59.72 C 301.20 58.44 302.62 56.45 303.66 54.29 Z" />
</g>
<g id="#000000ff">
<path fill="#000000" opacity="1.00" d=" M 151.61 55.36 C 151.64 55.40 151.71 55.48 151.75 55.52 C 151.71 55.48 151.64 55.40 151.61 55.36 Z" />
<path fill="#000000" opacity="1.00" d=" M 216.99 55.71 C 217.50 56.12 218.51 56.94 219.01 57.35 C 219.00 60.90 219.00 64.45 219.00 68.00 C 217.66 68.00 216.33 68.00 215.00 68.00 C 215.00 72.52 215.02 77.03 214.97 81.55 C 211.39 78.52 213.41 73.38 213.04 69.36 C 213.04 68.53 213.05 66.86 213.05 66.03 C 214.36 66.00 215.68 65.96 217.00 65.93 C 217.00 64.67 217.00 63.40 217.00 62.14 C 216.99 59.99 216.99 57.85 216.99 55.71 Z" />
<path fill="#000000" opacity="1.00" d=" M 247.00 55.70 C 247.50 56.11 248.50 56.95 249.00 57.37 C 249.01 57.76 249.01 58.54 249.02 58.93 C 249.01 60.17 249.01 61.41 249.00 62.65 C 248.99 64.43 248.99 66.21 248.99 68.00 C 247.66 68.00 246.33 68.00 245.00 68.00 C 245.00 72.52 245.01 77.03 244.98 81.54 C 244.48 81.06 243.49 80.10 243.00 79.62 C 242.99 76.84 243.02 74.06 243.05 71.28 C 243.04 69.64 243.03 68.01 243.02 66.38 C 244.33 66.11 245.64 65.87 246.95 65.65 C 246.97 63.89 246.99 62.14 247.00 60.39 C 247.00 58.82 247.00 57.26 247.00 55.70 Z" />
<path fill="#000000" opacity="1.00" d=" M 274.14 55.82 C 274.61 56.21 275.54 56.98 276.01 57.36 C 276.00 60.90 276.00 64.45 276.00 67.99 C 274.66 68.00 273.33 68.00 272.00 68.01 C 272.00 72.52 272.01 77.04 271.99 81.55 C 271.48 81.09 270.47 80.17 269.96 79.71 C 269.99 76.27 270.02 72.83 269.99 69.39 C 269.98 68.53 269.95 66.82 269.94 65.96 C 271.27 65.94 272.60 65.92 273.94 65.89 C 273.95 62.54 273.99 59.18 274.14 55.82 Z" />
<path fill="#000000" opacity="1.00" d=" M 304.93 55.74 C 305.45 56.14 306.49 56.94 307.02 57.33 C 306.99 60.89 307.00 64.44 307.00 68.00 C 305.66 68.00 304.33 68.00 303.00 68.00 C 302.99 72.54 303.03 77.07 302.96 81.61 C 299.21 78.21 301.55 72.51 300.98 68.08 C 301.00 67.54 301.04 66.47 301.06 65.94 C 302.34 65.92 303.62 65.90 304.91 65.88 C 304.96 62.50 305.10 59.12 304.93 55.74 Z" />
<path fill="#000000" opacity="1.00" d=" M 418.03 55.72 C 418.53 56.13 419.51 56.94 420.01 57.35 C 419.99 62.90 420.00 68.45 420.00 74.00 C 417.11 74.00 414.23 74.00 411.35 74.01 C 410.93 73.49 410.09 72.43 409.67 71.91 C 412.41 71.97 415.17 71.92 417.93 71.92 C 417.96 67.21 417.96 62.50 417.99 57.79 C 418.00 57.27 418.02 56.24 418.03 55.72 Z" />
<path fill="#000000" opacity="1.00" d=" M 151.82 56.63 C 152.37 57.06 153.47 57.91 154.01 58.34 C 153.99 63.89 154.00 69.44 154.00 75.00 C 150.66 75.00 147.33 75.00 144.00 75.00 C 144.00 74.50 144.00 73.50 144.01 73.00 C 146.64 73.00 149.27 72.99 151.91 72.98 C 151.83 68.83 151.95 64.67 151.96 60.52 C 151.93 59.55 151.85 57.60 151.82 56.63 Z" />
<path fill="#000000" opacity="1.00" d=" M 179.58 57.36 C 179.65 57.43 179.79 57.57 179.86 57.64 C 179.79 57.57 179.65 57.43 179.58 57.36 Z" />
<path fill="#000000" opacity="1.00" d=" M 183.46 62.44 C 183.49 62.48 183.54 62.55 183.57 62.59 C 183.54 62.55 183.49 62.48 183.46 62.44 Z" />
<path fill="#000000" opacity="1.00" d=" M 343.94 67.48 C 345.49 65.95 347.39 64.88 349.47 64.25 C 350.40 64.62 351.34 64.98 352.30 65.32 C 351.04 66.10 349.74 66.80 348.40 67.41 C 347.59 68.06 346.78 68.71 345.97 69.37 C 346.01 73.77 346.01 78.17 345.98 82.57 C 345.46 82.09 344.41 81.11 343.88 80.62 C 343.94 76.24 344.02 71.86 343.94 67.48 Z" />
<path fill="#000000" opacity="1.00" d=" M 400.20 63.86 C 401.66 63.94 403.12 64.00 404.58 64.12 C 404.78 64.50 405.17 65.26 405.37 65.64 C 402.97 65.59 400.99 66.78 400.50 69.21 L 399.39 69.03 C 398.93 68.94 398.01 68.78 397.55 68.70 C 398.42 67.08 399.31 65.47 400.20 63.86 Z" />
<path fill="#000000" opacity="1.00" d=" M 449.24 71.36 C 450.69 68.38 455.54 69.71 455.35 72.95 C 455.44 74.95 453.28 75.66 451.97 76.62 C 450.24 75.55 447.66 73.66 449.24 71.36 Z" />
<path fill="#000000" opacity="1.00" d=" M 472.19 70.13 C 474.70 68.27 478.48 72.07 476.45 74.49 C 475.30 76.71 472.66 76.02 470.87 75.15 C 470.78 73.46 470.13 70.95 472.19 70.13 Z" />
<path fill="#000000" opacity="1.00" d=" M 177.80 73.58 C 178.61 74.53 179.40 75.49 180.20 76.44 C 180.05 77.56 179.74 79.80 179.59 80.91 C 177.60 78.97 177.97 76.10 177.80 73.58 Z" />
<path fill="#000000" opacity="1.00" d=" M 140.97 74.69 C 141.48 75.11 142.51 75.95 143.02 76.37 C 143.00 78.91 143.00 81.45 142.99 84.00 C 141.59 84.06 140.20 84.14 138.81 84.31 L 138.07 85.21 C 137.96 87.14 137.97 89.06 137.95 90.99 C 137.30 90.99 136.00 91.00 135.35 91.00 C 134.85 91.55 133.87 92.64 133.37 93.19 C 132.78 92.30 132.18 91.40 131.80 90.39 C 132.88 89.63 134.04 89.00 135.27 88.51 L 136.00 89.04 C 136.00 87.01 136.00 84.97 136.01 82.94 C 137.54 82.94 139.08 82.94 140.61 82.97 L 141.02 83.00 C 141.00 80.23 140.98 77.46 140.97 74.69 Z" />
<path fill="#000000" opacity="1.00" d=" M 388.42 79.46 L 388.48 79.51 L 388.55 79.56 C 388.52 79.53 388.45 79.49 388.42 79.46 Z" />
<path fill="#000000" opacity="1.00" d=" M 414.40 79.34 C 414.49 79.40 414.67 79.52 414.76 79.58 C 414.67 79.52 414.49 79.40 414.40 79.34 Z" />
<path fill="#000000" opacity="1.00" d=" M 181.51 82.34 C 181.57 82.35 181.69 82.38 181.75 82.39 C 181.69 82.38 181.57 82.35 181.51 82.34 Z" />
<path fill="#000000" opacity="1.00" d=" M 420.33 82.38 C 420.43 82.47 420.62 82.64 420.72 82.73 C 420.62 82.64 420.43 82.47 420.33 82.38 Z" />
<path fill="#000000" opacity="1.00" d=" M 181.80 83.60 C 182.36 84.04 183.47 84.91 184.02 85.34 C 184.01 87.08 184.00 88.81 183.97 90.55 C 182.12 91.31 180.69 92.71 179.41 94.21 C 178.92 93.88 177.93 93.21 177.44 92.88 C 178.60 91.03 180.12 89.46 181.92 88.23 C 181.89 86.68 181.86 85.14 181.80 83.60 Z" />
<path fill="#000000" opacity="1.00" d=" M 216.92 83.65 C 217.62 84.56 218.31 85.47 218.99 86.40 C 218.99 87.86 218.99 89.32 219.00 90.79 C 216.69 90.57 215.02 91.97 214.54 94.19 L 213.48 94.04 C 213.08 93.98 212.30 93.85 211.90 93.79 C 211.94 93.42 212.02 92.67 212.06 92.30 C 213.02 90.85 214.16 89.53 215.46 88.37 C 215.86 88.57 216.65 88.97 217.04 89.17 C 217.04 87.33 217.01 85.49 216.92 83.65 Z" />
<path fill="#000000" opacity="1.00" d=" M 273.97 83.72 C 274.48 84.12 275.50 84.94 276.01 85.35 C 276.00 87.16 276.00 88.97 276.00 90.78 C 275.36 90.88 274.08 91.09 273.44 91.19 C 271.07 92.45 272.53 95.64 271.20 97.61 C 271.10 98.61 271.00 99.62 270.92 100.64 C 269.57 102.94 267.89 105.11 265.47 106.35 C 264.48 106.83 263.49 107.33 262.52 107.83 C 261.54 107.96 260.56 108.09 259.59 108.21 C 254.83 109.92 249.52 108.66 244.54 108.91 C 243.21 108.28 241.83 107.75 240.50 107.13 C 239.96 107.09 238.87 107.02 238.33 106.98 C 237.31 106.17 236.32 105.34 235.35 104.48 C 245.03 108.07 256.69 108.63 265.75 103.07 C 267.76 100.95 269.05 98.26 269.44 95.37 C 269.88 93.18 270.37 90.99 270.93 88.83 C 271.70 88.88 273.22 88.99 273.99 89.04 C 273.98 87.27 273.97 85.49 273.97 83.72 Z" />
<path fill="#000000" opacity="1.00" d=" M 347.07 83.59 C 347.55 84.03 348.52 84.93 349.00 85.37 L 349.00 85.63 C 349.00 87.29 349.00 88.94 349.00 90.60 C 347.43 91.39 345.84 92.13 344.26 92.92 C 343.95 92.94 343.31 93.00 342.99 93.02 C 343.00 92.33 343.02 90.94 343.03 90.24 C 344.34 89.74 345.64 89.24 346.96 88.74 C 346.99 87.02 347.03 85.30 347.07 83.59 Z" />
<path fill="#000000" opacity="1.00" d=" M 373.97 83.70 C 374.48 84.11 375.50 84.95 376.02 85.36 C 376.00 87.18 376.00 88.99 376.00 90.81 C 375.35 90.90 374.06 91.10 373.41 91.20 C 370.53 93.01 373.06 97.07 371.22 99.61 C 371.15 100.11 371.03 101.11 370.96 101.61 C 369.06 103.58 367.09 105.54 364.62 106.81 C 364.10 107.04 363.04 107.51 362.52 107.74 C 361.11 108.01 359.67 108.17 358.39 108.86 C 353.75 108.83 348.92 109.71 344.41 108.37 C 343.06 108.00 341.70 107.67 340.38 107.21 C 339.88 107.15 338.86 107.03 338.35 106.97 C 337.93 106.46 337.08 105.43 336.65 104.91 C 346.32 107.89 357.95 108.70 366.49 102.35 C 368.32 100.32 369.85 97.84 369.95 95.03 C 370.01 93.36 370.01 91.70 370.04 90.04 C 371.31 89.52 372.59 89.01 373.87 88.50 C 373.90 86.90 373.93 85.30 373.97 83.70 Z" />
<path fill="#000000" opacity="1.00" d=" M 190.57 84.55 C 191.39 85.23 192.21 85.91 193.02 86.62 C 192.54 87.05 191.59 87.91 191.11 88.34 C 190.42 87.76 189.72 87.17 189.04 86.58 C 189.42 86.07 190.18 85.06 190.57 84.55 Z" />
<path fill="#000000" opacity="1.00" d=" M 319.90 87.67 C 320.43 88.07 321.50 88.89 322.04 89.29 C 322.04 94.43 321.83 99.58 322.20 104.72 C 321.64 104.18 320.53 103.11 319.98 102.57 C 319.98 101.32 319.99 100.08 320.01 98.83 C 320.01 95.11 320.04 91.39 319.90 87.67 Z" />
<path fill="#000000" opacity="1.00" d=" M 390.86 87.67 C 391.41 88.09 392.51 88.93 393.06 89.35 C 393.00 90.61 392.93 91.87 392.86 93.13 C 390.73 92.07 391.01 89.67 390.86 87.67 Z" />
<path fill="#000000" opacity="1.00" d=" M 161.31 89.63 C 161.34 89.67 161.40 89.74 161.44 89.77 C 161.40 89.74 161.34 89.67 161.31 89.63 Z" />
<path fill="#000000" opacity="1.00" d=" M 219.44 99.82 C 220.02 100.50 220.57 101.21 221.10 101.94 C 220.19 104.35 218.36 106.20 216.62 108.04 C 214.62 108.01 212.62 107.98 210.62 107.87 C 209.06 106.66 206.94 106.69 205.37 107.87 C 203.38 107.98 201.38 108.01 199.38 108.03 C 198.96 107.54 198.12 106.55 197.70 106.05 C 203.35 105.34 208.98 105.29 214.61 106.16 C 215.49 105.14 216.39 104.13 217.24 103.08 C 218.00 102.01 218.71 100.91 219.44 99.82 Z" />
<path fill="#000000" opacity="1.00" d=" M 391.72 102.10 C 392.02 102.41 392.62 103.03 392.92 103.34 L 393.28 103.74 C 392.80 105.43 390.90 105.93 389.59 106.78 C 389.07 107.06 388.02 107.62 387.50 107.90 C 386.46 107.95 385.43 108.00 384.40 108.04 C 384.01 107.61 383.24 106.74 382.85 106.31 C 386.16 105.79 389.05 104.04 391.72 102.10 Z" />
<path fill="#000000" opacity="1.00" d=" M 335.39 104.50 C 335.42 104.53 335.48 104.58 335.51 104.60 C 335.48 104.58 335.42 104.53 335.39 104.50 Z" />
</g>
<g id="#006579ff">
<path fill="#006579" opacity="1.00" d=" M 109.06 57.40 C 109.52 56.93 110.44 55.99 110.90 55.52 C 110.90 56.94 110.92 58.37 110.96 59.79 C 113.00 59.99 115.05 60.15 117.07 60.55 C 117.07 62.70 117.06 64.84 117.04 66.99 C 116.53 67.21 115.53 67.65 115.03 67.87 L 114.31 68.18 C 114.30 67.64 114.27 66.57 114.25 66.04 C 113.80 66.02 112.89 65.98 112.43 65.97 C 111.74 64.17 110.38 62.79 109.02 61.49 C 109.02 60.12 109.04 58.76 109.06 57.40 Z" />
</g>
<g id="#00788cff">
<path fill="#00788c" opacity="1.00" d=" M 268.02 59.95 C 270.82 59.94 273.07 58.40 274.14 55.82 C 273.99 59.18 273.95 62.54 273.94 65.89 C 272.60 65.92 271.27 65.94 269.94 65.96 C 269.95 66.82 269.98 68.53 269.99 69.39 C 268.01 70.02 266.03 70.62 264.05 71.22 C 264.05 70.57 264.04 69.28 264.03 68.63 C 264.01 66.78 263.98 64.93 263.97 63.09 C 263.96 62.35 263.95 60.88 263.95 60.14 C 265.30 60.09 266.66 60.03 268.02 59.95 Z" />
</g>
<g id="#a7a7a7ff">
<path fill="#a7a7a7" opacity="1.00" d=" M 380.80 59.54 C 382.11 58.26 383.41 56.96 384.78 55.73 C 387.75 57.00 390.76 58.18 393.79 59.29 C 392.62 61.58 392.46 64.14 392.98 66.62 C 393.38 67.03 394.19 67.85 394.59 68.26 C 395.05 68.74 395.99 69.70 396.45 70.17 C 391.08 68.59 385.97 66.31 380.87 64.05 C 380.82 62.54 380.79 61.04 380.80 59.54 Z" />
</g>
<g id="#005569ff">
<path fill="#005569" opacity="1.00" d=" M 328.52 56.62 L 328.53 57.25 C 328.54 57.83 328.55 58.98 328.55 59.55 C 328.50 60.99 328.32 62.42 328.19 63.85 C 327.90 66.83 327.92 69.81 327.98 72.79 C 328.03 75.42 328.07 78.04 328.10 80.67 C 328.79 80.98 329.50 81.30 330.21 81.62 C 331.72 79.02 333.87 80.42 335.80 81.64 C 336.49 80.99 337.19 80.34 337.89 79.69 C 337.95 77.41 338.02 75.14 338.05 72.86 C 338.04 72.27 338.04 71.09 338.03 70.50 C 340.15 69.82 342.35 69.13 343.94 67.48 C 344.02 71.86 343.94 76.24 343.88 80.62 C 344.41 81.11 345.46 82.09 345.98 82.57 C 346.25 82.83 346.80 83.33 347.07 83.59 C 347.03 85.30 346.99 87.02 346.96 88.74 C 345.64 89.24 344.34 89.74 343.03 90.24 C 342.53 89.89 341.52 89.20 341.02 88.85 C 340.14 88.98 338.38 89.22 337.50 89.34 C 337.27 88.77 336.80 87.62 336.57 87.05 C 338.46 84.82 340.69 82.90 342.55 80.65 C 339.83 81.50 337.44 83.08 335.27 84.90 C 334.36 83.93 333.46 82.97 332.57 82.00 C 331.65 82.94 330.73 83.87 329.82 84.81 C 328.29 82.68 325.91 81.65 323.45 81.01 C 325.23 82.85 327.14 84.64 328.38 86.93 C 328.14 88.53 327.93 90.14 327.61 91.73 C 327.56 91.98 327.45 92.48 327.39 92.73 L 326.05 93.41 C 326.02 92.08 326.00 90.75 325.99 89.42 C 324.65 88.14 323.33 86.85 322.00 85.58 C 322.01 83.73 322.02 81.88 322.04 80.03 C 323.36 80.03 324.70 80.03 326.03 80.03 C 326.33 73.48 325.29 66.79 326.53 60.33 C 327.05 59.02 327.71 57.78 328.52 56.62 Z" />
</g>
<g id="#007287ff">
<path fill="#007287" opacity="1.00" d=" M 380.16 57.00 L 380.87 56.99 C 380.85 57.63 380.82 58.90 380.80 59.54 C 380.79 61.04 380.82 62.54 380.87 64.05 C 381.00 65.97 381.08 68.05 382.34 69.65 C 385.87 74.46 391.72 76.54 396.60 79.65 C 399.44 79.90 402.28 80.30 405.06 80.97 C 405.58 80.67 406.61 80.07 407.13 79.77 C 407.88 80.49 408.64 81.20 409.40 81.92 C 409.87 81.60 410.82 80.95 411.29 80.62 C 411.48 81.07 411.87 81.97 412.06 82.42 C 411.23 83.26 410.41 84.12 409.59 84.97 C 408.75 84.23 407.90 83.48 407.07 82.74 C 406.57 83.06 405.58 83.71 405.08 84.03 C 403.42 82.95 401.82 81.71 399.95 81.02 C 398.29 81.16 396.69 81.60 395.07 81.90 C 394.00 81.92 392.95 81.89 391.90 81.82 C 390.75 81.11 389.63 80.36 388.55 79.56 L 388.48 79.51 L 388.42 79.46 C 385.34 76.90 382.08 74.29 380.24 70.64 C 379.94 70.11 379.36 69.04 379.07 68.51 C 379.04 64.65 378.39 60.59 380.16 57.00 Z" />
</g>
<g id="#0099acff">
<path fill="#0099ac" opacity="1.00" d=" M 395.36 58.42 C 396.52 57.94 397.71 57.51 398.91 57.07 C 400.22 57.47 401.53 57.85 402.86 58.21 C 405.06 60.49 406.76 63.17 408.23 65.96 C 409.80 65.97 411.37 65.97 412.95 65.97 C 412.95 64.87 412.96 63.77 412.97 62.67 C 416.23 63.32 417.37 60.39 417.99 57.79 C 417.96 62.50 417.96 67.21 417.93 71.92 C 415.17 71.92 412.41 71.97 409.67 71.91 C 407.90 70.62 406.93 68.27 405.75 66.39 L 405.37 65.64 C 405.17 65.26 404.78 64.50 404.58 64.12 C 403.12 64.00 401.66 63.94 400.20 63.86 C 399.31 65.47 398.42 67.08 397.55 68.70 C 396.81 68.59 395.33 68.37 394.59 68.26 C 394.19 67.85 393.38 67.03 392.98 66.62 C 392.46 64.14 392.62 61.58 393.79 59.29 C 394.18 59.08 394.96 58.64 395.36 58.42 Z" />
</g>
<g id="#6a35387c">
<path fill="#6a3538" opacity="0.49" d=" M 451.56 57.54 C 451.59 57.52 451.63 57.46 451.66 57.43 C 451.63 57.46 451.59 57.52 451.56 57.54 Z" />
</g>
<g id="#006375ff">
<path fill="#006375" opacity="1.00" d=" M 188.67 62.57 C 189.67 60.55 191.35 59.00 193.12 57.65 C 193.06 58.22 192.95 59.37 192.90 59.95 C 191.01 62.70 188.89 65.29 186.69 67.80 C 186.28 68.23 185.46 69.09 185.05 69.52 C 184.35 68.67 183.66 67.83 182.96 66.98 C 181.44 65.14 179.90 63.30 178.41 61.44 C 178.82 60.43 179.22 59.42 179.60 58.40 C 181.06 59.57 182.34 60.94 183.46 62.44 C 183.49 62.48 183.54 62.55 183.57 62.59 C 184.33 63.69 185.31 64.61 186.38 65.41 C 187.15 64.47 187.91 63.52 188.67 62.57 Z" />
</g>
<g id="#00778bff">
<path fill="#00778b" opacity="1.00" d=" M 221.98 58.00 C 222.48 58.37 223.49 59.13 224.00 59.50 L 224.47 59.81 C 225.64 59.93 226.82 60.01 228.00 60.05 C 228.00 61.62 228.00 63.19 228.00 64.77 C 227.99 66.56 227.99 68.36 227.97 70.16 C 227.48 69.82 226.50 69.14 226.02 68.80 C 226.02 68.21 226.02 67.01 226.03 66.42 C 224.68 65.14 223.34 63.85 222.00 62.57 C 221.99 61.04 221.99 59.52 221.98 58.00 Z" />
</g>
<g id="#007c90ff">
<path fill="#007c90" opacity="1.00" d=" M 279.97 58.03 C 280.48 58.38 281.50 59.09 282.01 59.44 L 282.46 59.72 C 283.68 60.02 284.91 60.26 286.15 60.45 C 286.07 62.68 286.01 64.90 285.96 67.12 L 285.94 68.34 C 285.46 67.87 284.49 66.92 284.01 66.44 C 282.68 65.14 281.35 63.84 280.00 62.56 C 279.99 61.05 279.98 59.54 279.97 58.03 Z" />
</g>
<g id="#00798cff">
<path fill="#00798c" opacity="1.00" d=" M 341.99 58.91 C 346.86 55.94 354.90 59.80 354.11 65.90 C 353.65 65.75 352.75 65.47 352.30 65.32 C 351.34 64.98 350.40 64.62 349.47 64.25 C 347.39 64.88 345.49 65.95 343.94 67.48 C 342.35 69.13 340.15 69.82 338.03 70.50 C 337.98 68.59 337.90 66.69 337.88 64.79 C 338.52 62.44 339.67 60.02 341.99 58.91 Z" />
<path fill="#00798c" opacity="1.00" d=" M 249.02 58.93 C 249.50 59.11 250.47 59.47 250.96 59.65 C 252.27 59.89 253.60 60.03 254.93 60.20 C 254.95 60.56 254.97 61.28 254.99 61.63 C 255.01 63.54 254.97 65.45 254.95 67.35 C 254.46 67.06 253.49 66.46 253.00 66.16 C 251.60 65.07 250.31 63.85 249.00 62.65 C 249.01 61.41 249.01 60.17 249.02 58.93 Z" />
</g>
<g id="#005064ff">
<path fill="#005064" opacity="1.00" d=" M 126.12 59.93 C 131.40 60.04 136.69 59.98 141.97 60.01 C 141.99 62.35 142.01 64.68 142.03 67.02 C 143.35 67.01 144.66 67.00 145.98 67.00 C 145.99 65.02 146.00 63.05 146.01 61.07 L 146.01 60.54 C 147.99 60.54 149.98 60.53 151.96 60.52 C 151.95 64.67 151.83 68.83 151.91 72.98 C 149.27 72.99 146.64 73.00 144.01 73.00 C 143.60 73.00 142.78 73.00 142.37 73.00 C 141.46 71.27 140.45 69.60 139.59 67.85 C 137.62 67.80 135.66 67.77 133.69 67.74 C 133.73 68.29 133.80 69.39 133.83 69.94 C 133.52 69.89 132.90 69.79 132.59 69.74 C 130.56 68.00 128.39 66.44 125.95 65.34 C 125.95 65.15 125.95 64.76 125.96 64.56 C 126.00 63.02 126.05 61.47 126.12 59.93 Z" />
</g>
<g id="#004e67ff">
<path fill="#004e67" opacity="1.00" d=" M 156.84 59.85 C 158.94 61.61 160.98 63.42 163.03 65.24 C 163.03 65.72 163.03 66.68 163.03 67.15 C 163.03 70.10 162.98 73.04 162.87 75.98 C 162.85 76.73 162.80 78.24 162.78 78.99 C 162.39 78.62 161.63 77.89 161.24 77.52 C 160.67 73.88 161.16 70.12 161.01 66.43 C 160.57 65.99 159.69 65.10 159.25 64.66 C 158.37 63.10 157.32 61.60 156.84 59.85 Z" />
</g>
<g id="#7a7a7aff">
<path fill="#7a7a7a" opacity="1.00" d=" M 192.90 59.95 L 193.30 60.05 C 197.80 61.07 202.41 61.51 207.00 62.00 C 207.00 62.78 206.99 64.34 206.99 65.12 C 206.97 67.27 206.95 69.42 206.95 71.57 C 206.95 72.12 206.95 73.22 206.95 73.76 C 203.98 73.54 201.02 73.31 198.06 73.07 C 198.07 70.94 198.04 68.80 198.02 66.67 C 196.75 67.10 195.48 67.54 194.22 67.99 C 191.70 68.05 189.19 67.93 186.69 67.80 C 188.89 65.29 191.01 62.70 192.90 59.95 Z" />
</g>
<g id="#8b8b8bff">
<path fill="#8b8b8b" opacity="1.00" d=" M 228.00 60.05 C 231.00 60.11 234.00 60.04 237.00 60.00 L 237.00 61.20 C 237.00 62.73 237.00 64.26 237.01 65.80 C 234.01 65.41 231.00 65.07 228.00 64.77 C 228.00 63.19 228.00 61.62 228.00 60.05 Z" />
<path fill="#8b8b8b" opacity="1.00" d=" M 163.19 85.95 C 165.97 86.75 168.76 87.54 171.59 88.19 C 171.73 88.72 172.00 89.78 172.13 90.31 C 172.50 91.89 172.85 93.48 173.18 95.08 C 170.01 94.08 166.83 93.12 163.73 91.95 C 163.83 91.48 164.05 90.55 164.16 90.09 C 163.91 88.69 163.60 87.31 163.19 85.95 Z" />
</g>
<g id="#00768aff">
<path fill="#00768a" opacity="1.00" d=" M 237.00 61.20 C 240.34 61.10 243.68 60.85 247.00 60.39 C 246.99 62.14 246.97 63.89 246.95 65.65 C 245.64 65.87 244.33 66.11 243.02 66.38 C 240.99 66.94 239.00 67.69 237.01 68.39 C 237.01 67.75 237.01 66.45 237.01 65.80 C 237.00 64.26 237.00 62.73 237.00 61.20 Z" />
</g>
<g id="#8c8c8cff">
<path fill="#8c8c8c" opacity="1.00" d=" M 286.15 60.45 C 289.10 60.61 292.06 60.45 295.00 60.19 C 294.99 62.07 294.99 63.95 295.00 65.83 C 291.98 66.24 288.97 66.67 285.96 67.12 C 286.01 64.90 286.07 62.68 286.15 60.45 Z" />
</g>
<g id="#6d6d6dff">
<path fill="#6d6d6d" opacity="1.00" d=" M 163.00 61.98 C 169.44 64.39 176.26 65.53 182.96 66.98 C 183.66 67.83 184.35 68.67 185.05 69.52 C 185.46 69.09 186.28 68.23 186.69 67.80 C 189.19 67.93 191.70 68.05 194.22 67.99 C 193.08 69.37 192.05 70.83 191.00 72.28 C 186.84 71.79 182.67 71.41 178.49 71.13 C 176.96 69.30 175.10 67.80 173.20 66.38 C 173.16 67.26 173.09 69.02 173.05 69.90 C 169.70 69.01 166.36 68.10 163.03 67.15 C 163.03 66.68 163.03 65.72 163.03 65.24 C 163.02 64.42 163.01 62.80 163.00 61.98 Z" />
<path fill="#6d6d6d" opacity="1.00" d=" M 227.96 70.96 C 230.98 70.92 234.00 70.90 237.03 70.88 C 237.04 72.35 237.04 73.82 237.04 75.30 L 237.03 75.99 C 233.99 75.97 230.96 75.95 227.93 75.94 C 227.90 74.28 227.93 72.62 227.96 70.96 Z" />
<path fill="#6d6d6d" opacity="1.00" d=" M 402.17 91.04 C 405.62 92.33 409.04 93.68 412.42 95.12 C 410.95 96.73 409.30 98.17 407.47 99.34 C 404.65 97.87 401.81 96.48 398.92 95.19 C 399.83 94.52 400.72 93.82 401.59 93.08 C 401.74 92.57 402.03 91.55 402.17 91.04 Z" />
</g>
<g id="#00687aff">
<path fill="#00687a" opacity="1.00" d=" M 206.99 65.12 C 210.55 65.02 214.07 64.25 217.00 62.14 C 217.00 63.40 217.00 64.67 217.00 65.93 C 215.68 65.96 214.36 66.00 213.05 66.03 C 213.05 66.86 213.04 68.53 213.04 69.36 C 211.14 70.43 209.06 71.09 206.95 71.57 C 206.95 69.42 206.97 67.27 206.99 65.12 Z" />
</g>
<g id="#858585ff">
<path fill="#858585" opacity="1.00" d=" M 254.99 61.63 C 257.96 62.25 260.97 62.65 263.97 63.09 C 263.98 64.93 264.01 66.78 264.03 68.63 C 261.00 68.36 257.97 68.13 254.94 67.93 L 254.95 67.35 C 254.97 65.45 255.01 63.54 254.99 61.63 Z" />
<path fill="#858585" opacity="1.00" d=" M 310.49 86.05 C 311.95 86.07 313.41 86.08 314.88 86.09 C 314.91 88.90 314.97 91.72 315.00 94.54 C 315.01 96.43 315.01 98.32 315.02 100.22 C 313.31 99.11 311.63 97.92 309.78 97.06 C 307.07 97.65 304.79 99.46 302.06 100.02 C 298.11 100.61 294.45 98.68 290.98 97.07 C 288.46 99.06 285.47 100.28 282.22 100.26 C 281.87 99.62 281.16 98.34 280.81 97.70 C 280.57 97.28 280.10 96.43 279.87 96.01 C 281.13 95.99 282.40 95.97 283.67 95.95 C 284.44 95.10 285.22 94.25 286.00 93.40 C 289.48 93.24 292.96 92.91 296.40 92.37 C 299.24 93.57 302.23 95.79 305.43 94.50 C 309.12 93.75 312.00 89.74 310.49 86.05 Z" />
</g>
<g id="#004c60ff">
<path fill="#004c60" opacity="1.00" d=" M 368.71 61.55 C 369.40 62.49 370.08 63.45 370.74 64.43 C 370.84 65.87 370.82 67.39 371.71 68.63 C 371.94 72.43 371.67 76.23 371.85 80.03 C 371.65 81.60 373.10 82.48 373.97 83.53 L 373.97 83.70 C 373.93 85.30 373.90 86.90 373.87 88.50 C 372.59 89.01 371.31 89.52 370.04 90.04 C 370.01 91.70 370.01 93.36 369.95 95.03 C 368.90 92.19 366.53 90.26 364.14 88.56 C 364.34 87.19 364.64 85.84 364.95 84.49 C 366.80 83.55 368.81 82.61 369.59 80.52 C 366.87 81.47 364.47 83.08 362.29 84.94 C 361.42 84.04 360.56 83.15 359.70 82.25 C 358.78 83.14 357.86 84.03 356.94 84.92 C 355.26 82.82 353.03 81.30 350.37 80.79 C 351.80 82.45 353.37 83.98 355.00 85.46 C 354.99 86.03 354.97 87.16 354.96 87.73 C 354.51 88.17 353.59 89.05 353.13 89.49 C 351.74 88.21 350.38 86.91 349.00 85.63 L 349.00 85.37 C 348.99 83.60 349.00 81.83 349.00 80.06 C 349.75 80.03 351.25 79.97 352.01 79.94 C 352.00 77.59 351.98 75.24 351.98 72.90 C 352.49 73.18 353.51 73.75 354.02 74.04 L 354.01 74.75 C 354.00 76.42 354.01 78.10 354.01 79.78 C 355.06 80.39 356.13 81.01 357.20 81.62 C 358.76 79.12 361.08 80.50 362.90 81.76 C 363.20 81.35 363.80 80.53 364.09 80.12 C 365.85 79.85 367.60 79.58 369.36 79.32 C 369.92 74.76 370.06 70.15 369.26 65.62 C 369.09 64.25 368.91 62.90 368.71 61.55 Z" />
</g>
<g id="#7b7b7bff">
<path fill="#7b7b7b" opacity="1.00" d=" M 328.19 63.85 C 331.41 64.21 334.64 64.54 337.88 64.79 C 337.90 66.69 337.98 68.59 338.03 70.50 C 338.04 71.09 338.04 72.27 338.05 72.86 C 334.69 72.82 331.34 72.79 327.98 72.79 C 327.92 69.81 327.90 66.83 328.19 63.85 Z" />
</g>
<g id="#949494ff">
<path fill="#949494" opacity="1.00" d=" M 380.87 64.05 C 385.97 66.31 391.08 68.59 396.45 70.17 C 401.19 72.00 405.64 74.46 409.76 77.41 C 410.27 78.48 410.79 79.54 411.29 80.62 C 410.82 80.95 409.87 81.60 409.40 81.92 C 408.64 81.20 407.88 80.49 407.13 79.77 C 406.61 80.07 405.58 80.67 405.06 80.97 C 402.28 80.30 399.44 79.90 396.60 79.65 C 391.72 76.54 385.87 74.46 382.34 69.65 C 381.08 68.05 381.00 65.97 380.87 64.05 Z" />
</g>
<g id="#7c7c7cff">
<path fill="#7c7c7c" opacity="1.00" d=" M 228.00 64.77 C 231.00 65.07 234.01 65.41 237.01 65.80 C 237.01 66.45 237.01 67.75 237.01 68.39 C 237.02 69.02 237.02 70.26 237.03 70.88 C 234.00 70.90 230.98 70.92 227.96 70.96 L 227.97 70.16 C 227.99 68.36 227.99 66.56 228.00 64.77 Z" />
<path fill="#7c7c7c" opacity="1.00" d=" M 285.96 67.12 C 288.97 66.67 291.98 66.24 295.00 65.83 C 295.00 67.63 295.01 69.42 295.02 71.21 L 295.02 72.21 C 291.99 72.23 288.96 72.22 285.94 72.21 C 285.93 70.92 285.93 69.63 285.94 68.34 L 285.96 67.12 Z" />
</g>
<g id="#00697dff">
<path fill="#00697d" opacity="1.00" d=" M 125.95 65.34 C 128.39 66.44 130.56 68.00 132.59 69.74 C 132.90 69.79 133.52 69.89 133.83 69.94 C 134.52 69.98 135.89 70.07 136.58 70.11 C 138.04 71.55 139.50 73.00 140.97 74.42 L 140.97 74.69 C 140.98 77.46 141.00 80.23 141.02 83.00 L 140.61 82.97 C 139.19 80.65 137.85 78.03 135.12 77.03 C 135.05 75.37 134.99 73.70 134.94 72.03 C 131.96 72.01 128.98 71.99 126.00 71.97 C 125.96 69.76 125.93 67.55 125.95 65.34 Z" />
</g>
<g id="#006276ff">
<path fill="#006276" opacity="1.00" d=" M 237.01 68.39 C 239.00 67.69 240.99 66.94 243.02 66.38 C 243.03 68.01 243.04 69.64 243.05 71.28 C 241.21 72.85 239.17 74.16 237.04 75.30 C 237.04 73.82 237.04 72.35 237.03 70.88 C 237.02 70.26 237.02 69.02 237.01 68.39 Z" />
</g>
<g id="#005166ff">
<path fill="#005166" opacity="1.00" d=" M 253.00 66.16 C 253.49 66.46 254.46 67.06 254.95 67.35 L 254.94 67.93 C 254.93 69.88 254.94 71.84 254.97 73.79 C 255.00 76.11 255.06 78.43 255.12 80.75 C 255.44 81.03 256.09 81.61 256.42 81.90 C 257.28 81.21 258.15 80.53 259.03 79.85 C 260.66 80.29 262.29 80.72 263.93 81.16 C 263.97 78.98 264.02 76.80 264.05 74.63 C 264.05 73.49 264.05 72.35 264.05 71.22 C 266.03 70.62 268.01 70.02 269.99 69.39 C 270.02 72.83 269.99 76.27 269.96 79.71 C 270.47 80.17 271.48 81.09 271.99 81.55 C 272.64 82.16 273.30 82.76 273.97 83.36 L 273.97 83.72 C 273.97 85.49 273.98 87.27 273.99 89.04 C 273.22 88.99 271.70 88.88 270.93 88.83 C 270.83 88.21 270.62 86.98 270.51 86.37 C 268.62 85.79 266.72 85.22 264.82 84.65 C 266.06 83.42 267.34 82.22 268.58 80.99 C 266.23 81.93 264.03 83.22 262.07 84.82 C 261.25 83.91 260.44 83.01 259.63 82.10 C 258.61 83.02 257.60 83.94 256.59 84.85 C 254.47 83.07 252.13 81.53 249.46 80.69 C 250.44 82.14 251.81 83.23 253.26 84.19 C 252.00 84.82 250.74 85.46 249.49 86.10 L 248.70 85.34 C 248.52 85.16 248.17 84.79 248.00 84.61 C 248.01 83.08 248.01 81.56 248.02 80.03 C 249.68 80.03 251.35 80.02 253.02 80.02 C 253.00 75.40 252.99 70.78 253.00 66.16 Z" />
</g>
<g id="#00637aff">
<path fill="#00637a" opacity="1.00" d=" M 352.30 65.32 C 352.75 65.47 353.65 65.75 354.11 65.90 C 354.08 68.61 354.02 71.32 354.02 74.04 C 353.51 73.75 352.49 73.18 351.98 72.90 C 351.96 70.37 352.04 67.84 352.30 65.32 Z" />
</g>
<g id="#797979ff">
<path fill="#797979" opacity="1.00" d=" M 354.11 65.90 C 357.59 65.76 360.97 66.68 364.09 68.16 C 363.97 71.11 363.93 74.06 364.01 77.01 C 360.68 76.23 357.35 75.47 354.01 74.75 L 354.02 74.04 C 354.02 71.32 354.08 68.61 354.11 65.90 Z" />
</g>
<g id="#006478ff">
<path fill="#006478" opacity="1.00" d=" M 369.26 65.62 C 370.06 70.15 369.92 74.76 369.36 79.32 C 367.60 79.58 365.85 79.85 364.09 80.12 C 364.07 79.34 364.03 77.79 364.01 77.01 C 363.93 74.06 363.97 71.11 364.09 68.16 C 365.50 67.98 366.91 67.81 368.32 67.56 C 368.55 67.07 369.02 66.10 369.26 65.62 Z" />
</g>
<g id="#ffffffff">
<path fill="#ffffff" opacity="1.00" d=" M 452.21 66.19 C 456.67 64.09 462.32 68.12 461.98 72.99 C 462.15 77.43 457.33 81.29 453.07 79.86 C 449.14 78.89 446.25 74.04 448.15 70.24 C 448.93 68.45 450.40 66.96 452.21 66.19 M 449.24 71.36 C 447.66 73.66 450.24 75.55 451.97 76.62 C 453.28 75.66 455.44 74.95 455.35 72.95 C 455.54 69.71 450.69 68.38 449.24 71.36 Z" />
<path fill="#ffffff" opacity="1.00" d=" M 473.39 66.38 C 478.25 63.58 484.73 68.57 483.69 73.95 C 483.05 79.00 476.42 82.14 472.36 78.76 C 467.81 75.87 468.46 68.49 473.39 66.38 M 472.19 70.13 C 470.13 70.95 470.78 73.46 470.87 75.15 C 472.66 76.02 475.30 76.71 476.45 74.49 C 478.48 72.07 474.70 68.27 472.19 70.13 Z" />
</g>
<g id="#00748cff">
<path fill="#00748c" opacity="1.00" d=" M 115.03 67.87 C 115.53 67.65 116.53 67.21 117.04 66.99 C 117.02 68.67 117.00 70.36 116.99 72.05 C 116.98 73.58 116.96 75.10 116.96 76.63 C 116.52 77.08 115.65 77.96 115.22 78.41 C 114.87 74.90 115.01 71.38 115.03 67.87 Z" />
</g>
<g id="#5f5f5fff">
<path fill="#5f5f5f" opacity="1.00" d=" M 163.03 67.15 C 166.36 68.10 169.70 69.01 173.05 69.90 C 172.99 72.66 173.05 75.42 172.95 78.18 C 169.58 77.49 166.22 76.76 162.87 75.98 C 162.98 73.04 163.03 70.10 163.03 67.15 Z" />
<path fill="#5f5f5f" opacity="1.00" d=" M 178.49 71.13 C 182.67 71.41 186.84 71.79 191.00 72.28 C 189.14 74.88 187.03 77.29 184.69 79.47 C 182.65 76.67 180.61 73.87 178.49 71.13 Z" />
<path fill="#5f5f5f" opacity="1.00" d=" M 227.93 75.94 C 230.96 75.95 233.99 75.97 237.03 75.99 C 236.99 77.57 236.94 79.14 236.90 80.71 C 236.08 81.10 235.27 81.49 234.46 81.88 C 234.08 81.28 233.33 80.08 232.96 79.47 C 231.54 80.37 230.12 81.26 228.70 82.15 C 228.36 80.09 228.06 78.02 227.93 75.94 Z" />
<path fill="#5f5f5f" opacity="1.00" d=" M 381.00 85.99 C 382.52 85.99 384.05 86.00 385.58 86.01 C 385.89 92.55 392.77 96.98 398.92 95.19 C 401.81 96.48 404.65 97.87 407.47 99.34 C 406.20 99.92 404.92 100.46 403.62 100.96 C 400.02 101.02 396.23 100.93 393.06 98.97 C 390.75 98.01 388.64 95.58 385.95 96.39 C 385.14 97.22 384.35 98.07 383.58 98.92 C 382.93 98.96 381.64 99.03 381.00 99.06 C 380.98 94.70 380.98 90.35 381.00 85.99 Z" />
</g>
<g id="#005062ff">
<path fill="#005062" opacity="1.00" d=" M 173.20 66.38 C 175.10 67.80 176.96 69.30 178.49 71.13 C 180.61 73.87 182.65 76.67 184.69 79.47 C 187.03 77.29 189.14 74.88 191.00 72.28 C 192.05 70.83 193.08 69.37 194.22 67.99 C 195.48 67.54 196.75 67.10 198.02 66.67 C 198.04 68.80 198.07 70.94 198.06 73.07 C 198.05 75.65 198.01 78.22 197.99 80.80 C 198.37 81.09 199.14 81.69 199.53 81.99 C 200.33 81.26 201.14 80.53 201.95 79.80 C 202.77 80.47 203.59 81.14 204.41 81.82 C 205.27 81.46 206.13 81.10 207.00 80.75 C 206.98 78.42 206.95 76.09 206.95 73.76 C 206.95 73.22 206.95 72.12 206.95 71.57 C 209.06 71.09 211.14 70.43 213.04 69.36 C 213.41 73.38 211.39 78.52 214.97 81.55 C 215.62 82.24 216.31 82.91 216.92 83.65 C 217.01 85.49 217.04 87.33 217.04 89.17 C 216.65 88.97 215.86 88.57 215.46 88.37 C 213.70 86.29 211.49 84.69 208.96 83.65 C 209.90 82.74 210.76 81.77 211.62 80.78 C 209.01 81.35 206.69 82.68 205.17 84.90 C 204.20 83.99 203.23 83.08 202.28 82.16 C 201.43 83.07 200.57 83.98 199.72 84.89 C 197.95 83.45 196.12 82.06 194.03 81.11 C 193.57 81.35 192.65 81.83 192.19 82.07 C 191.26 82.56 190.33 83.05 189.40 83.54 C 189.69 83.79 190.27 84.30 190.57 84.55 C 190.18 85.06 189.42 86.07 189.04 86.58 C 187.10 84.63 185.12 82.70 183.32 80.62 C 182.42 79.13 181.33 77.77 180.20 76.44 C 179.40 75.49 178.61 74.53 177.80 73.58 C 177.97 76.10 177.60 78.97 179.59 80.91 C 179.79 81.21 180.19 81.81 180.39 82.10 C 179.40 81.91 178.42 81.71 177.44 81.49 C 176.73 81.32 175.31 80.97 174.60 80.79 C 174.11 80.56 173.12 80.09 172.63 79.86 C 172.71 79.44 172.87 78.60 172.95 78.18 C 173.05 75.42 172.99 72.66 173.05 69.90 C 173.09 69.02 173.16 67.26 173.20 66.38 Z" />
</g>
<g id="#005266ff">
<path fill="#005266" opacity="1.00" d=" M 284.01 66.44 C 284.49 66.92 285.46 67.87 285.94 68.34 C 285.93 69.63 285.93 70.92 285.94 72.21 C 285.97 75.07 286.06 77.94 286.14 80.81 C 286.43 81.00 287.00 81.40 287.29 81.59 C 289.52 79.63 292.30 80.28 294.89 80.96 C 294.93 78.04 294.99 75.13 295.02 72.21 L 295.02 71.21 C 297.02 70.20 299.05 69.22 300.98 68.08 C 301.55 72.51 299.21 78.21 302.96 81.61 C 303.60 82.23 304.27 82.83 304.95 83.42 L 304.96 83.69 C 304.97 84.53 305.01 86.21 305.03 87.05 C 302.79 85.00 299.86 84.16 296.95 83.64 C 297.81 82.76 298.70 81.91 299.58 81.04 C 297.13 81.66 294.73 82.61 293.23 84.76 C 292.28 83.85 291.34 82.95 290.40 82.05 C 289.52 82.99 288.63 83.93 287.75 84.88 C 285.55 83.09 283.14 81.53 280.41 80.67 C 281.43 82.38 283.05 83.53 284.72 84.53 C 285.21 85.55 285.69 86.58 286.17 87.61 C 285.65 87.92 284.61 88.54 284.09 88.85 L 283.57 89.16 C 282.39 87.94 281.21 86.73 280.01 85.52 C 280.02 83.69 280.03 81.85 280.04 80.02 C 281.36 80.02 282.68 80.02 284.01 80.02 C 284.00 75.49 283.99 70.97 284.01 66.44 Z" />
</g>
<g id="#757575ff">
<path fill="#757575" opacity="1.00" d=" M 254.94 67.93 C 257.97 68.13 261.00 68.36 264.03 68.63 C 264.04 69.28 264.05 70.57 264.05 71.22 C 264.05 72.35 264.05 73.49 264.05 74.63 C 261.03 74.24 258.00 73.97 254.97 73.79 C 254.94 71.84 254.93 69.88 254.94 67.93 Z" />
<path fill="#757575" opacity="1.00" d=" M 286.17 87.61 C 288.95 87.40 291.73 87.16 294.52 86.88 C 295.08 88.73 295.75 90.54 296.40 92.37 C 292.96 92.91 289.48 93.24 286.00 93.40 C 286.05 91.47 286.10 89.54 286.17 87.61 Z" />
<path fill="#757575" opacity="1.00" d=" M 328.38 86.93 C 331.10 87.09 333.84 87.16 336.57 87.05 C 336.80 87.62 337.27 88.77 337.50 89.34 C 337.68 90.02 338.03 91.36 338.20 92.03 C 334.92 92.03 331.64 92.17 328.36 92.16 L 327.61 91.73 C 327.93 90.14 328.14 88.53 328.38 86.93 Z" />
</g>
<g id="#00839aff">
<path fill="#00839a" opacity="1.00" d=" M 394.59 68.26 C 395.33 68.37 396.81 68.59 397.55 68.70 C 398.01 68.78 398.93 68.94 399.39 69.03 C 399.95 69.34 401.06 69.97 401.62 70.28 C 402.12 70.54 403.12 71.06 403.62 71.32 C 404.55 71.76 405.49 72.19 406.44 72.61 C 407.84 73.52 409.13 74.59 410.43 75.64 C 412.09 76.47 413.22 77.96 414.40 79.34 C 414.49 79.40 414.67 79.52 414.76 79.58 L 416.38 80.15 L 416.26 80.44 C 414.86 81.10 413.44 81.73 412.06 82.42 C 411.87 81.97 411.48 81.07 411.29 80.62 C 410.79 79.54 410.27 78.48 409.76 77.41 C 405.64 74.46 401.19 72.00 396.45 70.17 C 395.99 69.70 395.05 68.74 394.59 68.26 Z" />
</g>
<g id="#004f62ff">
<path fill="#004f62" opacity="1.00" d=" M 226.02 68.80 C 226.50 69.14 227.48 69.82 227.97 70.16 L 227.96 70.96 C 227.93 72.62 227.90 74.28 227.93 75.94 C 228.06 78.02 228.36 80.09 228.70 82.15 C 230.12 81.26 231.54 80.37 232.96 79.47 C 233.33 80.08 234.08 81.28 234.46 81.88 C 235.27 81.49 236.08 81.10 236.90 80.71 C 236.94 79.14 236.99 77.57 237.03 75.99 L 237.04 75.30 C 239.17 74.16 241.21 72.85 243.05 71.28 C 243.02 74.06 242.99 76.84 243.00 79.62 C 243.49 80.10 244.48 81.06 244.98 81.54 C 245.99 82.55 247.00 83.57 248.00 84.61 C 248.17 84.79 248.52 85.16 248.70 85.34 C 248.81 87.18 248.86 89.02 248.93 90.87 C 248.33 90.86 247.13 90.85 246.53 90.84 C 245.97 91.38 244.83 92.45 244.27 92.98 C 243.93 93.01 243.24 93.05 242.90 93.07 C 242.90 92.33 242.90 90.84 242.91 90.09 C 243.88 89.44 244.86 88.78 245.84 88.13 C 244.46 84.84 240.72 84.94 237.72 84.53 C 238.76 83.75 239.84 83.00 240.91 82.24 C 240.91 81.99 240.93 81.48 240.93 81.22 C 239.53 81.71 238.13 82.21 236.72 82.70 C 236.45 83.31 235.89 84.54 235.62 85.15 C 234.54 84.13 233.47 83.11 232.41 82.09 C 231.52 83.04 230.63 83.99 229.74 84.94 C 227.57 83.12 225.18 81.56 222.47 80.70 C 223.41 82.57 225.22 83.58 227.01 84.48 C 227.53 86.76 227.92 89.08 228.23 91.41 C 228.35 92.40 228.48 93.40 228.59 94.40 C 228.59 95.18 228.59 96.76 228.59 97.54 L 228.57 98.40 C 227.50 96.90 226.80 95.19 226.07 93.52 C 226.02 92.15 226.00 90.78 225.97 89.42 C 224.64 88.14 223.32 86.86 222.00 85.58 C 222.00 83.73 222.01 81.88 222.02 80.03 C 223.35 80.02 224.68 80.01 226.01 80.01 C 226.00 76.27 225.98 72.54 226.02 68.80 Z" />
</g>
<g id="#686868ff">
<path fill="#686868" opacity="1.00" d=" M 285.94 72.21 C 288.96 72.22 291.99 72.23 295.02 72.21 C 294.99 75.13 294.93 78.04 294.89 80.96 C 292.30 80.28 289.52 79.63 287.29 81.59 C 287.00 81.40 286.43 81.00 286.14 80.81 C 286.06 77.94 285.97 75.07 285.94 72.21 Z" />
<path fill="#686868" opacity="1.00" d=" M 280.41 80.67 C 283.14 81.53 285.55 83.09 287.75 84.88 C 288.63 83.93 289.52 82.99 290.40 82.05 C 291.34 82.95 292.28 83.85 293.23 84.76 C 294.73 82.61 297.13 81.66 299.58 81.04 C 298.70 81.91 297.81 82.76 296.95 83.64 C 296.07 84.67 295.26 85.75 294.52 86.88 C 291.73 87.16 288.95 87.40 286.17 87.61 C 285.69 86.58 285.21 85.55 284.72 84.53 C 283.05 83.53 281.43 82.38 280.41 80.67 Z" />
<path fill="#686868" opacity="1.00" d=" M 350.37 80.79 C 353.03 81.30 355.26 82.82 356.94 84.92 C 357.86 84.03 358.78 83.14 359.70 82.25 C 360.56 83.15 361.42 84.04 362.29 84.94 C 364.47 83.08 366.87 81.47 369.59 80.52 C 368.81 82.61 366.80 83.55 364.95 84.49 C 364.64 85.84 364.34 87.19 364.14 88.56 C 364.05 89.45 363.86 91.24 363.77 92.13 C 360.79 91.42 357.82 90.70 354.86 89.93 C 354.89 89.38 354.94 88.28 354.96 87.73 C 354.97 87.16 354.99 86.03 355.00 85.46 C 353.37 83.98 351.80 82.45 350.37 80.79 Z" />
</g>
<g id="#5d5d5dff">
<path fill="#5d5d5d" opacity="1.00" d=" M 198.06 73.07 C 201.02 73.31 203.98 73.54 206.95 73.76 C 206.95 76.09 206.98 78.42 207.00 80.75 C 206.13 81.10 205.27 81.46 204.41 81.82 C 203.59 81.14 202.77 80.47 201.95 79.80 C 201.14 80.53 200.33 81.26 199.53 81.99 C 199.14 81.69 198.37 81.09 197.99 80.80 C 198.01 78.22 198.05 75.65 198.06 73.07 Z" />
</g>
<g id="#656565ff">
<path fill="#656565" opacity="1.00" d=" M 327.98 72.79 C 331.34 72.79 334.69 72.82 338.05 72.86 C 338.02 75.14 337.95 77.41 337.89 79.69 C 337.19 80.34 336.49 80.99 335.80 81.64 C 333.87 80.42 331.72 79.02 330.21 81.62 C 329.50 81.30 328.79 80.98 328.10 80.67 C 328.07 78.04 328.03 75.42 327.98 72.79 Z" />
</g>
<g id="#636363ff">
<path fill="#636363" opacity="1.00" d=" M 254.97 73.79 C 258.00 73.97 261.03 74.24 264.05 74.63 C 264.02 76.80 263.97 78.98 263.93 81.16 C 262.29 80.72 260.66 80.29 259.03 79.85 C 258.15 80.53 257.28 81.21 256.42 81.90 C 256.09 81.61 255.44 81.03 255.12 80.75 C 255.06 78.43 255.00 76.11 254.97 73.79 Z" />
</g>
<g id="#666666ff">
<path fill="#666666" opacity="1.00" d=" M 354.01 74.75 C 357.35 75.47 360.68 76.23 364.01 77.01 C 364.03 77.79 364.07 79.34 364.09 80.12 C 363.80 80.53 363.20 81.35 362.90 81.76 C 361.08 80.50 358.76 79.12 357.20 81.62 C 356.13 81.01 355.06 80.39 354.01 79.78 C 354.01 78.10 354.00 76.42 354.01 74.75 Z" />
</g>
<g id="#6c6c6cff">
<path fill="#6c6c6c" opacity="1.00" d=" M 162.87 75.98 C 166.22 76.76 169.58 77.49 172.95 78.18 C 172.87 78.60 172.71 79.44 172.63 79.86 C 172.04 80.60 171.43 81.34 170.82 82.08 C 169.86 81.31 168.89 80.54 167.93 79.78 C 167.08 80.56 166.23 81.34 165.38 82.13 C 164.52 81.07 163.65 80.02 162.78 78.99 C 162.80 78.24 162.85 76.73 162.87 75.98 Z" />
</g>
<g id="#008fa6ff">
<path fill="#008fa6" opacity="1.00" d=" M 115.22 78.41 C 115.65 77.96 116.52 77.08 116.96 76.63 C 116.97 78.13 116.97 79.63 116.98 81.12 C 119.70 80.25 122.57 79.79 124.93 81.79 C 125.16 81.52 125.60 80.97 125.83 80.70 C 126.38 81.00 127.50 81.62 128.06 81.93 C 126.78 82.90 125.59 83.96 124.38 85.01 C 123.42 83.98 122.46 82.96 121.50 81.93 C 120.56 82.94 119.63 83.96 118.70 84.97 C 116.80 83.33 114.73 81.88 112.51 80.69 C 114.37 83.22 117.18 85.47 117.09 88.92 C 116.61 88.94 115.64 88.97 115.16 88.98 L 114.43 89.01 C 113.30 87.84 112.16 86.68 111.01 85.55 C 111.02 83.71 111.03 81.87 111.03 80.03 C 112.24 80.03 113.46 80.01 114.68 80.00 C 114.81 79.60 115.08 78.80 115.22 78.41 Z" />
</g>
<g id="#007f90ff">
<path fill="#007f90" opacity="1.00" d=" M 126.17 76.96 C 127.59 76.93 129.01 76.91 130.44 76.89 C 132.00 76.94 133.56 76.96 135.12 77.03 C 137.85 78.03 139.19 80.65 140.61 82.97 C 139.08 82.94 137.54 82.94 136.01 82.94 C 136.00 84.97 136.00 87.01 136.00 89.04 L 135.27 88.51 C 133.54 86.69 131.98 84.71 130.36 82.79 C 130.63 82.30 131.16 81.31 131.42 80.82 C 130.29 81.16 129.17 81.53 128.06 81.93 C 127.50 81.62 126.38 81.00 125.83 80.70 C 125.96 79.45 126.08 78.21 126.17 76.96 Z" />
</g>
<g id="#006e85ff">
<path fill="#006e85" opacity="1.00" d=" M 161.24 77.52 C 161.63 77.89 162.39 78.62 162.78 78.99 C 163.65 80.02 164.52 81.07 165.38 82.13 C 166.23 81.34 167.08 80.56 167.93 79.78 C 168.89 80.54 169.86 81.31 170.82 82.08 C 171.43 81.34 172.04 80.60 172.63 79.86 C 173.12 80.09 174.11 80.56 174.60 80.79 C 173.28 82.22 171.96 83.63 170.64 85.05 C 169.80 84.31 168.97 83.57 168.14 82.83 C 166.99 83.47 165.85 84.10 164.71 84.74 C 163.21 82.56 160.92 81.26 158.38 80.64 C 159.83 82.55 161.52 84.24 163.19 85.95 C 163.60 87.31 163.91 88.69 164.16 90.09 C 163.70 90.25 162.77 90.58 162.31 90.74 L 161.44 89.77 C 161.40 89.74 161.34 89.67 161.31 89.63 C 159.71 88.05 158.39 86.22 157.05 84.42 C 157.05 82.96 157.03 81.49 157.02 80.03 C 158.34 80.04 159.66 80.04 160.98 80.04 C 161.05 79.41 161.18 78.15 161.24 77.52 Z" />
</g>
<g id="#00758aff">
<path fill="#00758a" opacity="1.00" d=" M 416.38 80.15 C 416.92 80.11 418.02 80.03 418.57 79.99 C 419.01 80.59 419.89 81.78 420.33 82.38 C 420.43 82.47 420.62 82.64 420.72 82.73 L 420.80 83.64 C 420.91 85.33 420.97 87.03 421.03 88.73 C 420.52 89.14 419.51 89.97 419.01 90.38 C 417.38 91.24 415.55 91.50 413.75 91.66 C 413.96 89.33 414.06 87.00 414.20 84.67 C 414.53 84.12 415.18 83.02 415.50 82.47 C 415.69 81.96 416.07 80.94 416.26 80.44 L 416.38 80.15 Z" />
</g>
<g id="#a8a8a8ff">
<path fill="#a8a8a8" opacity="1.00" d=" M 112.51 80.69 C 114.73 81.88 116.80 83.33 118.70 84.97 C 119.63 83.96 120.56 82.94 121.50 81.93 C 122.46 82.96 123.42 83.98 124.38 85.01 C 125.59 83.96 126.78 82.90 128.06 81.93 C 129.17 81.53 130.29 81.16 131.42 80.82 C 131.16 81.31 130.63 82.30 130.36 82.79 C 129.26 83.31 128.15 83.81 127.03 84.29 C 125.41 87.23 126.27 90.34 127.95 93.02 C 124.33 92.36 120.67 91.87 117.07 91.07 C 117.08 90.53 117.09 89.46 117.09 88.92 C 117.18 85.47 114.37 83.22 112.51 80.69 Z" />
</g>
<g id="#7e7e7eff">
<path fill="#7e7e7e" opacity="1.00" d=" M 158.38 80.64 C 160.92 81.26 163.21 82.56 164.71 84.74 C 165.85 84.10 166.99 83.47 168.14 82.83 C 168.97 83.57 169.80 84.31 170.64 85.05 C 171.96 83.63 173.28 82.22 174.60 80.79 C 175.31 80.97 176.73 81.32 177.44 81.49 C 175.12 83.38 173.08 85.59 171.59 88.19 C 168.76 87.54 165.97 86.75 163.19 85.95 C 161.52 84.24 159.83 82.55 158.38 80.64 Z" />
</g>
<g id="#00697cff">
<path fill="#00697c" opacity="1.00" d=" M 177.44 81.49 C 178.42 81.71 179.40 81.91 180.39 82.10 L 181.51 82.34 C 181.57 82.35 181.69 82.38 181.75 82.39 L 181.80 83.60 C 181.86 85.14 181.89 86.68 181.92 88.23 C 180.12 89.46 178.60 91.03 177.44 92.88 C 175.72 91.92 173.92 91.12 172.13 90.31 C 172.00 89.78 171.73 88.72 171.59 88.19 C 173.08 85.59 175.12 83.38 177.44 81.49 Z" />
</g>
<g id="#737373ff">
<path fill="#737373" opacity="1.00" d=" M 194.03 81.11 C 196.12 82.06 197.95 83.45 199.72 84.89 C 200.57 83.98 201.43 83.07 202.28 82.16 C 203.23 83.08 204.20 83.99 205.17 84.90 C 206.69 82.68 209.01 81.35 211.62 80.78 C 210.76 81.77 209.90 82.74 208.96 83.65 C 208.49 84.08 207.53 84.92 207.05 85.34 C 207.04 86.08 207.01 87.57 207.00 88.31 C 203.98 87.97 200.97 87.57 197.96 87.14 C 197.59 86.17 197.20 85.21 196.79 84.26 C 195.25 83.54 193.72 82.81 192.19 82.07 C 192.65 81.83 193.57 81.35 194.03 81.11 Z" />
<path fill="#737373" opacity="1.00" d=" M 222.47 80.70 C 225.18 81.56 227.57 83.12 229.74 84.94 C 230.63 83.99 231.52 83.04 232.41 82.09 C 233.47 83.11 234.54 84.13 235.62 85.15 C 235.89 84.54 236.45 83.31 236.72 82.70 C 238.13 82.21 239.53 81.71 240.93 81.22 C 240.93 81.48 240.91 81.99 240.91 82.24 C 239.84 83.00 238.76 83.75 237.72 84.53 L 236.82 85.25 C 236.91 87.52 237.30 89.79 238.23 91.88 C 234.89 92.28 231.51 92.16 228.23 91.41 C 227.92 89.08 227.53 86.76 227.01 84.48 C 225.22 83.58 223.41 82.57 222.47 80.70 Z" />
</g>
<g id="#727272ff">
<path fill="#727272" opacity="1.00" d=" M 249.46 80.69 C 252.13 81.53 254.47 83.07 256.59 84.85 C 257.60 83.94 258.61 83.02 259.63 82.10 C 260.44 83.01 261.25 83.91 262.07 84.82 C 264.03 83.22 266.23 81.93 268.58 80.99 C 267.34 82.22 266.06 83.42 264.82 84.65 L 264.18 85.35 C 264.04 87.13 264.03 88.91 263.93 90.69 C 263.80 91.15 263.54 92.07 263.41 92.54 C 260.21 92.30 257.01 92.05 253.81 91.75 C 254.98 89.51 255.48 86.85 253.91 84.65 L 253.26 84.19 C 251.81 83.23 250.44 82.14 249.46 80.69 Z" />
</g>
<g id="#696969ff">
<path fill="#696969" opacity="1.00" d=" M 323.45 81.01 C 325.91 81.65 328.29 82.68 329.82 84.81 C 330.73 83.87 331.65 82.94 332.57 82.00 C 333.46 82.97 334.36 83.93 335.27 84.90 C 337.44 83.08 339.83 81.50 342.55 80.65 C 340.69 82.90 338.46 84.82 336.57 87.05 C 333.84 87.16 331.10 87.09 328.38 86.93 C 327.14 84.64 325.23 82.85 323.45 81.01 Z" />
</g>
<g id="#00677aff">
<path fill="#00677a" opacity="1.00" d=" M 391.90 81.82 C 392.95 81.89 394.00 81.92 395.07 81.90 C 394.74 82.49 394.09 83.67 393.77 84.25 C 396.09 84.18 398.42 83.98 400.74 84.22 C 402.76 85.83 401.92 88.79 402.17 91.04 C 402.03 91.55 401.74 92.57 401.59 93.08 C 401.21 92.83 400.45 92.33 400.07 92.08 C 397.69 90.11 395.09 88.20 393.67 85.37 C 393.27 84.92 392.45 84.02 392.05 83.57 C 392.01 83.13 391.94 82.26 391.90 81.82 Z" />
</g>
<g id="#7f7f7fff">
<path fill="#7f7f7f" opacity="1.00" d=" M 395.07 81.90 C 396.69 81.60 398.29 81.16 399.95 81.02 C 401.82 81.71 403.42 82.95 405.08 84.03 C 405.58 83.71 406.57 83.06 407.07 82.74 C 407.90 83.48 408.75 84.23 409.59 84.97 C 410.41 84.12 411.23 83.26 412.06 82.42 C 413.44 81.73 414.86 81.10 416.26 80.44 C 416.07 80.94 415.69 81.96 415.50 82.47 C 415.18 83.02 414.53 84.12 414.20 84.67 C 414.06 87.00 413.96 89.33 413.75 91.66 C 413.34 92.83 412.90 93.98 412.42 95.12 C 409.04 93.68 405.62 92.33 402.17 91.04 C 401.92 88.79 402.76 85.83 400.74 84.22 C 398.42 83.98 396.09 84.18 393.77 84.25 C 394.09 83.67 394.74 82.49 395.07 81.90 Z" />
</g>
<g id="#0093a4ff">
<path fill="#0093a4" opacity="1.00" d=" M 127.03 84.29 C 128.15 83.81 129.26 83.31 130.36 82.79 C 131.98 84.71 133.54 86.69 135.27 88.51 C 134.04 89.00 132.88 89.63 131.80 90.39 C 132.18 91.40 132.78 92.30 133.37 93.19 C 133.92 93.13 135.00 93.00 135.54 92.93 C 137.26 91.93 138.88 90.75 140.39 89.44 C 140.81 88.99 141.65 88.08 142.07 87.63 C 141.98 88.36 141.82 89.82 141.74 90.55 C 141.45 90.89 140.89 91.57 140.61 91.92 C 140.00 92.60 139.39 93.29 138.78 93.97 C 135.12 95.42 131.48 94.16 127.95 93.02 C 126.27 90.34 125.41 87.23 127.03 84.29 Z" />
</g>
<g id="#006173ff">
<path fill="#006173" opacity="1.00" d=" M 189.40 83.54 C 190.33 83.05 191.26 82.56 192.19 82.07 C 193.72 82.81 195.25 83.54 196.79 84.26 C 197.20 85.21 197.59 86.17 197.96 87.14 C 198.05 89.03 198.03 90.93 197.94 92.83 C 196.78 94.37 195.37 95.70 193.90 96.94 C 193.41 96.69 192.44 96.18 191.95 95.93 C 191.89 96.38 191.79 97.30 191.73 97.76 C 191.63 98.51 191.43 100.03 191.33 100.79 L 191.27 101.22 C 190.60 99.26 190.12 97.18 188.88 95.47 C 190.25 93.13 192.93 95.18 194.87 93.89 C 195.32 92.43 195.76 90.96 196.21 89.50 C 195.15 88.54 194.09 87.57 193.02 86.62 C 192.21 85.91 191.39 85.23 190.57 84.55 C 190.27 84.30 189.69 83.79 189.40 83.54 Z" />
</g>
<g id="#007c94ff">
<path fill="#007c94" opacity="1.00" d=" M 138.81 84.31 C 140.20 84.14 141.59 84.06 142.99 84.00 C 144.50 83.97 146.01 83.98 147.52 84.01 C 148.65 85.17 149.82 86.31 150.99 87.44 L 150.99 87.69 C 150.99 90.47 150.95 93.26 150.94 96.04 C 149.78 93.56 147.94 91.51 146.02 89.60 C 146.01 88.41 145.99 87.23 145.97 86.04 C 144.73 86.03 143.49 86.02 142.26 86.01 C 142.21 86.42 142.11 87.23 142.07 87.63 C 141.65 88.08 140.81 88.99 140.39 89.44 C 139.91 87.71 139.38 86.00 138.81 84.31 Z" />
</g>
<g id="#006477ff">
<path fill="#006477" opacity="1.00" d=" M 207.05 85.34 C 207.53 84.92 208.49 84.08 208.96 83.65 C 211.49 84.69 213.70 86.29 215.46 88.37 C 214.16 89.53 213.02 90.85 212.06 92.30 C 210.39 91.65 208.68 91.08 206.99 90.50 C 206.99 89.95 207.00 88.86 207.00 88.31 C 207.01 87.57 207.04 86.08 207.05 85.34 Z" />
</g>
<g id="#006072ff">
<path fill="#006072" opacity="1.00" d=" M 253.26 84.19 L 253.91 84.65 C 255.48 86.85 254.98 89.51 253.81 91.75 C 252.82 92.78 251.79 93.76 250.77 94.75 C 249.17 95.06 247.58 95.38 246.00 95.71 C 244.41 95.38 242.83 95.06 241.25 94.75 C 240.24 93.80 239.21 92.85 238.23 91.88 C 237.30 89.79 236.91 87.52 236.82 85.25 L 237.72 84.53 C 240.72 84.94 244.46 84.84 245.84 88.13 C 244.86 88.78 243.88 89.44 242.91 90.09 C 242.90 90.84 242.90 92.33 242.90 93.07 C 243.24 93.05 243.93 93.01 244.27 92.98 C 246.02 92.96 247.78 92.98 249.54 92.99 C 250.36 92.17 251.18 91.35 252.00 90.53 C 252.00 90.01 252.00 88.96 252.00 88.43 C 251.16 87.66 250.32 86.88 249.49 86.10 C 250.74 85.46 252.00 84.82 253.26 84.19 Z" />
</g>
<g id="#005f70ff">
<path fill="#005f70" opacity="1.00" d=" M 294.52 86.88 C 295.26 85.75 296.07 84.67 296.95 83.64 C 299.86 84.16 302.79 85.00 305.03 87.05 C 305.04 87.38 305.07 88.06 305.09 88.39 C 303.54 89.11 301.62 89.43 300.68 91.02 C 301.39 91.73 302.13 92.42 302.93 93.03 L 303.33 92.88 C 304.15 92.60 305.79 92.03 306.61 91.74 C 307.42 91.02 308.24 90.30 309.07 89.58 C 309.00 89.08 308.87 88.09 308.80 87.59 C 308.36 86.44 308.01 85.26 307.74 84.06 C 310.71 84.03 313.67 84.03 316.63 84.00 C 317.05 84.52 317.88 85.58 318.30 86.11 C 317.45 86.11 315.74 86.09 314.88 86.09 C 313.41 86.08 311.95 86.07 310.49 86.05 C 312.00 89.74 309.12 93.75 305.43 94.50 C 302.23 95.79 299.24 93.57 296.40 92.37 C 295.75 90.54 295.08 88.73 294.52 86.88 Z" />
<path fill="#005f70" opacity="1.00" d=" M 264.18 85.35 L 264.82 84.65 C 266.72 85.22 268.62 85.79 270.51 86.37 C 270.62 86.98 270.83 88.21 270.93 88.83 C 270.37 90.99 269.88 93.18 269.44 95.37 C 268.31 93.08 266.10 91.81 263.93 90.69 C 264.03 88.91 264.04 87.13 264.18 85.35 Z" />
</g>
<g id="#000000f4">
<path fill="#000000" opacity="0.96" d=" M 304.96 83.69 C 305.47 84.10 306.50 84.92 307.02 85.33 C 307.01 87.21 307.00 89.09 307.00 90.98 C 306.31 91.00 304.94 91.03 304.26 91.05 L 303.33 92.88 L 302.93 93.03 C 302.13 92.42 301.39 91.73 300.68 91.02 C 301.62 89.43 303.54 89.11 305.09 88.39 C 305.07 88.06 305.04 87.38 305.03 87.05 C 305.01 86.21 304.97 84.53 304.96 83.69 Z" />
</g>
<g id="#00576dff">
<path fill="#00576d" opacity="1.00" d=" M 379.02 84.02 C 381.86 84.01 384.71 84.00 387.56 84.00 C 388.65 85.12 389.75 86.24 390.84 87.37 L 390.86 87.67 C 391.01 89.67 390.73 92.07 392.86 93.13 C 395.03 92.97 397.55 93.58 399.40 92.13 L 400.07 92.08 C 400.45 92.33 401.21 92.83 401.59 93.08 C 400.72 93.82 399.83 94.52 398.92 95.19 C 392.77 96.98 385.89 92.55 385.58 86.01 C 384.05 86.00 382.52 85.99 381.00 85.99 C 380.98 90.35 380.98 94.70 381.00 99.06 C 381.64 99.03 382.93 98.96 383.58 98.92 C 384.35 98.07 385.14 97.22 385.95 96.39 C 388.05 97.79 390.21 99.11 392.36 100.45 C 392.50 101.17 392.78 102.61 392.92 103.34 C 392.62 103.03 392.02 102.41 391.72 102.10 C 389.05 104.04 386.16 105.79 382.85 106.31 C 381.76 105.64 381.25 104.45 380.71 103.36 C 379.83 102.42 378.95 101.49 378.05 100.57 C 379.29 99.32 378.95 97.51 379.05 95.94 C 379.05 91.97 379.03 87.99 379.02 84.02 Z" />
</g>
<g id="#000102ff">
<path fill="#000102" opacity="1.00" d=" M 420.80 83.64 C 421.35 84.06 422.46 84.91 423.02 85.33 C 423.00 87.09 423.00 88.86 423.00 90.62 C 422.50 91.06 421.50 91.94 421.00 92.38 C 421.00 95.12 420.99 97.86 420.99 100.60 C 419.16 103.54 416.84 106.29 413.62 107.76 C 412.53 108.09 411.45 108.46 410.39 108.86 C 407.43 109.06 404.46 109.03 401.50 108.94 C 400.98 108.64 399.94 108.03 399.42 107.72 C 397.67 106.88 395.91 106.00 394.40 104.76 C 401.80 108.51 411.91 107.93 417.45 101.23 C 419.40 97.94 419.05 94.04 419.01 90.38 C 419.51 89.97 420.52 89.14 421.03 88.73 C 420.97 87.03 420.91 85.33 420.80 83.64 Z" />
</g>
<g id="#00000010">
<path fill="#000000" opacity="0.06" d=" M 138.07 85.21 L 138.81 84.31 C 139.38 86.00 139.91 87.71 140.39 89.44 C 138.88 90.75 137.26 91.93 135.54 92.93 C 135.00 93.00 133.92 93.13 133.37 93.19 C 133.87 92.64 134.85 91.55 135.35 91.00 C 136.00 91.00 137.30 90.99 137.95 90.99 C 137.97 89.06 137.96 87.14 138.07 85.21 Z" />
</g>
<g id="#9b9b9bff">
<path fill="#9b9b9b" opacity="1.00" d=" M 142.26 86.01 C 143.49 86.02 144.73 86.03 145.97 86.04 C 145.99 87.23 146.01 88.41 146.02 89.60 C 146.01 91.12 146.00 92.65 145.98 94.18 C 144.19 93.43 142.39 92.68 140.61 91.92 C 140.89 91.57 141.45 90.89 141.74 90.55 C 141.82 89.82 141.98 88.36 142.07 87.63 C 142.11 87.23 142.21 86.42 142.26 86.01 Z" />
</g>
<g id="#00677eff">
<path fill="#00677e" opacity="1.00" d=" M 314.88 86.09 C 315.74 86.09 317.45 86.11 318.30 86.11 C 319.09 86.37 319.62 86.89 319.90 87.67 C 320.04 91.39 320.01 95.11 320.01 98.83 C 318.35 97.38 316.69 95.95 315.00 94.54 C 314.97 91.72 314.91 88.90 314.88 86.09 Z" />
</g>
<g id="#000303ff">
<path fill="#000303" opacity="1.00" d=" M 150.99 87.69 C 151.49 88.11 152.51 88.94 153.01 89.36 C 153.00 94.10 152.97 98.83 153.04 103.57 C 153.78 104.66 154.52 105.75 155.26 106.84 C 153.82 107.79 152.16 108.06 150.47 108.08 C 149.51 107.39 148.55 106.71 147.58 106.03 C 146.54 106.03 145.49 106.03 144.45 106.03 C 143.49 106.67 142.53 107.31 141.57 107.95 C 138.19 107.83 134.60 108.65 131.40 107.27 C 130.93 107.16 129.97 106.93 129.49 106.82 C 129.01 106.58 128.06 106.11 127.58 105.87 C 126.58 106.57 125.59 107.27 124.59 107.97 C 122.52 107.99 120.45 108.00 118.38 108.01 C 117.31 107.20 116.25 106.37 115.21 105.52 C 118.11 106.15 121.22 106.38 123.96 105.01 C 127.24 103.25 130.52 106.45 133.96 106.07 C 138.06 106.73 141.60 104.10 145.61 104.10 C 147.75 105.89 150.43 106.44 153.04 105.33 C 151.36 102.50 150.73 99.31 150.94 96.04 C 150.95 93.26 150.99 90.47 150.99 87.69 Z" />
</g>
<g id="#00657eff">
<path fill="#00657e" opacity="1.00" d=" M 284.09 88.85 C 284.61 88.54 285.65 87.92 286.17 87.61 C 286.10 89.54 286.05 91.47 286.00 93.40 C 285.22 94.25 284.44 95.10 283.67 95.95 C 282.40 95.97 281.13 95.99 279.87 96.01 C 280.10 96.43 280.57 97.28 280.81 97.70 C 280.64 98.39 280.29 99.78 280.12 100.47 C 278.63 99.43 277.41 98.04 277.98 96.09 C 278.13 93.70 281.00 94.01 282.70 93.88 C 283.00 93.28 283.59 92.09 283.89 91.49 C 283.94 90.83 284.04 89.51 284.09 88.85 Z" />
</g>
<g id="#006678ff">
<path fill="#006678" opacity="1.00" d=" M 353.13 89.49 C 353.59 89.05 354.51 88.17 354.96 87.73 C 354.94 88.28 354.89 89.38 354.86 89.93 C 353.66 91.65 352.27 93.22 350.88 94.79 C 349.18 95.13 347.48 95.49 345.80 95.88 C 343.09 94.98 340.46 93.79 338.20 92.03 C 338.03 91.36 337.68 90.02 337.50 89.34 C 338.38 89.22 340.14 88.98 341.02 88.85 C 341.52 89.20 342.53 89.89 343.03 90.24 C 343.02 90.94 343.00 92.33 342.99 93.02 C 343.31 93.00 343.95 92.94 344.26 92.92 C 346.01 92.93 347.76 92.97 349.52 93.01 C 350.71 91.82 351.91 90.65 353.13 89.49 Z" />
</g>
<g id="#00a6baff">
<path fill="#00a6ba" opacity="1.00" d=" M 115.16 88.98 C 115.64 88.97 116.61 88.94 117.09 88.92 C 117.09 89.46 117.08 90.53 117.07 91.07 C 117.05 91.69 117.02 92.94 117.00 93.56 C 116.19 94.37 115.39 95.18 114.58 95.99 C 113.37 95.99 112.15 95.99 110.94 95.99 C 111.39 96.99 111.83 97.99 112.27 98.99 C 113.81 99.38 115.33 100.12 116.95 100.00 C 118.72 99.36 120.21 98.14 121.75 97.10 C 122.13 97.13 122.90 97.18 123.29 97.20 C 127.31 100.44 132.83 100.79 137.48 98.73 C 139.89 95.66 143.26 97.97 145.97 99.26 C 146.65 99.90 147.29 100.58 147.88 101.31 C 147.72 102.62 146.41 103.23 145.61 104.10 C 141.60 104.10 138.06 106.73 133.96 106.07 C 130.52 106.45 127.24 103.25 123.96 105.01 C 121.22 106.38 118.11 106.15 115.21 105.52 C 113.35 104.16 111.79 102.40 110.60 100.43 C 109.98 98.63 107.91 96.42 109.66 94.64 C 111.12 93.83 112.92 94.20 114.38 93.38 C 115.37 92.14 114.90 90.43 115.16 88.98 Z" />
</g>
<g id="#006073ff">
<path fill="#006073" opacity="1.00" d=" M 364.14 88.56 C 366.53 90.26 368.90 92.19 369.95 95.03 C 369.85 97.84 368.32 100.32 366.49 102.35 C 366.37 100.81 366.42 99.25 366.10 97.73 C 364.86 96.87 363.46 96.27 362.13 95.60 C 362.73 94.47 363.29 93.31 363.77 92.13 C 363.86 91.24 364.05 89.45 364.14 88.56 Z" />
</g>
<g id="#0093aaff">
<path fill="#0093aa" opacity="1.00" d=" M 146.02 89.60 C 147.94 91.51 149.78 93.56 150.94 96.04 C 150.73 99.31 151.36 102.50 153.04 105.33 C 150.43 106.44 147.75 105.89 145.61 104.10 C 146.41 103.23 147.72 102.62 147.88 101.31 C 147.29 100.58 146.65 99.90 145.97 99.26 C 145.96 97.57 145.96 95.87 145.98 94.18 C 146.00 92.65 146.01 91.12 146.02 89.60 Z" />
</g>
<g id="#0091a6ff">
<path fill="#0091a6" opacity="1.00" d=" M 162.31 90.74 C 162.77 90.58 163.70 90.25 164.16 90.09 C 164.05 90.55 163.83 91.48 163.73 91.95 C 163.20 94.27 161.71 96.01 159.32 96.49 C 158.95 96.72 158.22 97.18 157.86 97.41 C 158.74 98.37 159.63 99.33 160.52 100.29 C 163.04 99.73 165.54 99.03 168.00 98.22 C 170.46 99.03 172.96 99.72 175.50 100.26 C 176.41 99.27 177.32 98.28 178.24 97.29 C 180.19 99.23 181.46 101.69 182.29 104.29 C 181.85 104.73 180.98 105.61 180.54 106.05 C 177.29 106.22 174.02 105.89 171.20 104.15 C 170.80 104.63 169.99 105.59 169.59 106.07 C 167.22 106.01 164.85 105.95 162.49 105.72 C 160.19 103.98 158.13 101.88 156.60 99.43 C 156.23 97.86 154.00 96.10 155.70 94.63 C 156.58 93.46 157.69 94.27 158.59 94.86 C 159.20 94.56 160.41 93.96 161.02 93.66 C 161.02 93.04 161.02 91.81 161.02 91.20 L 162.31 90.74 Z" />
</g>
<g id="#838383ff">
<path fill="#838383" opacity="1.00" d=" M 350.88 94.79 C 352.27 93.22 353.66 91.65 354.86 89.93 C 357.82 90.70 360.79 91.42 363.77 92.13 C 363.29 93.31 362.73 94.47 362.13 95.60 C 358.44 99.34 353.01 100.16 348.05 100.90 C 343.20 101.22 338.22 100.25 333.78 98.28 C 331.10 97.16 329.80 94.48 328.36 92.16 C 331.64 92.17 334.92 92.03 338.20 92.03 C 340.46 93.79 343.09 94.98 345.80 95.88 C 347.48 95.49 349.18 95.13 350.88 94.79 Z" />
</g>
<g id="#005c70ff">
<path fill="#005c70" opacity="1.00" d=" M 413.75 91.66 C 415.55 91.50 417.38 91.24 419.01 90.38 C 419.05 94.04 419.40 97.94 417.45 101.23 C 412.91 102.94 408.14 102.40 403.62 100.96 C 404.92 100.46 406.20 99.92 407.47 99.34 C 409.30 98.17 410.95 96.73 412.42 95.12 C 412.90 93.98 413.34 92.83 413.75 91.66 Z" />
</g>
<g id="#b3b3b3ff">
<path fill="#b3b3b3" opacity="1.00" d=" M 117.07 91.07 C 120.67 91.87 124.33 92.36 127.95 93.02 C 131.48 94.16 135.12 95.42 138.78 93.97 C 139.39 93.29 140.00 92.60 140.61 91.92 C 142.39 92.68 144.19 93.43 145.98 94.18 C 145.96 95.87 145.96 97.57 145.97 99.26 C 143.26 97.97 139.89 95.66 137.48 98.73 C 132.83 100.79 127.31 100.44 123.29 97.20 C 122.90 97.18 122.13 97.13 121.75 97.10 C 120.21 98.14 118.72 99.36 116.95 100.00 C 115.33 100.12 113.81 99.38 112.27 98.99 C 111.83 97.99 111.39 96.99 110.94 95.99 C 112.15 95.99 113.37 95.99 114.58 95.99 C 115.39 95.18 116.19 94.37 117.00 93.56 C 117.02 92.94 117.05 91.69 117.07 91.07 Z" />
</g>
<g id="#007e92ff">
<path fill="#007e92" opacity="1.00" d=" M 172.13 90.31 C 173.92 91.12 175.72 91.92 177.44 92.88 C 177.93 93.21 178.92 93.88 179.41 94.21 C 181.06 95.47 182.49 96.97 184.00 98.39 L 184.00 98.72 C 184.00 100.00 184.00 101.29 184.00 102.58 C 183.57 103.01 182.71 103.86 182.29 104.29 C 181.46 101.69 180.19 99.23 178.24 97.29 C 176.61 96.44 174.91 95.71 173.18 95.08 C 172.85 93.48 172.50 91.89 172.13 90.31 Z" />
<path fill="#007e92" opacity="1.00" d=" M 327.39 92.73 C 327.45 92.48 327.56 91.98 327.61 91.73 L 328.36 92.16 C 329.80 94.48 331.10 97.16 333.78 98.28 C 338.22 100.25 343.20 101.22 348.05 100.90 C 353.01 100.16 358.44 99.34 362.13 95.60 C 363.46 96.27 364.86 96.87 366.10 97.73 C 366.42 99.25 366.37 100.81 366.49 102.35 C 357.95 108.70 346.32 107.89 336.65 104.91 L 335.51 104.60 C 335.48 104.58 335.42 104.53 335.39 104.50 C 332.23 101.83 329.12 99.02 326.90 95.49 C 327.02 94.80 327.27 93.42 327.39 92.73 Z" />
</g>
<g id="#007385ff">
<path fill="#007385" opacity="1.00" d=" M 206.99 90.50 C 208.68 91.08 210.39 91.65 212.06 92.30 C 212.02 92.67 211.94 93.42 211.90 93.79 C 212.30 93.85 213.08 93.98 213.48 94.04 C 215.54 95.88 217.38 97.97 219.44 99.82 C 218.71 100.91 218.00 102.01 217.24 103.08 C 215.76 100.93 214.22 98.83 212.74 96.69 C 212.88 96.49 213.16 96.08 213.30 95.87 C 212.78 96.10 211.76 96.57 211.24 96.80 C 209.83 95.87 208.43 94.94 207.02 94.02 C 207.01 93.14 207.00 91.38 206.99 90.50 Z" />
</g>
<g id="#898989ff">
<path fill="#898989" opacity="1.00" d=" M 228.23 91.41 C 231.51 92.16 234.89 92.28 238.23 91.88 C 239.21 92.85 240.24 93.80 241.25 94.75 C 242.83 95.06 244.41 95.38 246.00 95.71 C 247.58 95.38 249.17 95.06 250.77 94.75 C 251.79 93.76 252.82 92.78 253.81 91.75 C 257.01 92.05 260.21 92.30 263.41 92.54 C 262.40 94.55 261.05 96.41 259.22 97.75 C 252.75 101.02 245.08 101.89 238.10 99.81 C 234.38 99.18 231.16 97.10 228.59 94.40 C 228.48 93.40 228.35 92.40 228.23 91.41 Z" />
</g>
<g id="#007285ff">
<path fill="#007285" opacity="1.00" d=" M 263.93 90.69 C 266.10 91.81 268.31 93.08 269.44 95.37 C 269.05 98.26 267.76 100.95 265.75 103.07 C 265.33 101.63 265.48 99.87 264.40 98.73 C 262.72 98.19 260.95 98.02 259.22 97.75 C 261.05 96.41 262.40 94.55 263.41 92.54 C 263.54 92.07 263.80 91.15 263.93 90.69 Z" />
</g>
<g id="#9a9a9aff">
<path fill="#9a9a9a" opacity="1.00" d=" M 159.32 96.49 C 161.71 96.01 163.20 94.27 163.73 91.95 C 166.83 93.12 170.01 94.08 173.18 95.08 C 174.91 95.71 176.61 96.44 178.24 97.29 C 177.32 98.28 176.41 99.27 175.50 100.26 C 172.96 99.72 170.46 99.03 168.00 98.22 C 165.54 99.03 163.04 99.73 160.52 100.29 C 159.63 99.33 158.74 98.37 157.86 97.41 C 158.22 97.18 158.95 96.72 159.32 96.49 Z" />
</g>
<g id="#909090ff">
<path fill="#909090" opacity="1.00" d=" M 193.90 96.94 C 195.37 95.70 196.78 94.37 197.94 92.83 C 200.95 93.34 203.97 93.75 207.02 94.02 C 208.43 94.94 209.83 95.87 211.24 96.80 C 211.76 96.57 212.78 96.10 213.30 95.87 C 213.16 96.08 212.88 96.49 212.74 96.69 C 211.68 97.94 210.57 99.15 209.46 100.36 C 207.06 99.67 204.72 98.68 202.25 98.26 C 200.44 98.74 198.75 99.58 196.94 100.05 C 195.00 99.90 193.38 98.66 191.73 97.76 C 191.79 97.30 191.89 96.38 191.95 95.93 C 192.44 96.18 193.41 96.69 193.90 96.94 Z" />
</g>
<g id="#008598ff">
<path fill="#008598" opacity="1.00" d=" M 228.59 94.40 C 231.16 97.10 234.38 99.18 238.10 99.81 C 245.08 101.89 252.75 101.02 259.22 97.75 C 260.95 98.02 262.72 98.19 264.40 98.73 C 265.48 99.87 265.33 101.63 265.75 103.07 C 256.69 108.63 245.03 108.07 235.35 104.48 C 233.56 103.35 232.05 101.84 230.33 100.62 C 229.73 99.60 229.15 98.57 228.59 97.54 C 228.59 96.76 228.59 95.18 228.59 94.40 Z" />
</g>
<g id="#008296ff">
<path fill="#008296" opacity="1.00" d=" M 315.00 94.54 C 316.69 95.95 318.35 97.38 320.01 98.83 C 319.99 100.08 319.98 101.32 319.98 102.57 C 320.53 103.11 321.64 104.18 322.20 104.72 L 322.01 104.82 C 319.14 107.31 316.00 104.61 313.00 104.01 C 307.31 106.30 300.53 107.35 294.99 104.10 C 291.82 106.01 288.11 106.41 284.51 105.77 C 282.85 104.46 281.41 102.92 279.88 101.48 C 279.94 101.23 280.06 100.73 280.12 100.47 C 280.29 99.78 280.64 98.39 280.81 97.70 C 281.16 98.34 281.87 99.62 282.22 100.26 C 285.47 100.28 288.46 99.06 290.98 97.07 C 294.45 98.68 298.11 100.61 302.06 100.02 C 304.79 99.46 307.07 97.65 309.78 97.06 C 311.63 97.92 313.31 99.11 315.02 100.22 C 315.01 98.32 315.01 96.43 315.00 94.54 Z" />
</g>
<g id="#004a5eff">
<path fill="#004a5e" opacity="1.00" d=" M 385.95 96.39 C 388.64 95.58 390.75 98.01 393.06 98.97 C 396.23 100.93 400.02 101.02 403.62 100.96 C 408.14 102.40 412.91 102.94 417.45 101.23 C 411.91 107.93 401.80 108.51 394.40 104.76 C 394.12 104.51 393.56 104.00 393.28 103.74 L 392.92 103.34 C 392.78 102.61 392.50 101.17 392.36 100.45 C 390.21 99.11 388.05 97.79 385.95 96.39 Z" />
</g>
<g id="#00899dff">
<path fill="#00899d" opacity="1.00" d=" M 191.73 97.76 C 193.38 98.66 195.00 99.90 196.94 100.05 C 198.75 99.58 200.44 98.74 202.25 98.26 C 204.72 98.68 207.06 99.67 209.46 100.36 C 210.57 99.15 211.68 97.94 212.74 96.69 C 214.22 98.83 215.76 100.93 217.24 103.08 C 216.39 104.13 215.49 105.14 214.61 106.16 C 208.98 105.29 203.35 105.34 197.70 106.05 L 196.97 106.09 C 195.07 104.35 193.12 102.65 191.33 100.79 C 191.43 100.03 191.63 98.51 191.73 97.76 Z" />
</g>
<g id="#000203ff">
<path fill="#000203" opacity="1.00" d=" M 184.00 98.72 C 184.50 99.12 185.51 99.93 186.01 100.34 C 186.00 101.74 186.00 103.15 186.00 104.55 C 184.83 105.69 183.68 106.85 182.54 108.02 C 179.31 108.20 175.92 108.24 173.33 105.98 C 172.91 106.49 172.06 107.50 171.64 108.01 C 169.55 108.00 167.45 107.99 165.37 107.99 C 164.39 107.25 163.43 106.50 162.49 105.72 C 164.85 105.95 167.22 106.01 169.59 106.07 C 169.99 105.59 170.80 104.63 171.20 104.15 C 174.02 105.89 177.29 106.22 180.54 106.05 C 180.98 105.61 181.85 104.73 182.29 104.29 C 182.71 103.86 183.57 103.01 184.00 102.58 C 184.00 101.29 184.00 100.00 184.00 98.72 Z" />
</g>
<g id="#000304ff">
<path fill="#000304" opacity="1.00" d=" M 284.51 105.77 C 288.11 106.41 291.82 106.01 294.99 104.10 C 300.53 107.35 307.31 106.30 313.00 104.01 C 316.00 104.61 319.14 107.31 322.01 104.82 C 322.80 105.43 323.60 106.04 324.41 106.65 C 322.72 108.18 320.54 108.28 318.50 107.52 C 318.01 107.15 317.05 106.41 316.57 106.04 C 315.52 106.02 314.49 106.01 313.45 106.03 C 312.96 106.41 311.97 107.15 311.48 107.53 C 307.85 108.38 304.10 107.92 300.42 107.97 C 299.40 107.26 298.39 106.55 297.39 105.84 C 296.07 106.51 294.76 107.19 293.47 107.90 C 291.44 107.97 289.42 108.00 287.40 108.02 C 286.42 107.28 285.46 106.53 284.51 105.77 Z" />
</g>
</svg>
