<?xml version="1.0" encoding="UTF-8" standalone="no"?>
<!-- Generator: Adobe Illustrator 13.0.0, SVG Export Plug-In . SVG Version: 6.00 Build 14948)  -->

<svg
   xmlns:dc="http://purl.org/dc/elements/1.1/"
   xmlns:cc="http://creativecommons.org/ns#"
   xmlns:rdf="http://www.w3.org/1999/02/22-rdf-syntax-ns#"
   xmlns:svg="http://www.w3.org/2000/svg"
   xmlns="http://www.w3.org/2000/svg"
   xmlns:sodipodi="http://sodipodi.sourceforge.net/DTD/sodipodi-0.dtd"
   xmlns:inkscape="http://www.inkscape.org/namespaces/inkscape"
   version="1.1"
   id="Layer_2_1_"
   x="0px"
   y="0px"
   width="566.929px"
   height="129.21px"
   viewBox="0 0 566.929 129.21"
   enable-background="new 0 0 566.929 129.21"
   xml:space="preserve"
   sodipodi:docname="system (3).svg"
   inkscape:version="0.92.1 r15371"><metadata
     id="metadata58"><rdf:RDF><cc:Work
         rdf:about=""><dc:format>image/svg+xml</dc:format><dc:type
           rdf:resource="http://purl.org/dc/dcmitype/StillImage" /><dc:title /></cc:Work></rdf:RDF></metadata><defs
     id="defs56" /><sodipodi:namedview
     pagecolor="#ffffff"
     bordercolor="#666666"
     borderopacity="1"
     objecttolerance="10"
     gridtolerance="10"
     guidetolerance="10"
     inkscape:pageopacity="0"
     inkscape:pageshadow="2"
     inkscape:window-width="1366"
     inkscape:window-height="706"
     id="namedview54"
     showgrid="false"
     inkscape:zoom="1.1077225"
     inkscape:cx="191.13"
     inkscape:cy="13.632838"
     inkscape:window-x="-8"
     inkscape:window-y="-8"
     inkscape:window-maximized="1"
     inkscape:current-layer="g5137"
     inkscape:pagecheckerboard="true" /><g
     transform="matrix(0.10252157,0,0,0.10252157,199.56464,0.76250092)"
     id="g5137"><path
       style="color:#000000;clip-rule:nonzero;display:inline;overflow:visible;visibility:visible;opacity:1;isolation:auto;mix-blend-mode:normal;color-interpolation:sRGB;color-interpolation-filters:linearRGB;solid-color:#000000;solid-opacity:1;vector-effect:none;fill:#ffffff;fill-opacity:1;fill-rule:nonzero;stroke:none;stroke-width:1.5365988;stroke-linecap:round;stroke-linejoin:miter;stroke-miterlimit:4;stroke-dasharray:none;stroke-dashoffset:0;stroke-opacity:1;color-rendering:auto;image-rendering:auto;shape-rendering:auto;text-rendering:auto;enable-background:accumulate"
       d="M 81.910156 34.060547 C 70.305483 34.060547 62.898288 42.425995 60.980469 49.417969 L 51.148438 85.261719 C 48.897833 93.466961 57.997553 100.61914 66.505859 100.61914 L 80.828125 100.61914 L 98.222656 37.195312 C 98.506752 36.13506 98.872434 35.090038 99.302734 34.060547 L 81.910156 34.060547 z M 317.89258 34.060547 C 318.07753 36.952912 317.80539 39.962883 316.96484 43.027344 L 305.18359 85.980469 C 303.71831 91.448971 301.84361 96.310252 299.66797 100.61914 L 488.7207 100.61914 C 497.22901 100.61914 506.28649 93.466961 508.53711 85.261719 L 517.51953 52.511719 C 520.01705 43.190869 510.90398 34.060547 498.55078 34.060547 L 317.89258 34.060547 z M 487.42969 47.558594 L 496.49023 49.402344 L 490.85352 60.835938 C 489.69448 60.028126 488.30703 59.376478 486.69141 58.884766 C 485.11091 58.393054 483.9348 58.148437 483.16211 58.148438 C 482.42454 58.148437 481.79246 58.289334 481.26562 58.570312 C 480.73879 58.816168 480.40416 59.236906 480.26367 59.833984 C 480.12318 60.501307 481.05467 61.203839 483.05664 61.941406 C 485.8313 62.959951 487.76277 63.873828 488.85156 64.681641 C 490.99402 66.22702 492.06445 68.281778 492.06445 70.845703 C 492.06445 71.794004 491.97639 72.670704 491.80078 73.478516 C 491.09834 76.709764 489.41343 79.484666 486.74414 81.802734 C 483.58313 84.542271 479.68496 85.912109 475.04883 85.912109 C 473.4332 85.912109 471.71112 85.683152 469.88477 85.226562 C 467.46133 84.629484 465.2324 83.682336 463.19531 82.382812 L 468.25195 71.951172 C 470.92125 73.285818 472.79989 74.146858 473.88867 74.533203 C 474.97746 74.919547 476.08507 75.111328 477.20898 75.111328 C 478.78948 75.111328 479.6838 74.549693 479.89453 73.425781 C 480.07014 72.617969 479.15822 71.844989 477.15625 71.107422 C 474.17086 69.983509 472.18655 69.089198 471.20312 68.421875 C 468.99043 66.876496 467.88281 64.821737 467.88281 62.257812 C 467.88281 61.309511 467.97087 60.430859 468.14648 59.623047 C 468.84893 56.286432 470.51818 53.599591 473.15234 51.5625 C 475.78652 49.525409 478.98215 48.507812 482.74023 48.507812 L 484.42578 48.507812 C 484.88237 48.507812 485.67297 48.578261 486.79688 48.71875 L 487.42969 47.558594 z M 459.07227 47.716797 L 469.13477 47.716797 L 463.55078 60.361328 L 452.22266 60.361328 L 451.80078 62.416016 L 465.02539 62.416016 L 460.59961 71.6875 L 449.79883 71.6875 L 449.32617 73.900391 L 462.33789 73.900391 L 457.28125 85.173828 L 435.67969 85.173828 L 441.00195 60.044922 L 438.47266 60.044922 L 443.32031 49.138672 L 458.28125 49.138672 L 459.07227 47.716797 z M 348.18359 48.349609 C 350.53679 48.349609 352.43304 48.823183 353.87305 49.771484 L 354.66406 49.138672 L 361.72266 53.300781 L 351.81836 61.835938 C 351.11592 61.414471 350.53668 61.099406 350.08008 60.888672 C 348.60494 60.221349 347.25271 59.886719 346.02344 59.886719 C 343.70537 59.886719 341.66822 60.694923 339.91211 62.310547 C 338.36672 63.750559 337.3824 65.435463 336.96094 67.367188 C 336.89069 67.683284 336.83981 67.982694 336.80469 68.263672 C 336.76956 68.509528 336.75195 68.789368 336.75195 69.105469 C 336.75195 70.861582 337.38403 72.231421 338.64844 73.214844 C 339.94796 74.198268 341.5448 74.691406 343.44141 74.691406 C 344.53019 74.691406 345.53214 74.462449 346.44531 74.005859 C 347.39362 73.549269 348.21942 72.934799 348.92188 72.162109 L 343.125 72.162109 L 347.49805 62.837891 L 364.35742 62.837891 C 364.28717 63.224236 364.25195 63.504076 364.25195 63.679688 C 364.14659 64.382128 364.07614 64.820482 364.04102 64.996094 C 362.77662 70.931756 359.91366 75.884701 355.45312 79.853516 C 350.99264 83.822331 346.18055 85.806641 341.01758 85.806641 C 336.34632 85.806641 332.53621 84.454414 329.58594 81.75 C 326.67079 79.010464 325.21289 75.411699 325.21289 70.951172 C 325.21289 69.616527 325.37141 68.229075 325.6875 66.789062 C 326.81142 61.485605 329.86812 56.988619 334.85547 53.300781 C 339.316 49.999289 343.7582 48.349609 348.18359 48.349609 z M 375.10938 49.138672 L 393.02148 49.138672 L 395.60352 85.173828 L 383.64453 85.173828 L 383.69727 80.169922 L 373.47656 80.169922 L 370.94727 85.173828 L 359.35742 85.173828 L 372.05469 58.833984 L 369.52539 58.833984 L 375.10938 49.138672 z M 404.32227 49.138672 L 415.70117 49.138672 L 420.6543 56.726562 L 428.24023 49.138672 L 439.30273 49.138672 L 431.66406 85.173828 L 421.17969 85.173828 L 425.44727 65.101562 L 417.38672 72.847656 L 412.11914 65.681641 L 407.95703 85.173828 L 396.68164 85.173828 L 402.00391 60.150391 L 399.47461 60.150391 L 404.32227 49.138672 z M 382.90625 59.992188 L 377.79688 70.6875 L 383.43359 70.6875 L 382.90625 59.992188 z "
       transform="matrix(9.7540449,0,0,9.7540449,-1946.5625,-7.4374682)"
       id="rect5207" /><path
       style="color:#000000;clip-rule:nonzero;display:inline;overflow:visible;visibility:visible;opacity:1;isolation:auto;mix-blend-mode:normal;color-interpolation:sRGB;color-interpolation-filters:linearRGB;solid-color:#000000;solid-opacity:1;vector-effect:none;fill:#ffffff;fill-opacity:1;fill-rule:nonzero;stroke:none;stroke-width:2.78236437;stroke-linecap:round;stroke-linejoin:miter;stroke-miterlimit:4;stroke-dasharray:none;stroke-dashoffset:0;stroke-opacity:1;color-rendering:auto;image-rendering:auto;shape-rendering:auto;text-rendering:auto;enable-background:accumulate"
       d="M 137.99219 7.9550781 C 124.2483 8.4197402 102.50563 21.21107 98.222656 37.195312 L 80.814453 100.66797 C 76.739221 115.52545 93.216806 128.47656 108.62305 128.47656 L 260.74219 128.47656 C 276.8635 127.96513 297.1313 116.03204 305.18359 85.980469 L 316.96484 43.027344 C 322.03816 24.531106 306.77897 7.9550781 291.14844 7.9550781 L 137.99219 7.9550781 z M 136.01953 22.169922 L 181.79492 22.169922 L 182.78711 114.26172 L 152.22461 114.26172 L 153.13867 101.4707 L 127.01953 101.4707 L 119.77734 114.26172 L 90.158203 114.26172 L 126.70312 46.943359 L 120.24023 46.943359 L 136.01953 22.169922 z M 210.67188 22.169922 L 239.48438 22.169922 L 222.16211 85.583984 L 241.54883 85.583984 L 227.14844 114.26172 L 185.54492 114.26172 L 203.20312 49.771484 L 196.74023 49.771484 L 210.67188 22.169922 z M 262.73828 22.169922 L 291.55078 22.169922 L 274.22656 85.583984 L 293.61523 85.583984 L 279.21289 114.26172 L 237.61133 114.26172 L 255.26953 49.771484 L 248.80664 49.771484 L 262.73828 22.169922 z M 154.25781 49.90625 L 139.5332 77.236328 L 153.93945 77.236328 L 154.25781 49.90625 z "
       transform="matrix(9.7540449,0,0,9.7540449,-1946.5625,-7.4374682)"
       id="path5211" /><g
       aria-label="ALL "
       style="font-style:normal;font-variant:normal;font-weight:normal;font-stretch:normal;font-size:390.1618042px;line-height:243.85112px;font-family:'namco regular';-inkscape-font-specification:'namco regular, ';letter-spacing:0px;word-spacing:0px;fill:#ed1e24;fill-opacity:1;stroke:none;stroke-width:9.75404453px;stroke-linecap:butt;stroke-linejoin:miter;stroke-opacity:1"
       id="text4502" /></g></svg>