<?xml version="1.0" encoding="UTF-8" standalone="no"?>
<!-- Created with Inkscape (http://www.inkscape.org/) -->

<svg
   xmlns:dc="http://purl.org/dc/elements/1.1/"
   xmlns:cc="http://creativecommons.org/ns#"
   xmlns:rdf="http://www.w3.org/1999/02/22-rdf-syntax-ns#"
   xmlns:svg="http://www.w3.org/2000/svg"
   xmlns="http://www.w3.org/2000/svg"
   xmlns:sodipodi="http://sodipodi.sourceforge.net/DTD/sodipodi-0.dtd"
   xmlns:inkscape="http://www.inkscape.org/namespaces/inkscape"
   width="306.47552"
   height="56.197262"
   viewBox="0 0 81.088313 14.868859"
   version="1.1"
   id="svg9136"
   inkscape:version="0.92.2 (5c3e80d, 2017-08-06)"
   sodipodi:docname="favoritos.svg">
  <defs
     id="defs9130" />
  <sodipodi:namedview
     id="base"
     pagecolor="#ffffff"
     bordercolor="#666666"
     borderopacity="1.0"
     inkscape:pageopacity="0.0"
     inkscape:pageshadow="2"
     inkscape:zoom="3.2302743"
     inkscape:cx="171.90237"
     inkscape:cy="28.098631"
     inkscape:document-units="px"
     inkscape:current-layer="layer1"
     showgrid="false"
     units="px"
     inkscape:window-width="1440"
     inkscape:window-height="837"
     inkscape:window-x="-8"
     inkscape:window-y="-8"
     inkscape:window-maximized="1"
     fit-margin-top="0"
     fit-margin-left="0"
     fit-margin-right="0"
     fit-margin-bottom="0"
     inkscape:snap-global="false"
     inkscape:pagecheckerboard="true" />
  <metadata
     id="metadata9133">
    <rdf:RDF>
      <cc:Work
         rdf:about="">
        <dc:format>image/svg+xml</dc:format>
        <dc:type
           rdf:resource="http://purl.org/dc/dcmitype/StillImage" />
        <dc:title></dc:title>
      </cc:Work>
    </rdf:RDF>
  </metadata>
  <g
     inkscape:label="Layer 1"
     inkscape:groupmode="layer"
     id="layer1"
     transform="translate(-10.044043,-269.88078)">
    <path
       sodipodi:nodetypes="ccccccccccccccccccccccccccccccccccccccccccccccccccccccczsccscsccsccccccscccccccccccccccccccccccccccccccccccscccccccccccccccccccccccccccccccccccccccccsccccccsccccscscccccccccccccccccssscccc"
       inkscape:connector-curvature="0"
       id="path5103"
       d="m 17.002505,269.88438 c -0.319341,-0.0709 -0.551811,0.93109 -0.394291,0.5333 h -5.334558 c -0.139864,-6e-5 -0.261301,0.0963 -0.293005,0.23254 l -0.928626,3.97082 c -0.04397,0.18865 0.09929,0.36906 0.293005,0.36897 h 0.627869 v 9.24129 c -2.7e-5,0.16612 0.134642,0.30079 0.300757,0.30076 h 4.227649 c 0.166114,3e-5 0.300783,-0.13464 0.300757,-0.30076 v -4.22299 h 3.334163 c 0.138562,-8e-5 0.259134,-0.0948 0.291972,-0.22945 l 0.928625,-3.8132 c 0.04625,-0.18934 -0.09707,-0.37198 -0.291972,-0.37207 h -4.262788 v -0.36639 h 3.907255 c 0.138907,1.1e-4 0.259807,-0.0949 0.292488,-0.22996 l 1.145667,-4.74131 c 0.04591,-0.18936 -0.09764,-0.37171 -0.292489,-0.37155 z m 45.128512,0 c -0.136977,7e-5 -0.256593,0.0927 -0.290938,0.22531 l -0.869199,3.35845 c -0.04938,0.19037 0.09427,0.37611 0.290938,0.3762 h 3.931542 c 0.135895,7e-5 0.254947,-0.091 0.290423,-0.22221 l 0.908473,-3.35845 c 0.05178,-0.19123 -0.0923,-0.37942 -0.290423,-0.3793 z m 8.688874,1.87688 c -0.02127,6.9e-4 -0.0424,0.004 -0.06305,0.009 l -3.931544,0.9679 c -0.134408,0.033 -0.228904,0.15356 -0.228925,0.29197 v 1.02319 h -0.114205 c -0.137766,8e-5 -0.257858,0.0938 -0.291455,0.22738 l -0.736391,2.93057 v -2.85719 c 2.7e-5,-0.16611 -0.134643,-0.30078 -0.300757,-0.30076 h -3.931025 c -0.04567,3e-5 -0.09073,0.0104 -0.131773,0.0305 -0.03804,-0.11842 -0.145058,-0.2012 -0.269235,-0.20825 l -0.356053,-0.0196 c -0.0026,-2.1e-4 -0.0052,-4e-4 -0.0078,-5.3e-4 -0.509646,-0.0146 -1.044191,0.0955 -1.600419,0.31781 -5.3e-4,2.1e-4 -0.0011,2.9e-4 -0.0016,5.3e-4 -0.308771,0.11806 -0.577905,0.26601 -0.812353,0.4377 v -0.25735 c 2.7e-5,-0.16611 -0.134644,-0.30078 -0.300757,-0.30076 h -3.832325 c -0.137917,1.4e-4 -0.258059,0.0941 -0.291455,0.2279 l -0.806669,3.22564 c -0.265777,-0.7918 -0.460267,-1.38204 -1.334286,-2.09031 -0.87402,-0.70827 -2.432483,-1.50172 -3.997171,-1.50172 -1.551665,0 -2.884938,0.50535 -3.939811,1.5043 -2.91e-4,2.7e-4 -7.41e-4,2.5e-4 -0.001,5.3e-4 -1.095456,1.01361 -1.654679,2.33578 -1.654679,3.89279 0,1.56827 0.536893,2.89579 1.594218,3.91139 1.055085,1.01342 2.395894,1.526 3.961515,1.526 1.590005,0 2.955086,-0.50358 4.036962,-1.50223 5.3e-4,-5.3e-4 0.0011,-10e-4 0.0016,-0.002 1.085286,-1.01571 1.636077,-2.35808 1.636077,-3.95325 0,-0.32068 -0.03858,-0.62434 -0.08527,-0.92398 h 0.579295 v 5.8627 c -2.7e-5,0.16611 0.134641,0.30078 0.300754,0.30075 h 3.832326 c 0.166113,3e-5 0.300783,-0.13464 0.300757,-0.30075 v -4.12895 c 0,-0.19672 0.02373,-0.38507 0.06873,-0.56844 0.05671,-0.17875 0.131837,-0.33029 0.226343,-0.45631 0.0024,-0.003 0.0046,-0.006 0.0067,-0.009 0.09426,-0.13615 0.201673,-0.23206 0.330213,-0.30127 0.0051,-0.003 0.01005,-0.005 0.01497,-0.008 0.124299,-0.0765 0.254945,-0.11369 0.415478,-0.11369 0.185619,0 0.337685,0.0235 0.457854,0.0636 0.164033,0.0548 0.340346,-0.0398 0.385505,-0.2067 l 0.077,-0.28474 c 0.05594,0.082 0.148765,0.13114 0.248047,0.13126 h 0.62787 v 5.88284 c -2.7e-5,0.16612 0.134641,0.30079 0.300754,0.30076 h 3.950663 c 0.137917,-1.4e-4 0.258062,-0.0941 0.291457,-0.22789 l 0.948262,-3.79305 c 0.0474,-0.18968 -0.09595,-0.37344 -0.291455,-0.37362 h -0.647506 v -1.80661 c 0.03201,0.0114 0.06574,0.0174 0.09974,0.0176 h 1.042313 v 5.88284 c -2.7e-5,0.16612 0.134641,0.30079 0.300757,0.30076 h 3.931541 c 0.166114,3e-5 0.300784,-0.13464 0.300758,-0.30076 v -5.88284 c 1.40458,-0.15121 1.354899,-2.85273 1.610754,-3.92121 0.04781,-0.18985 -0.09567,-0.37404 -0.291455,-0.37414 h -1.319299 v -1.99109 c 1e-4,-0.16961 -0.140007,-0.30574 -0.309542,-0.30076 z m -45.169852,2.11357 c -1.503616,0 -2.768361,0.52552 -3.718119,1.55908 -1.72e-4,1.8e-4 -3.44e-4,3.4e-4 -5.16e-4,5.3e-4 -0.934248,1.01791 -1.402498,2.32315 -1.402498,3.85816 0,1.58204 0.552247,2.90081 1.639693,3.87728 1.04e-4,1e-4 4.12e-4,-9e-5 5.16e-4,0 2.83e-4,2.6e-4 2.33e-4,7.7e-4 5.16e-4,0.001 1.072697,0.97464 2.443771,1.42914 4.046781,1.36064 l -0.01292,5.2e-4 h 0.473873 c 0.104508,7e-5 0.201555,-0.0541 0.256315,-0.14314 l 0.292489,-0.47594 v 0.31833 c -2.7e-5,0.16611 0.134642,0.30078 0.300757,0.30075 h 3.95118 c 0.137917,-1.3e-4 0.258059,-0.0941 0.291455,-0.22789 l 0.948262,-3.79305 c 0.0474,-0.18967 -0.09595,-0.37344 -0.291455,-0.37362 h -0.647506 v -5.14749 l 2.704228,9.32501 c 0.03725,0.12858 0.155005,0.21706 0.288871,0.21704 h 4.563546 c 0.132152,-1.2e-4 0.248735,-0.0865 0.287321,-0.2129 l 3.023071,-9.87744 c 0.05904,-0.19315 -0.08534,-0.38843 -0.28732,-0.3886 h -4.070035 c -0.143932,6e-5 -0.26764,0.1021 -0.295072,0.24339 l -0.772563,3.96462 -0.890902,-3.97288 c -0.03071,-0.13744 -0.152694,-0.23516 -0.293522,-0.23513 h -4.128947 c -0.08098,1.3e-4 -0.158486,0.0329 -0.214974,0.091 -0.05636,-0.0579 -0.133655,-0.0907 -0.214457,-0.091 h -3.437516 c -0.128108,-7e-5 -0.242192,0.081 -0.284221,0.20205 l -0.05116,0.14676 c -0.625826,-0.32715 -1.306521,-0.5271 -2.055172,-0.5271 z m 61.091876,0.0398 c -0.554998,0 -1.075761,0.0835 -1.557009,0.2527 -2.65e-4,1.2e-4 -5.29e-4,4e-4 -0.0011,5.3e-4 -0.470353,0.15694 -0.88492,0.39561 -1.232998,0.71468 -0.349652,0.32052 -0.61925,0.71659 -0.805638,1.17513 -9e-5,2.2e-4 -5.29e-4,2.9e-4 -5.29e-4,5.2e-4 -0.187762,0.44899 -0.279054,0.95019 -0.279054,1.49604 0,0.85679 0.361532,1.6014 1.039731,2.14974 l 0.0016,10e-4 c 0.4372,0.34976 1.044538,0.64853 1.828313,0.91881 0.299527,0.10851 0.52287,0.20345 0.653191,0.27285 0.02508,0.0134 0.0272,0.0169 0.04496,0.0279 -0.0061,0.009 -0.0053,0.0385 -0.01394,0.0455 -0.02582,0.0208 -0.106574,0.0568 -0.270267,0.0568 -0.329133,0 -1.053581,-0.2703 -2.037085,-0.86558 -0.17264,-0.10442 -0.397102,-0.0126 -0.447,0.18294 l -0.810287,3.18068 c -0.03831,0.15071 0.04459,0.30577 0.191202,0.3576 1.509836,0.53446 2.823887,0.8077 3.952732,0.8077 1.152795,0 2.120968,-0.27783 2.867525,-0.85111 0.836136,-0.62078 1.266071,-1.5593 1.266071,-2.70939 0,-0.83511 -0.372907,-1.56663 -1.062466,-2.11253 -0.0021,-0.002 -0.0041,-0.003 -0.0062,-0.005 -0.45485,-0.34113 -1.063125,-0.65264 -1.830379,-0.94877 -0.0011,-3.5e-4 -0.0021,-6.9e-4 -0.0031,-0.001 -0.306636,-0.11499 -0.531707,-0.2185 -0.66094,-0.29662 -0.04425,-0.0267 -0.0592,-0.0413 -0.07855,-0.0574 0.0016,-10e-4 0.0013,-0.0135 0.0031,-0.015 0.0094,-0.008 0.06566,-0.0367 0.196372,-0.0367 0.326789,0 0.886256,0.22903 1.600419,0.7519 0.165637,0.1213 0.401437,0.0446 0.464053,-0.1509 l 0.928626,-2.90422 c 0.04297,-0.13426 -0.0131,-0.28036 -0.134876,-0.35139 -1.237438,-0.72071 -2.511973,-1.08779 -3.806486,-1.08779 z m -60.439719,4.23644 c 0.292061,0.023 0.917607,0.14888 0.923974,0.68729 v 1.27951 h -0.706933 c -0.487989,0 -0.814337,-0.0982 -1.000973,-0.24288 -0.186636,-0.14465 -0.278536,-0.33745 -0.278536,-0.68109 0,-0.2776 0.09379,-0.49427 0.321428,-0.71107 0.0017,-0.002 0.0035,-0.003 0.0052,-0.005 0.231045,-0.23104 0.458282,-0.32659 0.735872,-0.32659 z"
       style="font-style:normal;font-variant:normal;font-weight:900;font-stretch:normal;font-size:19.75555611px;line-height:6.61458302px;font-family:Nougat;-inkscape-font-specification:'Nougat Heavy';letter-spacing:0px;word-spacing:0px;fill:none;fill-opacity:1;stroke:none;stroke-width:0.26458332px;stroke-linecap:butt;stroke-linejoin:miter;stroke-opacity:1" />
    <path
       sodipodi:nodetypes="scscccccccccccsscccsccssccscsccssccscccccccccccccccccscscsscscc"
       inkscape:connector-curvature="0"
       id="path931"
       d="m 25.649809,274.17561 c -1.435571,0 -2.60136,0.48732 -3.496945,1.46192 -0.882415,0.96144 -1.323433,2.18 -1.323433,3.65508 0,1.51459 0.513702,2.73263 1.540991,3.65456 1.014118,0.92192 2.291907,1.35001 3.832841,1.28416 h 0.473873 l 0.849561,-1.38287 v 1.38287 h 3.95118 l 0.948262,-3.79305 h -0.948262 v -6.08439 H 28.04036 l -0.15813,0.45424 c -0.658519,-0.42146 -1.402688,-0.63252 -2.232421,-0.63252 z m 61.091877,0.0398 c -0.526814,0 -1.014132,0.0792 -1.461926,0.23719 -0.43462,0.14488 -0.80994,0.3619 -1.126029,0.65164 -0.316088,0.28976 -0.559491,0.64568 -0.730706,1.06712 -0.171214,0.40829 -0.256831,0.86922 -0.256831,1.38286 0,0.77706 0.309103,1.41569 0.928108,1.91617 0.395113,0.31608 0.975032,0.60578 1.738914,0.86919 0.619005,0.2239 0.928108,0.38867 0.928108,0.49403 0,0.32926 -0.204084,0.49403 -0.612368,0.49403 -0.46096,0 -1.191681,-0.30316 -2.192628,-0.90899 l -0.810287,3.18068 c 1.488252,0.52682 2.772505,0.79014 3.852476,0.79014 1.10631,0 2.001801,-0.26332 2.686659,-0.79014 0.763884,-0.56632 1.146183,-1.38965 1.146183,-2.46961 0,-0.75072 -0.316085,-1.37642 -0.948262,-1.87689 -0.421454,-0.31609 -1.00784,-0.61872 -1.75855,-0.90847 -0.632177,-0.23707 -0.948261,-0.42822 -0.948261,-0.5731 0,-0.27657 0.171233,-0.41496 0.513662,-0.41496 0.447794,0 1.040646,0.27031 1.778187,0.81029 l 0.928624,-2.90422 c -1.198504,-0.69803 -2.417058,-1.04696 -3.655073,-1.04696 z m -54.834378,0.13849 2.864424,9.87744 h 4.563546 l 3.023071,-9.87744 h -4.070036 l -1.046964,5.37332 -1.205094,-5.37332 z m 29.315007,0 -0.948265,3.69383 h 0.928627 v 6.18361 h 3.950663 l 0.948262,-3.79305 H 65.15334 v -6.08439 z m -34.92035,3.49643 c 0.289748,0 0.566,0.0991 0.829407,0.29662 0.263408,0.18439 0.395325,0.41486 0.395325,0.69143 v 1.58027 h -1.007691 c -1.05363,0 -1.580265,-0.40817 -1.580265,-1.22473 0,-0.3556 0.138384,-0.66522 0.414962,-0.92863 0.276578,-0.27657 0.592662,-0.41496 0.948262,-0.41496 z m 52.538911,6.46007 c -22.932355,0.14642 -45.864709,0.29284 0,0 z"
       style="font-style:normal;font-variant:normal;font-weight:900;font-stretch:normal;font-size:19.75555611px;line-height:6.61458302px;font-family:Nougat;-inkscape-font-specification:'Nougat Heavy';letter-spacing:0px;word-spacing:0px;fill:#ffffff;fill-opacity:1;stroke:none;stroke-width:0.26458332px;stroke-linecap:butt;stroke-linejoin:miter;stroke-opacity:1" />
    <path
       inkscape:connector-curvature="0"
       id="path929"
       d="m 60.448718,274.15597 c -0.460963,-0.0132 -0.954749,0.0859 -1.481564,0.29662 -0.553156,0.21073 -0.961326,0.50043 -1.224732,0.8692 v -0.9679 h -3.832323 l -0.928627,3.71399 h 0.928627 v 6.16345 h 3.832323 v -4.12895 c 0,-0.2239 0.02638,-0.44092 0.07906,-0.65164 0.06585,-0.21073 0.157935,-0.39541 0.276469,-0.55346 0.118533,-0.17121 0.263385,-0.30261 0.434599,-0.3948 0.171215,-0.10537 0.362368,-0.15813 0.573093,-0.15813 0.210727,0 0.39489,0.0264 0.552937,0.0791 l 1.146183,-4.2478 z"
       style="font-style:normal;font-variant:normal;font-weight:900;font-stretch:normal;font-size:19.75555611px;line-height:6.61458302px;font-family:Nougat;-inkscape-font-specification:'Nougat Heavy';letter-spacing:0px;word-spacing:0px;fill:#ffffff;fill-opacity:1;stroke:none;stroke-width:0.26458332px;stroke-linecap:butt;stroke-linejoin:miter;stroke-opacity:1" />
    <path
       inkscape:connector-curvature="0"
       id="path927"
       d="m 70.828446,272.06204 -3.931544,0.9679 v 1.32395 H 66.48194 l -0.928108,3.69383 h 1.34307 v 6.18361 h 3.931544 v -6.18361 h 0.691431 l 0.928626,-3.69383 h -1.620057 z"
       style="font-style:normal;font-variant:normal;font-weight:900;font-stretch:normal;font-size:19.75555611px;line-height:6.61458302px;font-family:Nougat;-inkscape-font-specification:'Nougat Heavy';letter-spacing:0px;word-spacing:0px;fill:#ffffff;fill-opacity:1;stroke:none;stroke-width:0.26458332px;stroke-linecap:butt;stroke-linejoin:miter;stroke-opacity:1" />
    <path
       inkscape:connector-curvature="0"
       id="path925"
       d="m 62.130785,270.18515 -0.869198,3.35846 h 3.931544 l 0.908471,-3.35846 z"
       style="font-style:normal;font-variant:normal;font-weight:900;font-stretch:normal;font-size:19.75555611px;line-height:6.61458302px;font-family:Nougat;-inkscape-font-specification:'Nougat Heavy';letter-spacing:0px;word-spacing:0px;fill:#ffffff;fill-opacity:1;stroke:none;stroke-width:0.26458332px;stroke-linecap:butt;stroke-linejoin:miter;stroke-opacity:1" />
    <path
       inkscape:connector-curvature="0"
       id="path4494"
       d="m 17.002274,270.18515 -0.177766,0.5333 h -5.551083 l -0.928625,3.97082 h 0.928625 v 9.54206 h 4.227649 v -4.52376 h 3.63492 l 0.928626,-3.8132 h -4.563546 v -0.9679 h 4.208012 l 1.145666,-4.74132 z"
       style="font-style:normal;font-variant:normal;font-weight:900;font-stretch:normal;font-size:19.75555611px;line-height:6.61458302px;font-family:Nougat;-inkscape-font-specification:'Nougat Heavy';letter-spacing:0px;word-spacing:0px;fill:#ffffff;fill-opacity:1;stroke:none;stroke-width:0.26458332px;stroke-linecap:butt;stroke-linejoin:miter;stroke-opacity:1" />
    <path
       inkscape:connector-curvature="0"
       id="path831"
       d="m 77.617694,274.26553 a 5.3239804,5.2011193 0 0 0 -5.324221,5.20123 5.3239804,5.2011193 0 0 0 5.324221,5.20123 5.3239804,5.2011193 0 0 0 5.323708,-5.20123 5.3239804,5.2011193 0 0 0 -5.323708,-5.20123 z m 0.0016,2.30011 0.84801,1.72135 1.898592,0.2775 -1.375108,1.33842 0.322977,1.89135 -1.698088,-0.89451 -1.698604,0.89193 0.325562,-1.89136 -1.373042,-1.33997 1.899108,-0.2744 z"
       style="font-style:normal;font-variant:normal;font-weight:normal;font-stretch:normal;font-size:medium;line-height:12.77528667px;font-family:'namco regular';-inkscape-font-specification:'namco regular, ';letter-spacing:0px;word-spacing:0px;fill:#ffffff;fill-opacity:1;stroke:none;stroke-width:0.14840212px;stroke-linecap:butt;stroke-linejoin:miter;stroke-opacity:1" />
    <path
       inkscape:connector-curvature="0"
       style="font-style:normal;font-variant:normal;font-weight:normal;font-stretch:normal;font-size:20.44046021px;line-height:12.77528667px;font-family:'namco regular';-inkscape-font-specification:'namco regular, ';letter-spacing:0px;word-spacing:0px;fill:#ffffff;fill-opacity:1;stroke:none;stroke-width:0.14840212px;stroke-linecap:butt;stroke-linejoin:miter;stroke-opacity:1"
       d="m 47.148347,274.30633 a 5.3239804,5.2011193 0 0 0 -5.324221,5.20123 5.3239804,5.2011193 0 0 0 5.324221,5.20124 5.3239804,5.2011193 0 0 0 5.323708,-5.20124 5.3239804,5.2011193 0 0 0 -5.323708,-5.20123 z m 0.0016,2.30012 0.848011,1.72134 1.898592,0.2775 -1.375108,1.33842 0.322976,1.89136 -1.698087,-0.89452 -1.698604,0.89194 0.325562,-1.89136 -1.373042,-1.33997 1.899107,-0.2744 z"
       id="path831-0" />
  </g>
</svg>
