<?xml version="1.0" encoding="UTF-8" standalone="no"?>
<!-- Created with Inkscape (http://www.inkscape.org/) -->

<svg
   xmlns:dc="http://purl.org/dc/elements/1.1/"
   xmlns:cc="http://creativecommons.org/ns#"
   xmlns:rdf="http://www.w3.org/1999/02/22-rdf-syntax-ns#"
   xmlns:svg="http://www.w3.org/2000/svg"
   xmlns="http://www.w3.org/2000/svg"
   xmlns:sodipodi="http://sodipodi.sourceforge.net/DTD/sodipodi-0.dtd"
   xmlns:inkscape="http://www.inkscape.org/namespaces/inkscape"
   width="128mm"
   height="107mm"
   viewBox="0 0 128 107"
   version="1.1"
   id="svg875"
   inkscape:version="0.92.2 (5c3e80d, 2017-08-06)"
   sodipodi:docname="system.svg">
  <defs
     id="defs869" />
  <sodipodi:namedview
     id="base"
     pagecolor="#ffffff"
     bordercolor="#666666"
     borderopacity="1.0"
     inkscape:pageopacity="0.0"
     inkscape:pageshadow="2"
     inkscape:zoom="1.5825545"
     inkscape:cx="241.88976"
     inkscape:cy="202.20472"
     inkscape:document-units="mm"
     inkscape:current-layer="layer1"
     showgrid="false"
     inkscape:pagecheckerboard="true"
     inkscape:window-width="1440"
     inkscape:window-height="837"
     inkscape:window-x="-8"
     inkscape:window-y="-8"
     inkscape:window-maximized="1" />
  <metadata
     id="metadata872">
    <rdf:RDF>
      <cc:Work
         rdf:about="">
        <dc:format>image/svg+xml</dc:format>
        <dc:type
           rdf:resource="http://purl.org/dc/dcmitype/StillImage" />
        <dc:title></dc:title>
      </cc:Work>
    </rdf:RDF>
  </metadata>
  <g
     inkscape:label="Capa 1"
     inkscape:groupmode="layer"
     id="layer1"
     transform="translate(0,-190)">
    <path
       style="fill:#ffffff;stroke-width:0.99999994"
       d="m 35.357422,12.800781 -5.648438,2.646485 c -6.534039,3.063382 -12.783946,8.924143 -16.060546,15.060546 l -2.291016,4.292969 V 180.80078 326.79883 l 2.318359,4.3457 c 3.168552,5.93734 10.323924,12.86887 15.984375,15.48438 4.682756,2.16378 4.934988,2.17161 87.121094,2.44336 58.0939,0.19215 82.81604,0.5979 83.75,1.37304 1.57999,1.31123 1.87757,23.43468 0.34766,25.85547 -0.82674,1.30817 -10.63975,1.53073 -76.73438,1.74805 -75.756105,0.24899 -75.787814,0.2505 -77.537108,2.36133 -2.264134,2.73207 -2.205918,4.04128 0.324219,7.25781 l 2.074218,2.63672 194.568361,-0.25196 194.5664,-0.2539 2.0879,-2.79492 c 1.92884,-2.5835 1.97251,-3.00117 0.57031,-5.5 l -1.51758,-2.70313 -67.46289,-0.50195 c -37.10411,-0.275 -68.02344,-0.86363 -68.71094,-1.3086 -1.81954,-1.17773 -1.75472,-25.02669 0.0723,-26.54296 0.92621,-0.76868 23.30798,-1.1803 74.75,-1.37305 72.94941,-0.27345 73.45729,-0.28943 78.12304,-2.44531 5.66045,-2.61551 12.8178,-9.54704 15.98633,-15.48438 l 2.31836,-4.3457 V 180.80078 c 0,-140.831092 -0.0668,-146.123936 -1.875,-149.499999 -3.8344,-7.159408 -8.58625,-11.856176 -15.38086,-15.201172 l -6.70312,-3.298828 H 242.87891 Z m 22,18 h 186.499998 186.5 L 436,33.572266 c 6.58609,3.235275 13.04181,9.830748 16.15625,16.507812 l 2.20117,4.720703 V 176.32031 297.8418 l -3.29297,6.6875 c -3.85632,7.83341 -9.1535,12.784 -17.1289,16.01172 l -5.57813,2.25781 -183,0.18945 C 102.453,323.13606 61.356321,322.90709 57.787109,321.93945 47.208548,319.07159 38.513494,311.34339 34.849609,301.55078 32.853422,296.21552 32.829762,294.49811 33.091797,174.9707 l 0.265625,-121.171872 2.457031,-4.957031 c 3.27919,-6.614665 9.013221,-12.168327 15.894531,-15.394531 z m 357.999998,14.519531 -172,0.01172 c -164.427536,0.01164 -172.178326,0.09118 -176.023436,1.837891 -4.95956,2.252976 -9.84628,7.038002 -12.765625,12.496094 l -2.210937,4.134765 V 176.79883 289.80078 l 2.158203,3.99805 c 3.159356,5.85494 8.96795,10.89053 15.082031,13.07226 h 0.002 c 5.652915,2.01725 340.802314,2.07373 347.498054,0.0586 6.26517,-1.88553 11.38795,-6.05116 14.83593,-12.0625 l 2.90625,-5.06641 0.008,-112.7832 c 0.0103,-124.453041 0.41435,-116.5216 -6.29102,-123.589846 -1.75963,-1.854841 -5.4492,-4.43796 -8.19922,-5.740234 z M 75.382812,69.224609 h 19 c 6.972218,0 12.235458,1.583334 15.791018,4.75 3.58333,3.138889 5.375,7.750651 5.375,13.833985 0,6.138889 -1.79167,10.777126 -5.375,13.916016 -3.55556,3.13889 -8.8188,4.70898 -15.791018,4.70898 H 83.798828 v 25 h -8.416016 z m 82.499998,0 h 8.41602 v 62.208981 h -8.41602 z m 53.16602,0 h 9.04297 l 15.45703,23.125 15.54297,-23.125 h 9.04101 l -20,29.875 21.33399,32.333981 h -9.04297 l -17.5,-26.45898 -17.625,26.45898 h -9.08203 l 22.20703,-33.208981 z m 92.5,0 h 39.33398 v 7.083985 H 311.9668 v 18.416015 h 29.625 v 7.083981 h -29.625 v 22.54102 h 31.66601 v 7.08398 h -40.08398 z m 85,0 h 8.41797 v 55.125001 h 30.29101 v 7.08398 H 388.54883 Z M 83.798828,76.140625 v 23.375 h 10.583984 c 3.916667,0 6.945098,-1.013238 9.083988,-3.041016 2.13889,-2.027777 3.20703,-4.916015 3.20703,-8.666015 0,-3.722222 -1.06814,-6.597222 -3.20703,-8.625 -2.13889,-2.027778 -5.167321,-3.042969 -9.083988,-3.042969 z M 253.05078,157.52539 c 3.91307,-0.10621 12.9769,1.22555 33.30664,4.61133 26.00224,4.33051 25.74716,4.12245 17.5957,14.23828 -2.76249,3.42826 -4.78276,6.62033 -4.49023,7.09375 0.29257,0.47342 5.11307,4.28276 10.71289,8.46484 10.21021,7.62524 14.66822,11.87886 14.67578,14.00586 0.003,0.62699 -1.99963,3.86384 -4.44922,7.19141 -2.44962,3.32757 -5.31122,6.5083 -6.36132,7.07031 -2.64745,1.41683 -6.56066,-0.73863 -19.44336,-10.71484 l -10.57813,-8.19141 -4.83008,5.94531 c -7.91251,9.73671 -7.445,10.23906 -19.22851,-20.60937 -5.603,-14.6682 -9.93656,-27.327 -9.62891,-28.12891 0.22428,-0.58445 0.94008,-0.92828 2.71875,-0.97656 z"
       transform="matrix(0.26458333,0,0,0.26458333,0,190)"
       id="path844"
       inkscape:connector-curvature="0" />
    <flowRoot
       xml:space="preserve"
       id="flowRoot1426"
       style="font-style:normal;font-weight:normal;font-size:74.66666412px;line-height:1.25;font-family:sans-serif;letter-spacing:0px;word-spacing:0px;fill:#ff0000;fill-opacity:1;stroke:none"
       transform="matrix(0.26458333,0,0,0.26458333,0,190)"><flowRegion
         id="flowRegion1428"
         style="font-size:74.66666412px;fill:#ff0000"><rect
           id="rect1430"
           width="357.01773"
           height="92.255905"
           x="67.612206"
           y="57.501972"
           style="font-size:74.66666412px;fill:#ff0000" /></flowRegion><flowPara
         id="flowPara1432"></flowPara></flowRoot>    <flowRoot
       xml:space="preserve"
       id="flowRoot1434"
       style="font-style:normal;font-weight:normal;font-size:74.66666412px;line-height:1.25;font-family:sans-serif;letter-spacing:0px;word-spacing:0px;fill:#000000;fill-opacity:1;stroke:none"
       transform="matrix(0.26458333,0,0,0.26458333,0,190)"><flowRegion
         id="flowRegion1436"
         style="font-size:74.66666412px"><rect
           id="rect1438"
           width="362.70471"
           height="90.360237"
           x="63.820866"
           y="58.133865"
           style="font-size:74.66666412px" /></flowRegion><flowPara
         id="flowPara1440"></flowPara></flowRoot>  </g>
</svg>
