<?xml version="1.0" encoding="UTF-8" standalone="no"?>
<!-- Generator: Adobe Illustrator 16.0.3, SVG Export Plug-In . SVG Version: 6.00 Build 0)  -->

<svg
   xmlns:dc="http://purl.org/dc/elements/1.1/"
   xmlns:cc="http://creativecommons.org/ns#"
   xmlns:rdf="http://www.w3.org/1999/02/22-rdf-syntax-ns#"
   xmlns:svg="http://www.w3.org/2000/svg"
   xmlns="http://www.w3.org/2000/svg"
   xmlns:sodipodi="http://sodipodi.sourceforge.net/DTD/sodipodi-0.dtd"
   xmlns:inkscape="http://www.inkscape.org/namespaces/inkscape"
   version="1.1"
   id="Layer_1"
   inkscape:version="0.92.2 (5c3e80d, 2017-08-06)"
   sodipodi:version="0.32"
   inkscape:output_extension="org.inkscape.output.svg.inkscape"
   sodipodi:docname="system.svg"
   x="0px"
   y="0px"
   width="566.931px"
   height="154.093px"
   viewBox="-0.003 -0.001 566.931 154.093"
   enable-background="new -0.003 -0.001 566.931 154.093"
   xml:space="preserve"><metadata
     id="metadata64"><rdf:RDF><cc:Work
         rdf:about=""><dc:format>image/svg+xml</dc:format><dc:type
           rdf:resource="http://purl.org/dc/dcmitype/StillImage" /><dc:title></dc:title></cc:Work></rdf:RDF></metadata><defs
     id="defs3"><inkscape:perspective
       id="perspective2709"
       inkscape:vp_z="1160 : 170 : 1"
       sodipodi:type="inkscape:persp3d"
       inkscape:vp_x="0 : 170 : 1"
       inkscape:vp_y="0 : 1000 : 0"
       inkscape:persp3d-origin="580 : 113.33333 : 1" /></defs><sodipodi:namedview
     guidetolerance="10.0"
     inkscape:zoom="0.95344828"
     showgrid="false"
     inkscape:cx="194.69246"
     gridtolerance="10.0"
     inkscape:cy="172.86342"
     bordercolor="#666666"
     pagecolor="#ffffff"
     borderopacity="1.0"
     objecttolerance="10.0"
     id="namedview2703"
     inkscape:pageopacity="0.0"
     inkscape:window-height="725"
     inkscape:pageshadow="2"
     inkscape:window-y="110"
     inkscape:current-layer="Layer_1"
     inkscape:window-x="32"
     inkscape:window-width="1280"
     inkscape:pagecheckerboard="true"
     inkscape:window-maximized="0" /><path
     style="fill:#ffffff;fill-opacity:1;stroke-width:0.99999994"
     d="m 404.30102,3.8962803 c -5.32329,1.4857618 -11.37387,1.5974657 -16.09344,4.5769199 -3.50888,5.1843718 -3.01141,11.9506218 -4.30319,17.8756708 -1.9364,13.721414 -3.65995,27.553786 -5.72107,41.207208 -10.01251,-16.342053 -18.2713,-33.710882 -28.60782,-49.850428 -4.02967,-3.936179 -10.23656,-0.79447 -15.03913,-0.341977 -6.97136,1.647716 -14.29035,2.567915 -20.91368,5.239891 -3.4178,2.976123 -4.40167,8.234787 -1.45449,11.883117 5.20371,10.283094 11.91515,20.064071 16.85852,30.307084 -3.36453,0.436371 -6.60936,2.542872 -9.79166,2.974073 -5.30006,-2.536729 -11.28698,-3.077066 -17.00314,-1.828749 -7.78126,-1.66634 -16.06578,-2.395244 -23.93086,-0.756636 -3.48117,0.496157 -5.5738,5.72355 -9.31248,4.036465 -9.2803,-5.930698 -21.67744,-5.867894 -31.55342,-1.348396 -5.41174,-2.12469 -11.30817,-3.652065 -17.07158,-1.945627 -4.92293,-0.58603 -9.80159,-1.956814 -14.852,-1.306554 -5.30815,-0.02705 -11.11734,1.342643 -15.75687,-1.929612 -9.58218,-1.65261 -20.30789,-1.636623 -28.84283,3.552791 -7.32363,-3.131418 -15.60459,-1.763765 -23.36122,-1.723986 -4.58298,-0.307971 -7.1939,3.813912 -10.73157,5.570476 C 121.0636,65.619456 113.9373,62.910808 106.54002,62.612302 97.02746,61.870262 87.341329,64.387364 79.663536,69.951534 78.175677,70.359082 79.028851,67.15786 78.714493,66.312493 79.316488,58.202913 71.879841,52.944322 65.444686,49.444927 51.489882,41.11145 31.761198,39.833098 18.836397,50.754021 7.0614064,60.122609 6.1443763,78.188026 13.592041,90.347868 c 1.728031,2.219137 4.931894,5.500794 1.688482,7.940852 -4.479086,5.77629 -11.8185036,12.33298 -8.6160459,20.34281 3.7265909,7.72591 11.2840119,13.23982 19.0401679,16.83372 9.72665,4.27581 21.112662,3.83126 31.245794,1.25958 6.773593,-1.64829 11.615519,-6.69869 17.034508,-10.55863 3.013614,0.0909 4.635934,3.81738 7.180492,5.21018 10.849427,7.35014 25.900031,9.06473 38.042281,3.84212 3.98558,-1.53253 6.50533,-5.39 10.31076,-7.0095 4.16294,1.74611 7.02543,5.87087 11.29339,7.68642 7.29057,4.29713 16.23823,4.9032 24.31027,2.60946 6.58408,0.60608 13.19123,2.01599 19.87282,1.19227 5.17604,-0.31527 9.98517,-2.65619 15.2753,-1.98136 6.89923,0.22151 13.82226,-0.18245 20.64394,-0.87594 9.70237,2.96511 20.77154,3.85357 30.2429,-0.40178 7.86977,-1.20635 15.88535,3.93508 23.57609,0.46838 4.33488,0.005 8.65393,1.4829 13.09075,1.06544 5.08163,0.28011 10.11816,-0.58948 15.10299,-1.11348 7.97542,2.80177 16.6268,2.11346 24.93923,1.71962 3.79942,-0.67097 7.0044,-3.83606 11.01077,-2.05418 5.97068,0.4384 12.80594,3.45124 18.33791,0.0605 4.52878,-2.84142 4.64804,-8.51238 6.47767,-12.76997 4.26304,6.17917 7.03309,13.47298 12.13947,19.06759 2.73542,2.40118 6.03532,2.42921 9.36087,1.31629 5.35746,-1.34716 11.42562,-1.39713 16.19052,-4.26639 1.70884,-1.08351 2.05088,-4.10786 3.55669,-4.82804 2.21624,4.0865 6.46325,6.78977 11.26875,6.69288 6.52126,0.1991 13.74094,2.63285 19.87282,-0.41817 6.5347,-3.86246 5.24621,-12.26394 6.75102,-18.55473 0.9709,-6.56464 1.74713,-13.49959 2.82335,-19.84468 4.33743,12.83558 6.99663,26.22757 12.10811,38.79791 4.30531,6.15305 13.01328,5.55334 19.75642,6.24417 6.54837,0.49758 10.72273,-5.19324 13.27878,-10.26862 5.29839,-8.94132 10.31616,-18.59756 15.65361,-27.1711 -0.4038,10.92515 -2.53071,21.83236 -1.89473,32.7656 0.89619,5.92347 7.19187,8.31625 12.6039,8.73676 6.47708,0.56574 13.16065,2.33055 19.60871,1.03396 6.28698,-1.86704 8.11832,-8.67323 8.08035,-14.37219 3.36488,-37.32064 6.70076,-74.652265 9.33256,-112.028097 0.14839,-5.618384 -4.81468,-10.072994 -10.43341,-10.187587 -7.30735,-0.795906 -14.95369,-2.423688 -22.21007,-0.726269 -5.88234,3.14027 -7.97497,10.086669 -11.43503,15.321931 -9.83585,17.570185 -18.86103,35.982505 -29.18578,53.042526 C 474.01512,60.4753 468.76129,36.313851 461.18985,12.81647 457.54022,5.9723019 448.45575,6.9440129 441.82513,5.8888568 436.21418,5.69572 429.73683,3.7171628 424.86211,7.4392446 422.84942,3.0341093 417.57666,0.03314807 412.82237,2.1851497 c -2.84045,0.5703765 -5.68091,1.1407541 -8.52135,1.7111306 z m 10.51109,7.0771927 c 2.4379,0.07204 0.12878,3.64066 0.56708,4.981211 -2.21652,14.419849 -4.0877,28.944266 -7.22828,43.195454 -2.28402,1.657328 -5.74056,0.552925 -8.4317,0.902935 -0.60435,5.051386 -2.93517,9.790007 -2.37459,14.99179 0.62199,2.744487 -1.41639,8.359728 1.103,9.099788 3.85207,-0.83952 6.93081,-0.839251 5.36645,3.705039 -0.83179,5.242038 -0.35926,11.790886 -5.6102,15.00718 -3.29533,2.75533 -10.13597,0.77626 -11.52617,5.73425 -1.08366,2.77413 0.51244,7.23301 -3.62904,7.52443 -3.73196,1.05139 -7.45562,3.43716 -11.28481,3.59142 -4.39013,-4.86564 -7.63913,-11.23665 -7.34638,-17.89123 -0.28798,-5.339301 -0.78031,-10.676668 -1.82844,-15.930148 3.55507,-2.792601 6.75186,-6.432446 10.76066,-8.46381 3.55313,4.636863 5.49602,10.606434 9.38747,14.849879 2.73424,-8.054422 2.99018,-16.913487 4.35119,-25.339212 1.26965,-8.267943 1.72622,-16.763115 3.58473,-24.884619 3.27278,-0.886388 7.29837,-0.0077 10.07126,-2.661863 0.22562,-5.316772 -0.78173,-10.989581 1.70447,-15.884923 0.59166,-3.261176 3.11254,-6.0899 2.3047,-9.660442 0.12396,-2.628359 4.88645,-1.662782 7.03017,-2.594172 1.00227,-0.145994 2.01228,-0.292789 3.02843,-0.272957 z m -12.40135,2.141064 c 1.9822,3.285064 -1.18243,6.936331 -1.37544,10.34065 -3.28358,4.658018 -0.6224,10.875446 -3.01835,15.717875 -1.79716,0.98933 -5.34935,2.282648 -6.86937,0.484768 0.16994,-8.072491 1.55225,-16.220422 3.43469,-24.085601 2.22187,-1.426823 5.19112,-2.116256 7.82847,-2.457692 z m 30.29998,0.746807 c 6.86171,0.542372 13.92413,0.908796 20.54991,2.67169 3.29895,6.760777 4.31529,14.414674 6.4978,21.578776 -7.5918,0.248448 -15.19847,0.09446 -22.79604,0.139754 -1.05516,3.353916 -2.10977,6.707995 -3.16386,10.062234 -2.74184,-0.406298 -6.28504,0.634527 -8.6533,-0.774102 0.68973,-10.321353 2.82319,-20.576926 4.36807,-30.825421 0.18078,-1.899787 0.9558,-3.30298 3.19742,-2.852931 z m 96.75087,9.862431 c 2.96491,-0.715395 2.51054,1.828871 1.46992,3.604991 -1.57187,4.947775 -3.15684,9.891577 -4.7401,14.835888 -3.81892,-0.192482 -7.99054,0.420011 -11.62689,-0.459657 2.60567,-6.02026 5.54266,-12.201066 9.51953,-17.432035 1.71145,-0.58586 3.58783,-0.552759 5.37754,-0.549187 z m 9.31583,0.969538 c 2.46554,0.318179 7.42425,-0.631133 6.8537,3.282019 -0.009,10.534184 -1.44424,21.068993 -2.29762,31.52746 -4.30575,1.111508 -8.94002,0.50286 -13.37278,0.829788 -4.18407,10.077646 -4.82793,20.982246 -4.83686,31.722497 -0.77713,2.808733 1.8104,8.985953 -3.06884,7.687922 -3.46924,0.06183 -7.89698,0.970581 -5.81064,-3.766787 0.48013,-6.908125 1.69445,-13.97461 1.06319,-20.841795 -3.37381,3.520441 -5.27726,8.629418 -8.01583,12.765707 -9.70983,16.749786 -18.39281,34.137106 -29.09867,50.295766 -3.65887,2.50828 -8.61709,0.5284 -12.68562,0.17252 -4.18607,-1.15443 -3.7332,-6.56356 -5.4346,-9.70631 -1.77093,-6.10176 -4.23939,-12.17484 -5.11117,-18.43542 1.3038,-1.19624 4.64876,0.0433 3.71671,-2.98505 0.39749,-8.43925 0.16903,-16.891761 0.23165,-25.336826 3.45281,-0.826083 7.02648,-0.511129 10.53347,-0.329728 2.49103,8.251195 3.92968,16.93943 7.18499,24.897914 3.63971,-5.13756 6.37038,-11.373914 9.60553,-16.945714 8.32098,-15.389042 16.4748,-30.863905 24.87784,-46.210749 4.66016,-0.10387 9.32032,-0.208323 13.98046,-0.313352 2.10103,-6.149144 4.20205,-12.298287 6.30308,-18.447431 1.794,0.04586 3.58801,0.09171 5.38201,0.137569 z m -195.84523,0.284965 c 3.0502,0.884323 3.92959,4.895366 5.52973,7.294467 1.78558,2.600858 -2.3417,1.789225 -3.63612,2.567966 -2.53872,2.395138 -7.8638,-0.529488 -9.17371,3.201223 -0.76672,2.524218 0.58031,6.434716 -0.80355,8.035813 -2.98118,0.03385 -7.05656,0.702941 -8.19781,-2.883503 -2.31233,-4.33443 -5.40451,-8.620731 -6.63098,-13.315866 4.24572,-2.416974 9.72651,-2.355979 14.46232,-3.655052 2.7983,-0.490685 5.59654,-1.178203 8.45012,-1.245048 z m 5.20965,10.565566 c 3.97172,0.204568 4.56399,5.332067 6.61129,7.853817 5.85291,10.616802 11.61256,21.282162 17.36548,31.950752 -2.91192,2.581763 -5.47878,6.270696 -9.21289,7.584891 -3.34711,-2.840608 -4.18793,-7.854693 -7.75349,-10.710781 -3.96783,-4.334301 -9.86157,-5.759929 -15.1567,-7.765036 -4.31776,-4.449673 -6.71855,-10.447777 -9.97502,-15.67093 -0.7733,-2.053162 4.32963,-0.623622 5.54171,-1.251414 2.93117,-0.645091 0.71379,-6.240971 1.58991,-8.862186 0.44685,-2.201129 4.60381,-0.160922 6.54556,-1.494655 1.40515,-0.793155 2.67509,-1.875882 4.44415,-1.634458 z m 108.08118,4.462278 c 1.90886,0.02984 5.03825,-0.383767 4.80125,2.482954 3.25203,12.437671 6.87502,25.083891 9.5161,37.493031 -3.57895,0.33529 -7.18579,0.141027 -10.77634,0.195435 -0.0419,9.316842 -0.0979,18.634566 0.0672,27.950648 -2.00527,0.29186 -4.75848,0.21893 -4.43429,-2.53331 -3.73176,-13.986521 -7.67774,-28.02344 -12.36085,-41.696407 -1.91745,5.17597 -1.94273,11.248126 -3.00317,16.769134 -1.09952,7.662392 -2.12229,15.335571 -3.28983,22.988483 -4.76396,0.1158 -9.66336,0.27887 -14.00062,-1.90741 -1.73243,-0.82099 -6.12099,0.73575 -4.99031,-2.522115 1.73427,-16.641844 4.33865,-33.183522 6.6489,-49.755435 3.47907,-0.106268 6.95814,-0.212541 10.43722,-0.318812 1.34263,-2.779559 1.56284,-7.047733 3.56669,-8.951966 5.93928,-0.06467 11.8783,-0.199569 17.8181,-0.19423 z M 43.10749,52.034729 c 10.365007,-0.111244 20.988159,4.741001 26.992876,13.006881 -1.401837,3.642027 -3.884035,7.246023 -6.747378,9.949779 -6.584716,-2.351852 -12.409493,-8.487529 -19.975783,-7.400372 -3.629968,1.011847 -2.173792,5.62319 0.510336,6.918877 9.045258,6.724395 21.52874,11.302841 25.676749,22.540668 2.751636,8.949958 1.667725,20.151648 -6.61196,26.051988 -9.889973,7.42509 -24.275104,8.02518 -35.386532,2.93263 -5.248919,-2.74503 -9.789069,-6.77911 -13.032548,-11.65739 2.896049,-3.4609 4.673623,-8.57532 8.954351,-10.57431 6.246143,3.85672 12.898802,9.23379 20.759188,8.61777 4.414333,-0.79061 3.632782,-6.56605 0.232783,-8.19195 C 35.821852,97.026978 23.940448,92.18255 19.247127,81.418943 16.54717,73.099666 17.515617,62.526684 25.284902,57.038913 30.323327,53.03279 36.70364,51.535659 43.10749,52.034729 Z m 362.11571,9.148378 c 3.60643,-0.340887 1.90148,3.890563 1.85948,5.906118 -0.9482,4.919717 -0.76745,10.369161 -2.94506,14.906199 -2.32332,1.20207 -6.21418,0.295143 -5.61815,-2.940273 0.009,-5.105355 -0.43867,-10.546704 2.20473,-15.119559 -0.31358,-2.548591 2.54554,-2.923119 4.499,-2.752485 z m 137.62684,-0.01201 c -1.06904,20.847325 -3.32568,41.640143 -5.54448,62.400323 0.0252,4.36029 -5.98574,0.84139 -7.56976,3.94536 -1.42833,2.41207 -5.68065,0.73721 -6.01211,3.93274 -0.89766,3.97725 -0.31357,8.33459 -1.0699,12.1913 -3.10383,0.0366 -7.59545,0.80443 -9.68516,-1.95983 -0.49511,-5.69277 1.13842,-11.47945 1.04194,-17.23879 0.59783,-7.53367 0.93919,-15.47069 2.14654,-22.72738 3.48814,-0.49486 7.03324,-0.22018 10.54577,-0.29479 0.6716,-13.03223 -1.0859,-26.562476 3.80879,-39.032453 1.40673,-2.270074 5.19392,-0.750498 7.50699,-1.21648 1.61046,0 3.22091,0 4.83138,0 z m -358.18299,9.716131 c 4.17075,-0.535512 3.26518,4.428021 3.53204,6.960367 0.66572,16.653814 1.86119,33.339025 1.53549,49.998915 -1.13879,3.41834 -6.18505,1.55945 -8.88609,2.07804 -2.92729,-0.6403 -8.08418,1.35813 -9.46659,-1.09372 -0.0354,-1.85904 -0.82254,-3.95251 -2.86254,-2.00674 -10.07851,6.11779 -25.28379,4.1267 -31.40405,-6.438 -5.84116,-10.19328 -3.25906,-22.345872 -2.83146,-33.429421 0.64744,-4.204456 0.35861,-8.874367 2.22599,-12.732831 5.93502,-1.090036 12.29094,-1.756297 18.26012,-0.762092 2.20481,2.394047 0.2532,6.321157 0.42976,9.243364 -0.72791,8.764459 -2.57316,17.86159 -0.45327,26.52364 3.38446,6.44317 15.21547,2.6147 14.07842,-4.59593 0.27308,-11.036912 0.0781,-22.080443 0.13819,-33.119978 5.23331,-0.201715 10.46449,-0.670005 15.70399,-0.625614 z m -80.83875,0.355934 c 9.36318,-0.370272 18.43795,4.823468 22.45258,13.120775 0.86751,2.152782 3.11966,6.121539 0.39384,7.718841 -3.61967,1.14899 -7.43108,2.35795 -11.12439,2.900969 -3.77952,-2.634297 -7.03339,-8.24562 -12.55468,-6.483241 -8.244354,1.718959 -9.046563,12.136794 -6.079239,18.374284 2.512412,5.52589 10.843719,5.91221 14.302789,1.06889 1.92839,-2.92779 4.25695,-4.58753 7.74176,-2.82135 2.93631,1.17295 7.11446,1.34392 8.98064,4.03545 -0.47485,5.29761 -3.92199,10.20798 -7.63934,13.97534 -10.2423,8.79272 -27.620594,7.8232 -36.651181,-2.2568 C 75.365475,112.15173 75.270556,98.728148 78.262356,87.847592 81.300307,77.144079 92.874733,70.770665 103.8283,71.243159 Z m 103.92242,2.231688 c 2.97419,-0.283034 7.78478,0.193876 6.82571,4.301778 0.47559,2.071294 3.31679,-1.552048 4.50491,-1.602814 5.06733,-3.480136 12.11547,-2.385224 16.15578,2.092733 2.42765,1.914777 5.19188,-2.619792 7.93035,-3.191086 6.70986,-2.840273 15.16864,-1.884619 21.23817,2.031877 8.95912,7.137709 8.95168,19.675258 8.60294,29.995642 -0.29107,7.29228 -1.4911,14.50373 -2.4946,21.72398 -6.34951,-0.66149 -13.00057,-0.98159 -19.03232,-2.93154 0.72433,-10.73999 4.51897,-21.60541 2.1969,-32.405289 -1.23644,-4.38716 -7.88618,-2.513068 -7.93369,1.552577 -1.87827,11.338752 -1.30862,22.886522 -1.43139,34.327982 -6.10432,-0.26214 -12.37495,0.2981 -18.37875,-0.73589 -0.63526,-11.71218 -0.0545,-23.53727 -1.42469,-35.181786 -0.93104,-3.390677 -6.85259,-3.485714 -6.75632,0.539357 -1.52466,10.918679 -0.57257,22.124479 -2.06708,32.990509 -3.75256,2.01395 -8.57998,0.99735 -12.73812,1.5309 -2.31529,0.18895 -6.14362,0.30705 -5.50186,-3.06709 -0.73669,-17.06883 -0.54552,-34.165386 -0.86175,-51.245783 3.64862,-0.845306 7.44365,-0.678138 11.16581,-0.726057 z m 82.9584,0.0011 c 2.66621,-0.15923 6.86657,-0.251405 6.32098,3.557156 -0.47503,2.027367 1.68806,2.074944 2.39836,0.508791 5.45052,-4.876616 15.00252,-4.509625 19.27854,1.710883 5.01764,-3.554245 10.82699,-6.77478 17.28439,-5.647509 9.23122,-0.04757 17.48186,7.224362 18.45429,16.184039 1.90034,12.1467 1.04989,24.66186 -1.13444,36.71209 -0.93279,3.39233 -5.3486,1.29004 -7.84415,1.57223 -3.83756,-0.67172 -8.41189,-0.50361 -11.65935,-2.64439 0.78316,-10.56077 5.09351,-21.32443 2.31778,-31.898698 -1.17152,-3.789503 -6.52211,-3.015109 -7.48267,0.489136 -2.01812,7.401052 -1.17474,15.300982 -1.69395,22.912292 -0.0956,4.14624 -0.1913,8.2925 -0.28695,12.43874 -6.05565,-0.26053 -12.26905,0.29383 -18.22879,-0.73589 -0.65249,-11.7075 -0.0222,-23.53057 -1.3911,-35.170879 -0.9574,-3.429348 -6.94757,-3.488079 -6.78319,0.603779 -1.52664,11.03133 -0.38416,22.44928 -2.18795,33.353 -5.62461,0.86529 -11.67112,1.5496 -17.25625,0.68347 -2.06507,-7.99426 -1.11065,-16.50656 -1.51138,-24.71443 0.20719,-9.735357 -0.6072,-19.588655 0.54332,-29.252167 3.12633,-1.227566 7.44789,-0.37393 10.86251,-0.661643 z m 110.59704,28.75096 c -1.55452,10.04317 -3.03945,20.21042 -5.4917,30.0677 -3.25935,2.8768 -8.43261,2.22031 -12.4461,3.54078 -3.95518,-0.17829 -5.15473,-5.15264 -7.20648,-7.76346 -0.87132,-2.09997 -3.16793,-4.47392 -3.0405,-6.61584 4.67325,-2.20944 9.62142,-3.80156 14.4438,-5.66655 0.13033,-3.37579 -1.146,-8.38664 3.3418,-9.58513 3.51762,-0.9052 7.32973,-1.10329 10.04216,-3.85303 0.10854,-0.0161 0.23069,-0.15957 0.35702,-0.12447 z m 19.47887,0.88329 c 3.35285,0.16307 6.20432,2.3573 9.72209,1.67406 2.12881,-0.01 6.82016,-0.595 5.82744,2.90831 -0.73274,2.38436 0.17357,6.01464 -1.93725,7.63512 -6.29088,-0.83763 -12.59233,-1.59677 -18.89916,-2.3114 0.5957,-3.06689 0.005,-6.74075 1.49407,-9.465 1.18156,-0.49639 2.53072,-0.46255 3.79281,-0.44109 z m -5.11342,11.46305 c 6.36349,0.61848 12.93018,1.11862 19.0883,2.56359 -0.23161,5.54686 -0.80919,11.37612 -2.67478,16.60224 -4.85111,1.41112 -10.20392,-0.16755 -15.20138,-0.39299 -2.44337,0.0928 -5.06122,-1.5577 -4.00106,-4.26472 0.65834,-4.82231 1.04677,-9.86978 2.32,-14.50157 l 0.18689,-0.01 z m 121.59609,13.12039 c -0.93121,5.47428 -0.11983,11.47277 -2.36364,16.60771 -3.11754,1.38601 -7.0055,0.15901 -10.13842,-0.55791 -0.2741,-4.12208 0.39016,-8.25023 0.60769,-12.36599 2.5403,-0.35687 5.13632,-1.1418 6.4385,-3.38027 1.73175,-0.573 3.66304,-0.18317 5.45587,-0.30354 z"
     id="path1526"
     inkscape:connector-curvature="0" /></svg>