<?xml version="1.0" encoding="UTF-8" standalone="no"?>
<!-- Generator: Adobe Illustrator 13.0.0, SVG Export Plug-In . SVG Version: 6.00 Build 14948)  -->

<svg
   xmlns:ns="&amp;#38;#38;#38;#38;#38;ns_sfw;"
   xmlns:dc="http://purl.org/dc/elements/1.1/"
   xmlns:cc="http://creativecommons.org/ns#"
   xmlns:rdf="http://www.w3.org/1999/02/22-rdf-syntax-ns#"
   xmlns:svg="http://www.w3.org/2000/svg"
   xmlns="http://www.w3.org/2000/svg"
   xmlns:sodipodi="http://sodipodi.sourceforge.net/DTD/sodipodi-0.dtd"
   xmlns:inkscape="http://www.inkscape.org/namespaces/inkscape"
   version="1.1"
   id="svg2"
   x="0px"
   y="0px"
   width="290.74826"
   height="110.52657"
   viewBox="0.25 0 290.74826 110.52658"
   enable-background="new 0.25 0 567.927 113.032"
   xml:space="preserve"
   inkscape:version="0.92.2 (5c3e80d, 2017-08-06)"
   sodipodi:docname="system.svg"><defs
     id="defs21" /><sodipodi:namedview
     pagecolor="#ffffff"
     bordercolor="#666666"
     borderopacity="1"
     objecttolerance="10"
     gridtolerance="10"
     guidetolerance="10"
     inkscape:pageopacity="0"
     inkscape:pageshadow="2"
     inkscape:window-width="1366"
     inkscape:window-height="768"
     id="namedview19"
     showgrid="false"
     inkscape:zoom="1.8078363"
     inkscape:cx="169.93086"
     inkscape:cy="94.428491"
     inkscape:window-x="0"
     inkscape:window-y="0"
     inkscape:window-maximized="0"
     inkscape:current-layer="g4889"
     fit-margin-top="0"
     fit-margin-left="0"
     fit-margin-right="0"
     fit-margin-bottom="0"
     inkscape:pagecheckerboard="true" /><metadata
     id="metadata3"><ns:sfw><ns:slices /><ns:sliceSourceBounds
         x="677.036"
         y="482.984"
         width="567.927"
         height="113.032"
         bottomLeftOrigin="true" /></ns:sfw><rdf:RDF><cc:Work
         rdf:about=""><dc:format>image/svg+xml</dc:format><dc:type
           rdf:resource="http://purl.org/dc/dcmitype/StillImage" /><dc:title></dc:title><dc:creator><cc:Agent><dc:title>UDb23</dc:title></cc:Agent></dc:creator></cc:Work></rdf:RDF></metadata><g
     transform="matrix(0.77798037,0,0,0.77798037,-1.6802734,-214.16344)"
     id="g4889"><path
       inkscape:connector-curvature="0"
       d="m 151.07266,347.14167 c 0,-2.80338 0.51882,-4.1721 2.73589,-5.99213 l 3.40344,-2.79995 c 2.18364,-1.74501 3.29506,-1.78707 5.97792,-1.78707 h 7.31992 c 1.53685,0 3.18553,0.32399 3.18553,2.2884 0,1.96327 -1.832,2.23837 -3.18553,2.23837 h -8.13734 c -0.91312,0 -1.82739,0.4911 -2.65635,1.14135 l -2.78431,2.36004 c -0.72404,0.55929 -1.24631,1.02425 -1.24631,1.92574 v 5.64539 c 0,0.8924 0.52227,1.38805 1.24631,1.93826 l 2.78431,2.32705 c 0.82896,0.67071 1.74323,1.155 2.65635,1.155 h 8.13734 c 1.35353,0 3.18553,0.27056 3.18553,2.25316 0,1.97464 -1.64868,2.29181 -3.18553,2.29181 h -7.31992 c -2.68286,0 -3.79428,-0.0444 -5.97792,-1.78935 l -3.40344,-2.81361 c -2.21707,-1.80524 -2.73589,-3.16372 -2.73589,-5.97506 z"
       style="fill:#ffffff;fill-opacity:1;fill-rule:nonzero;stroke:none;stroke-width:4.50279665"
       id="path3053" /><path
       inkscape:connector-curvature="0"
       d="m 205.31434,350.68168 c -1.2417,0 -3.09561,0.33537 -3.09561,2.00194 v 3.03527 c 0,1.54606 1.88389,1.86323 3.01029,1.86323 h 5.08441 l 5.09938,-2.64422 v -0.96855 c 0,-2.52486 -0.72173,-3.28767 -3.26393,-3.28767 z m 0.0507,-9.59239 c -1.34316,0 -3.17054,-0.2751 -3.17054,-2.23837 0,-1.96441 1.61986,-2.2884 3.17054,-2.2884 h 6.33879 c 2.41653,0 4.14476,0.22167 5.97791,2.0292 1.78127,1.74956 2.0107,3.12169 2.07874,5.41121 l 0.47038,15.47312 c 0.045,1.32779 -0.62257,2.65104 -2.15251,2.65104 -1.20366,0 -2.41884,-1.00836 -2.38425,-2.29181 l -3.15325,1.62108 c -1.31319,0.67073 -1.35814,0.67073 -2.85004,0.67073 h -4.42953 c -2.06258,0 -3.55793,-0.24215 -5.23543,-1.60972 -1.92885,-1.5654 -2.40271,-3.22173 -2.40271,-5.60448 v -1.98714 c 0,-2.18722 0.53958,-3.55935 2.25052,-5.07813 1.61294,-1.38463 3.37116,-1.71317 5.38762,-1.71317 h 9.91516 v -1.03904 c 0,-3.41043 -0.76785,-4.00612 -4.09405,-4.00612 z"
       style="fill:#ffffff;fill-opacity:1;fill-rule:nonzero;stroke:none;stroke-width:4.50279665"
       id="path3055" /><path
       inkscape:connector-curvature="0"
       d="m 263.22348,342.23064 v -2.29749 c 0,-1.61881 0.28823,-3.37063 2.35082,-3.37063 1.64867,0 2.26434,1.27437 2.26434,2.74426 v 3.22171 c 0,0.75712 -0.19369,1.14705 -0.53727,1.85641 l -6.8795,14.90244 c -0.43926,0.94127 -1.24285,2.83975 -2.41423,2.83975 h -2.97454 c -1.15523,0 -1.97727,-1.89848 -2.39924,-2.83975 l -6.8772,-14.90244 c -0.35856,-0.70936 -0.52689,-1.09929 -0.52689,-1.85641 v -3.22171 c 0,-1.46989 0.62835,-2.74426 2.23206,-2.74426 2.08103,0 2.36466,1.75182 2.36466,3.37063 v 2.29749 l 6.69733,15.14457 z"
       style="fill:#ffffff;fill-opacity:1;fill-rule:nonzero;stroke:none;stroke-width:4.50279665"
       id="path3057" /><path
       inkscape:connector-curvature="0"
       d="m 296.50498,348.09204 h 13.35662 v -2.78405 c 0,-0.83896 0.0507,-1.53014 -0.57529,-2.1065 l -1.77204,-1.51651 c -0.57878,-0.53544 -1.48266,-0.59569 -2.21824,-0.59569 h -3.91648 c -0.84856,0 -1.56799,0 -2.33237,0.53772 l -1.60488,1.15613 c -0.55686,0.41835 -0.93732,0.76165 -0.93732,2.07581 z m 3.82194,14.03505 c -1.90695,0 -2.6817,0 -4.12748,-1.23686 l -1.96804,-1.70521 c -1.82392,-1.6029 -2.35888,-2.65559 -2.35888,-5.11338 v -8.79206 c 0,-2.41345 0.33088,-3.85492 2.24706,-5.45101 l 1.64175,-1.36757 c 2.18251,-1.85642 3.23856,-1.89848 5.12246,-1.89848 h 4.20932 c 2.27012,0 3.34118,0.22167 5.1017,1.65633 l 1.87697,1.47443 c 2.13405,1.64498 2.40615,3.41386 2.40615,5.92165 v 3.66962 c 0,2.58283 -0.42776,3.36154 -3.17747,3.36154 h -14.79548 v 1.51879 c 0,0.43084 0.31359,0.9765 0.66754,1.32323 l 1.15984,1.22776 c 0.63064,0.65934 1.52878,0.86625 3.04719,0.86625 h 9.92091 c 1.56336,0 3.17747,0.32854 3.17747,2.25316 0,2.00988 -1.81472,2.29181 -3.17747,2.29181 z"
       style="fill:#ffffff;fill-opacity:1;fill-rule:nonzero;stroke:none;stroke-width:4.50279665"
       id="path3059" /><path
       inkscape:connector-curvature="0"
       d="m 107.61931,384.09835 c -4.54945,5.1145 -8.528184,4.9906 -8.694224,4.98377 l -0.0173,0.007 c -0.0139,0 -0.0335,-0.007 -0.0335,-0.007 l -5.5179,-0.12277 c 1.24631,-0.93106 2.55027,-2.11106 3.87037,-3.58551 0.0358,-0.0557 0.0864,-0.12163 0.13835,-0.1762 9.864434,-14.34425 6.590134,-24.00145 3.760844,-28.48957 -0.13604,-0.21372 -0.28938,-0.42176 -0.44502,-0.60933 l 2.0914,0.68322 c 4.33961,1.16069 7.76611,4.17778 9.21994,8.10431 1.41234,3.75261 1.78243,10.15853 -4.37304,19.21208 m -22.233024,23.67632 c -1.77089,0.27056 -3.930317,0.55931 -6.045939,0.79236 4.323469,-4.92921 6.116269,-12.34916 6.610879,-16.14156 l 10.8398,0.27056 c -0.56954,4.13913 -2.80507,13.77244 -11.40474,15.07864 m -16.97106,1.9735 C 64.1032,409.41281 52.72614,408.276 45.946943,407.57004 l -5.068268,-0.49452 c -2.410758,-0.21371 -4.748899,-2.72946 -6.373374,-5.04743 6.677752,0.49338 22.320643,1.38578 25.402403,1.35054 4.248532,-0.13187 9.1381,-2.22474 10.237984,-6.06374 0.728654,-2.48507 0.772458,-2.81133 0.89352,-4.24825 0.08074,-0.77417 0.166023,-1.97351 0.495753,-4.43242 0.823189,-5.99099 3.900348,-7.16191 4.432998,-7.31878 1.137939,-0.067 5.853401,-0.60819 9.919767,-4.76892 0.045,-0.067 0.0807,-0.13072 0.14528,-0.18643 3.79773,-4.92921 2.1479,-12.63109 2.10408,-12.96531 -0.0184,-0.0557 -0.65601,-4.10842 -3.97529,-6.35249 -2.087944,-1.44374 -4.658969,-1.83708 -7.653112,-1.23116 -1.039941,0.21485 -2.000329,0.57864 -2.841962,0.99584 2.24935,-2.83747 5.336888,-4.59953 8.977826,-5.12928 2.200948,-0.29898 4.362678,-0.11254 6.428718,0.46609 0.15218,0.0727 0.28478,0.14779 0.44964,0.19326 l 1.90117,0.64571 c 2.66211,1.19138 5.00024,3.16601 6.5613,5.63175 2.363504,3.73441 4.999094,11.83873 -3.6248,24.45163 -4.81692,5.43736 -9.09312,5.68745 -9.83099,5.70791 l -0.16948,-0.0205 c -0.10607,0 -0.17179,0.0307 -0.27325,0.0307 -0.0151,0 -0.0287,0 -0.045,0.0181 -0.71828,0.11142 -1.328165,0.64115 -1.513789,1.33008 0,0 0,0.0193 -0.01389,0.0285 0,0.0739 -0.01842,0.1421 -0.01842,0.2069 -0.01727,0.0625 -0.01727,0.10004 -0.01727,0.14779 -0.112987,2.19858 -1.694792,12.09905 -7.089336,16.83955 -1.177131,1.06063 -2.4419,1.74045 -3.854238,2.10422 -0.298602,0.0273 -0.446171,0.0273 -0.484216,0.0534 -0.216763,0.0295 -0.382776,0.0785 -0.552253,0.16031 -0.688294,0.0864 -1.361607,0.10458 -2.083336,0.075 M 24.647937,380.94947 c -3.975294,-0.65822 -3.929181,-5.5192 -3.929181,-5.69995 0,0.0364 2.249361,-45.4485 2.249361,-45.4485 0,-0.22622 0.156801,-4.34261 4.121711,-5.62834 0.194848,-0.0625 0.380465,-0.13869 0.545331,-0.29899 3.378079,-2.57258 4.047926,-5.18611 4.818079,-10.99748 0.290534,-3.92313 2.966473,-5.73179 3.07255,-5.7875 13.120286,-7.12324 38.379721,-20.79337 39.281315,-21.25151 0.945398,-0.46836 2.396929,-0.88443 3.375761,-0.43767 0.58915,0.27966 1.039942,0.93332 1.32011,1.90757 0.242103,5.07699 1.318942,19.47695 1.418096,21.04347 -0.03347,0.7162 -0.588001,7.08573 -6.477141,8.5579 -1.776651,0.46723 -3.188989,0.3706 -4.130933,-0.29898 -1.466512,-0.99357 -1.675201,-3.06256 -1.675201,-3.0728 -0.01264,-0.083 -0.01264,-0.13073 -0.03916,-0.19325 l -0.763236,-3.86743 c -0.268631,-1.3619 -1.038784,-2.46801 -2.199777,-3.16033 -2.573332,-1.55288 -6.31573,-0.58545 -6.748078,-0.48201 -0.121052,0.0387 -0.216753,0.0819 -0.318204,0.1387 -0.119903,0.0476 -10.859409,5.41462 -15.165577,7.48133 -5.133981,2.44756 -4.672818,9.72427 -4.653211,10.02893 0,-0.12049 -0.282468,50.87221 -0.282468,50.87221 0,0.47859 0.06455,4.51882 2.498387,6.89361 1.103346,1.05382 2.58025,1.61086 4.210479,1.56539 4.979492,-0.11255 15.640592,-0.85942 16.082162,-0.87535 0.132579,-0.0204 0.229438,-0.0273 0.342416,-0.0466 0.320518,-0.10345 7.988624,-2.15198 8.54433,-8.54313 0.314759,-3.4343 0.758626,-7.00842 0.772458,-7.03798 0.01958,-0.14096 1.227872,-5.86025 6.321489,-6.93226 1.983043,-0.39106 3.582144,-0.19554 4.766201,0.63434 2.01762,1.37668 2.47533,4.03567 2.47533,4.05386 0.0277,0.18531 1.35583,6.43434 -1.32817,10.02893 -3.447249,3.45703 -7.303783,3.56845 -7.464037,3.56845 -0.103775,0 -0.207531,0.0261 -0.29976,0.0454 -0.261714,0.0534 -6.273073,1.18114 -7.520536,10.44159 -0.328583,2.551 -0.443876,3.80148 -0.510754,4.62113 -0.10145,1.19138 -0.10145,1.26527 -0.778217,3.54798 -0.547641,1.95304 -3.940698,3.34108 -6.776892,3.3877 -3.236265,0.0739 -22.582349,-1.05269 -27.218267,-1.47899 -1.81009,-0.17963 -2.532972,-4.43356 -2.532972,-6.77425 0.221362,-1.05951 0.864688,-4.97923 -1.072222,-7.81215 -0.975377,-1.44262 -2.479947,-2.36456 -4.331538,-2.69311 m 63.664475,-98.82732 c 1.53224,0.70709 4.19204,2.62489 5.00831,7.1062 0.33781,7.03343 1.46075,20.63762 1.47689,20.7513 0.0231,0.51271 0.55456,13.38252 -14.484198,18.28445 -2.046439,0.67753 -3.894579,0.70709 -5.569779,0.12845 -0.439265,-0.21372 -0.704442,-0.33536 -0.704442,-0.33536 -0.104914,-0.0545 -0.186772,-0.075 -0.304371,-0.1114 -0.04727,-0.0181 -0.10145,-0.0466 -0.15219,-0.067 -3.653613,-2.01897 -5.560547,-6.75037 -6.308803,-9.03309 0.266325,0.25352 0.561474,0.49339 0.880835,0.72528 1.90348,1.33349 4.324621,1.63246 7.215008,0.86853 7.063976,-1.80753 9.13924,-8.67385 9.25568,-12.06268 v -0.15687 c -0.0151,-0.18645 -1.20249,-16.33595 -1.44462,-21.30381 0,-0.13642 -0.0126,-0.25919 -0.0461,-0.36036 -0.54073,-1.97465 -1.445777,-3.12169 -2.364657,-3.82991 l 1.630239,-0.86398 c 1.587568,-0.80373 3.918788,-0.74802 5.912208,0.26032 m 18.362644,18.74599 c 0.30667,6.24108 1.2636,18.12869 1.2636,18.23896 0.0358,0.43653 0.48308,11.72619 -12.736374,16.10404 -1.96228,0.65253 -6.56475,-0.30012 -7.66926,-0.89354 -0.0323,-0.0193 -2.80276,-1.28686 -5.799216,-2.69309 17.526776,-5.8864 16.755466,-21.74488 16.755466,-21.88698 -0.0139,-0.18872 -1.07452,-13.04035 -1.44576,-20.12835 l 5.509834,5.09177 c 1.82739,1.53015 3.58559,3.18079 4.12171,6.16719 m -52.601077,70.05244 -0.171782,-44.83574 10.41783,4.17208 1.212871,39.4791 z m 12.12877,-43.84217 -9.309872,-3.71623 7.024773,-2.88409 c 0.585686,1.65519 1.615248,4.08456 3.225895,6.3127 z m -5.399146,51.23825 c -1.468826,0.10004 -11.179918,0.73325 -15.714376,0.85602 -0.652545,0.0261 -1.136781,-0.1512 -1.542602,-0.54112 -1.142557,-1.07884 -1.396203,-3.48318 -1.396203,-4.23803 l 0.267482,-51.01089 c 0,-0.20463 -0.228284,-5.29185 2.60677,-6.65033 4.008714,-1.8996 13.574532,-6.68785 15.000712,-7.41541 0.910806,-0.21372 2.786621,-0.43654 3.676678,0.11141 0.201762,0.1205 0.40121,0.30922 0.503818,0.76393 l 0.755172,3.77307 c 0.01379,0.3365 0.170634,1.23003 0.607593,2.28271 -0.387386,-0.10458 -0.817429,-0.10458 -1.1829,0.0761 l -13.066113,5.34414 c -0.131421,0.0818 -0.285917,0.16939 -0.423116,0.26715 -0.03232,0.0206 -0.04958,0.0387 -0.08074,0.0761 -0.115303,0.10346 -0.214448,0.2035 -0.319371,0.34446 v 0.0102 c -0.07264,0.0932 -0.123367,0.20349 -0.19254,0.30693 -0.01264,0.0637 -0.01264,0.10345 -0.0299,0.11141 -0.01505,0.0387 -0.01505,0.0774 -0.03347,0.1205 -0.03231,0.14211 -0.04611,0.29899 -0.04611,0.45699 0,0.0205 -0.01727,0.0205 -0.01727,0.0205 v 0.0193 l 0.21329,49.53645 c 0,0.52294 0.225965,0.99926 0.626037,1.36191 0.381608,0.3274 0.886594,0.50247 1.426171,0.45927 l 13.974603,-1.44602 c -0.500374,3.29675 -4.780024,4.75073 -5.613592,5.0031 m 54.63713,-14.71823 c -1.88042,-5.00878 -6.19582,-8.86712 -11.61688,-10.312 0.098,0.0295 -7.602384,-2.55213 -11.257154,-3.76965 -3.2282,-1.38919 -6.85991,-1.9485 -10.442056,-1.4267 -5.836105,0.79236 -10.501994,4.17322 -13.278236,9.39914 l -0.809365,-27.15837 1.836612,-0.59682 c 0.586844,0.49109 1.215187,0.91854 1.878121,1.31074 0.489995,0.28988 1.00997,0.49791 1.534547,0.70936 l 12.586487,5.84093 c 1.77665,0.95037 7.43059,2.07581 10.48701,1.03336 15.993374,-5.23614 15.280874,-19.6236 15.267044,-19.76456 0,-0.16825 -0.99037,-12.18206 -1.26131,-18.35606 -0.009,-0.058 -0.009,-0.16028 -0.0265,-0.21713 -0.72406,-4.01405 -2.97919,-6.35929 -5.31847,-8.30778 0.0438,0.0853 -12.370904,-11.4454 -12.370904,-11.4454 -0.1026,-0.066 -0.1983,-0.11027 -0.33203,-0.1796 -0.71136,-0.57524 -1.49997,-1.10613 -2.35082,-1.51537 -3.07716,-1.5006 -6.62702,-1.56425 -9.3018,-0.20463 0,0 -43.07791,23.18977 -47.033595,25.33378 -0.270935,0.15915 -4.434146,2.83293 -4.831908,8.54994 -0.763239,5.38394 -1.264761,6.77197 -3.240877,8.31804 -6.093206,2.26338 -6.290357,8.55903 -6.290357,8.86711 0,-0.0751 -2.234366,45.40643 -2.234366,45.40643 -0.07956,2.8568 1.255527,8.47377 6.995942,9.44915 0.854321,0.1421 1.46307,0.47974 1.881582,1.10044 1.034166,1.51764 0.704426,4.25734 0.487684,5.17475 -0.01501,0.12731 -0.03686,0.2626 -0.03686,0.36946 -0.01727,0.82987 0,6.78675 3.040264,9.44234 0.518818,1.10157 4.831909,9.48781 11.122265,10.0653 l 5.057887,0.49679 c 6.795344,0.68891 18.183932,1.84504 22.553525,2.16334 1.435393,0.10005 2.801611,0 4.092888,-0.3183 2.298932,-0.24328 9.226856,-1.0254 13.703666,-1.67566 11.49813,-1.73477 14.04839,-14.3056 14.605264,-18.79485 2.15943,-0.41153 6.00444,-1.72796 9.91747,-6.18425 0.083,-0.0774 0.11414,-0.1421 0.14872,-0.1887 7.14006,-10.35634 6.5786,-18.00366 4.83652,-22.61455"
       style="fill:#ffffff;fill-opacity:1;fill-rule:nonzero;stroke:none;stroke-width:4.50279665"
       id="path3061" /></g></svg>