<?xml version="1.0" encoding="UTF-8" standalone="no"?>
<!-- Generator: Gravit.io -->

<svg
   xmlns:dc="http://purl.org/dc/elements/1.1/"
   xmlns:cc="http://creativecommons.org/ns#"
   xmlns:rdf="http://www.w3.org/1999/02/22-rdf-syntax-ns#"
   xmlns:svg="http://www.w3.org/2000/svg"
   xmlns="http://www.w3.org/2000/svg"
   xmlns:sodipodi="http://sodipodi.sourceforge.net/DTD/sodipodi-0.dtd"
   xmlns:inkscape="http://www.inkscape.org/namespaces/inkscape"
   style="isolation:isolate"
   viewBox="0 0 416.932 105.32"
   width="416.93201"
   height="105.32"
   version="1.1"
   id="svg53"
   sodipodi:docname="system.svg"
   inkscape:version="0.92.2 (5c3e80d, 2017-08-06)">
  <metadata
     id="metadata59">
    <rdf:RDF>
      <cc:Work
         rdf:about="">
        <dc:format>image/svg+xml</dc:format>
        <dc:type
           rdf:resource="http://purl.org/dc/dcmitype/StillImage" />
        <dc:title></dc:title>
      </cc:Work>
    </rdf:RDF>
  </metadata>
  <defs
     id="defs57" />
  <sodipodi:namedview
     pagecolor="#ffffff"
     bordercolor="#666666"
     borderopacity="1"
     objecttolerance="10"
     gridtolerance="10"
     guidetolerance="10"
     inkscape:pageopacity="0"
     inkscape:pageshadow="2"
     inkscape:window-width="1440"
     inkscape:window-height="837"
     id="namedview55"
     showgrid="false"
     inkscape:pagecheckerboard="true"
     inkscape:zoom="2.3744879"
     inkscape:cx="208.466"
     inkscape:cy="45.16"
     inkscape:window-x="-8"
     inkscape:window-y="-8"
     inkscape:window-maximized="1"
     inkscape:current-layer="svg53" />
  <path
     d="m 325.53779,70.94983 4.31237,8.097768 h 11.79049 l -4.31237,-8.097768 z"
     id="path5"
     inkscape:connector-curvature="0"
     style="fill:#ffffff;stroke-width:1.08768499" />
  <path
     d="m 361.33681,70.94983 -4.31139,8.097768 h 11.78952 l 4.31139,-8.097768 z"
     id="path7"
     inkscape:connector-curvature="0"
     style="fill:#ffffff;stroke-width:1.08768499" />
  <path
     d="m 2.404872,70.135374 v 7.404995 h 52.39063 5.23255 c 0,-4.044622 -2.33692,-7.335596 -5.23255,-7.404995 z"
     id="path9"
     inkscape:connector-curvature="0"
     style="fill:#ffffff;stroke-width:1.08768499" />
  <path
     d="m 66.030182,70.135374 v 7.404995 h 37.922158 v -7.404995 z"
     id="path11"
     inkscape:connector-curvature="0"
     style="fill:#ffffff;stroke-width:1.08768499" />
  <path
     d="m 114.66522,70.135374 c -2.92479,0.02435 -5.29474,3.328717 -5.29474,7.404995 h 5.29474 5.35596 34.16754 v -7.404995 h -39.49338 z"
     id="path13"
     inkscape:connector-curvature="0"
     style="fill:#ffffff;stroke-width:1.08768499" />
  <path
     d="m 164.77723,70.135374 c -2.91118,0.04505 -5.26462,3.344545 -5.26462,7.404995 h 5.26462 5.35596 26.34738 5.48033 c 0,-4.087236 -2.38744,-7.404995 -5.32389,-7.404995 -0.0554,0 -0.10105,-0.0025 -0.15352,0 z"
     id="path15"
     inkscape:connector-curvature="0"
     style="fill:#ffffff;stroke-width:1.08768499" />
  <path
     d="m 210.19913,71.645037 v 7.404996 h 39.06195 5.26267 c 0,-4.059232 -2.35537,-7.356295 -5.26267,-7.404996 z"
     id="path17"
     inkscape:connector-curvature="0"
     style="fill:#ffffff;stroke-width:1.08768499" />
  <path
     d="m 266.40752,71.645037 v 0.03774 c -2.73822,0.301946 -4.8944,3.476037 -4.8944,7.367251 h 4.8944 5.72618 19.54555 2.52445 8.64901 2.00168 c 0,-4.06045 -2.35343,-7.359946 -5.26267,-7.404995 z"
     id="path19"
     inkscape:connector-curvature="0"
     style="fill:#ffffff;stroke-width:1.08768499" />
  <path
     d="m 311.16358,71.645037 v 7.404996 h 10.62155 v -7.404996 z"
     id="path21"
     inkscape:connector-curvature="0"
     style="fill:#ffffff;stroke-width:1.08768499" />
  <path
     d="m 377.25018,71.645037 v 7.404996 h 37.92313 v -7.404996 z"
     id="path23"
     inkscape:connector-curvature="0"
     style="fill:#ffffff;stroke-width:1.08768499" />
  <path
     d="M 2.404872,80.007077 V 101.99317 H 12.932165 V 80.007077 Z"
     id="path25"
     inkscape:connector-curvature="0"
     style="fill:#ffffff;stroke-width:1.08768499" />
  <path
     d="M 25.82941,80.007077 V 101.99317 H 36.386825 V 80.007077 Z"
     id="path27"
     inkscape:connector-curvature="0"
     style="fill:#ffffff;stroke-width:1.08768499" />
  <path
     d="m 49.285042,80.007077 v 21.986093 h 10.64973 V 80.007077 Z"
     id="path29"
     inkscape:connector-curvature="0"
     style="fill:#ffffff;stroke-width:1.08768499" />
  <path
     d="m 66.030182,80.007077 v 14.078257 c 0.14187,4.396488 3.36205,7.906616 7.29545,7.906616 H 103.95331 V 94.586956 H 79.020712 c -1.30693,0 -2.33886,-1.33441 -2.33886,-2.96833 V 89.766768 H 102.10807 V 82.980277 H 79.020712 c -1.30693,0 -2.33886,-1.335626 -2.33886,-2.969547 h -0.98627 l -9.6654,-0.0037 z"
     id="path31"
     inkscape:connector-curvature="0"
     style="fill:#ffffff;stroke-width:1.08768499" />
  <path
     d="m 109.37048,80.007077 v 14.309587 h 0.0301 c 0.23127,4.033665 3.04139,7.266196 6.58709,7.636326 v 0.0365 h 31.11935 v -0.0365 c 3.95381,-0.32264 7.07974,-4.411099 7.07974,-9.451657 0,-5.249974 -3.38148,-9.524709 -7.57238,-9.524709 -0.0408,0 -0.0816,-0.0025 -0.12244,0 h -18.19198 v 6.786492 h 13.14211 c 1.06497,0 1.90937,1.095774 1.90937,2.430182 0,1.334409 -0.8444,2.391222 -1.90937,2.391222 h -19.51543 c -1.064,0 -1.9084,-1.05803 -1.9084,-2.391222 V 80.00586 l -10.64778,0.0012 z"
     id="path33"
     inkscape:connector-curvature="0"
     style="fill:#ffffff;stroke-width:1.08768499" />
  <path
     d="m 159.51359,80.007077 v 21.986093 h 10.62057 V 80.007077 Z"
     id="path35"
     inkscape:connector-curvature="0"
     style="fill:#ffffff;stroke-width:1.08768499" />
  <path
     d="m 191.31118,80.007077 v 6.558815 h -19.29971 v 8.640784 h 19.29971 v 6.786494 h 10.6507 V 80.007077 Z"
     id="path37"
     inkscape:connector-curvature="0"
     style="fill:#ffffff;stroke-width:1.08768499" />
  <path
     d="M 210.19913,81.516741 V 103.50283 H 220.8197 V 81.516741 Z"
     id="path39"
     inkscape:connector-curvature="0"
     style="fill:#ffffff;stroke-width:1.08768499" />
  <path
     d="m 243.87597,81.516741 v 12.189874 c 0,1.334409 -0.84343,2.391222 -1.90937,2.391222 h -19.66993 v 7.404993 h 25.54963 v -0.0365 c 3.73323,-0.35673 6.68037,-3.875385 6.68037,-8.178123 V 81.516741 Z"
     id="path41"
     inkscape:connector-curvature="0"
     style="fill:#ffffff;stroke-width:1.08768499" />
  <path
     d="m 261.51215,81.516741 v 21.986089 h 10.62057 V 81.516741 Z"
     id="path43"
     inkscape:connector-curvature="0"
     style="fill:#ffffff;stroke-width:1.08768499" />
  <path
     d="m 294.20175,81.516741 v 4.167592 c 0,0.02557 0.003,0.05114 0,0.07671 -0.0292,1.294231 -0.86772,2.312083 -1.90742,2.312083 h -2.33886 -15.45182 v 8.640784 h 14.83771 l 5.38608,6.78649 h 12.71359 l -7.32557,-9.216673 c 2.77321,-1.411113 4.74185,-4.814099 4.74185,-8.79541 v -3.974006 h -0.70836 l -9.9472,0.0025 z"
     id="path45"
     inkscape:connector-curvature="0"
     style="fill:#ffffff;stroke-width:1.08768499" />
  <path
     d="m 311.16358,81.516741 v 21.986089 h 10.62155 V 81.516741 Z"
     id="path47"
     inkscape:connector-curvature="0"
     style="fill:#ffffff;stroke-width:1.08768499" />
  <path
     d="m 331.14056,81.516741 11.69624,21.986089 h 1.20003 10.58754 1.20101 l 11.69526,-21.986089 h -11.78951 l -6.40344,12.035248 -6.40344,-12.035248 z"
     id="path49"
     inkscape:connector-curvature="0"
     style="fill:#ffffff;stroke-width:1.08768499" />
  <path
     d="m 377.25018,81.516741 v 14.078257 c 0.14284,4.396488 3.36302,7.906612 7.29545,7.906612 h 30.62865 v -7.404991 h -24.9326 c -1.30498,0 -2.36995,-1.334409 -2.36995,-2.968329 v -1.851858 h 25.42719 v -6.786491 h -23.05724 c -1.30498,0 -2.36995,-1.335627 -2.36995,-2.969547 l -10.62155,-0.0037 z"
     id="path51"
     inkscape:connector-curvature="0"
     style="fill:#ffffff;stroke-width:1.08768499" />
  <path
     inkscape:connector-curvature="0"
     d="m 106.39367,64.521285 h 25.86668 c 10.57079,0 19.17407,-8.322911 19.17407,-18.545492 0,-10.22258 -8.60328,-18.495545 -19.17407,-18.495545 h -6.74425 c -0.53189,0 -0.95878,-0.409569 -0.95878,-0.924027 0,-0.566073 0.42516,-0.975641 0.95878,-0.975641 h 25.81332 l 0.0533,-7.810118 h -25.86667 c -4.99362,0 -9.03017,3.905892 -9.03017,8.73581 0,4.879867 4.03482,8.835707 9.03017,8.835707 h 6.74425 c 6.05397,0 10.99595,4.778307 10.99595,10.635478 0,5.857173 -4.94198,10.582202 -10.99595,10.582202 h -25.86672 z"
     id="path5-2"
     style="fill:#ffffff;fill-opacity:1;stroke-width:0.56429857" />
  <path
     inkscape:connector-curvature="0"
     d="m 106.39367,54.759885 h 25.86668 c 5.04697,0 9.08355,-3.954174 9.08355,-8.784094 0,-4.82992 -4.03658,-8.785758 -9.08355,-8.785758 h -6.74425 c -6.05396,0 -10.9426,-4.828254 -10.9426,-10.685426 0,-5.857172 4.88864,-10.582201 10.9426,-10.582201 h 25.86496 l -0.0533,-7.9116754 h -25.81503 c -10.56907,0 -19.12072,8.2696314 -19.12072,18.5454884 0,10.222581 8.55165,18.49388 19.12072,18.49388 h 6.6926 c 0.53189,0 0.95706,0.411234 0.95706,0.925692 0,0.512794 -0.42517,0.924028 -0.95706,0.924028 h -25.81336 z"
     id="path7-6"
     style="fill:#ffffff;fill-opacity:1;stroke-width:0.56429857" />
  <path
     inkscape:connector-curvature="0"
     d="m 171.45884,56.609606 c -4.46,0 -8.12475,-3.443046 -8.12475,-7.860066 V 23.625968 c 0,-4.210571 3.66647,-7.755174 8.12475,-7.755174 h 27.62073 V 8.0107306 h -27.62073 c -8.9751,0 -16.25122,7.0375954 -16.25122,15.7201274 V 48.74954 c 0,8.682534 7.2744,15.721796 16.25122,15.721796 h 27.51573 v -7.86173 z"
     id="path9-9"
     style="fill:#ffffff;fill-opacity:1;stroke-width:0.56429857" />
  <path
     inkscape:connector-curvature="0"
     d="m 165.29815,23.729194 c 0,-3.286542 2.76103,-6.010344 6.16069,-6.010344 h 27.62073 v 7.860064 h -23.79418 c -1.91413,0 -1.91413,1.848057 -1.91413,1.848057 h 19.86434 v 7.861732 h -27.93745 z"
     id="path11-7"
     style="fill:#ffffff;fill-opacity:1;stroke-width:0.56429857" />
  <path
     inkscape:connector-curvature="0"
     d="m 171.45884,54.709938 c -3.39794,0 -6.16069,-2.672189 -6.16069,-5.958732 V 37.190034 h 27.93745 v 7.858401 h -19.86434 c 0,1.849721 1.91242,1.849721 1.91242,1.849721 h 23.68917 v 7.810118 z"
     id="path13-1"
     style="fill:#ffffff;fill-opacity:1;stroke-width:0.56429857" />
  <path
     inkscape:connector-curvature="0"
     d="m 218.46538,56.609606 c -4.51337,0 -8.17983,-3.54627 -8.17983,-7.860066 V 23.730858 c 0,-4.315461 3.66818,-7.860064 8.12818,-7.860064 h 26.77211 V 8.0107306 h -26.82547 c -8.97682,0 -16.25294,7.0375954 -16.25294,15.7201274 V 48.74954 c 0,8.682534 7.32776,15.721796 16.3063,15.721796 h 26.77211 V 27.430299 H 222.1852 v 7.860066 h 14.87244 v 21.319241 z"
     id="path15-0"
     style="fill:#ffffff;fill-opacity:1;stroke-width:0.56429857" />
  <path
     inkscape:connector-curvature="0"
     d="m 212.19623,48.749542 c 0,3.288207 2.81785,6.01201 6.21579,6.01201 h 16.73149 V 37.138423 H 222.18349 V 45.0501 h 4.83354 v 1.84972 h -4.77846 c -1.06379,0 -1.91243,-0.87075 -1.91243,-1.84972 V 27.428636 c 0,0 0,-1.849722 1.91243,-1.849722 h 22.94554 v -7.861729 h -26.77038 c -3.39965,0 -6.21579,2.723801 -6.21579,6.012009 z"
     id="path17-9"
     style="fill:#ffffff;fill-opacity:1;stroke-width:0.56429857" />
  <path
     inkscape:connector-curvature="0"
     d="m 270.30717,17.617289 c 0.37009,-1.027252 1.32715,-1.74483 2.49767,-1.74483 1.16708,0 2.12586,0.719242 2.49768,1.74483 l 12.95828,37.195873 h -18.95889 v -8.734145 h 6.37413 l -2.86776,-8.272965 -9.35035,26.663619 h -9.56036 z"
     id="path19-2"
     style="fill:#ffffff;fill-opacity:1;stroke-width:0.56429857" />
  <path
     inkscape:connector-curvature="0"
     d="m 290.91685,56.609606 h -21.61839 v 7.860065 h 32.87771 L 285.07459,15.407947 c -1.48896,-4.778305 -6.42923,-8.3229087 -12.27319,-8.3229087 -5.84054,0 -10.7808,3.4929917 -12.26804,8.3229087 l -17.26511,49.061724 h 8.60501 l 16.72978,-47.726462 c 0.69025,-1.591659 2.28422,-2.670523 4.19492,-2.670523 1.86077,0 3.45474,1.078864 4.14501,2.670523 z"
     id="path21-0"
     style="fill:#ffffff;fill-opacity:1;stroke-width:0.56429857" />
</svg>
