<?xml version="1.0" standalone="no"?><!-- Generator: Gravit.io --><svg xmlns="http://www.w3.org/2000/svg" xmlns:xlink="http://www.w3.org/1999/xlink" style="isolation:isolate" viewBox="0 0 566.932 90.32" width="566.932" height="90.32"><g id="path16-1"><path d=" M 302.592 15.683 C 302.223 16.898 301.852 18.121 301.484 19.35 C 301.113 20.579 300.742 21.815 300.372 23.058 C 300 24.3 299.63 25.546 299.259 26.8 C 298.89 28.053 298.519 29.311 298.148 30.572 C 298.334 30.564 298.515 30.556 298.7 30.551 C 298.883 30.543 299.064 30.535 299.25 30.529 C 299.433 30.52 299.614 30.512 299.798 30.504 C 299.982 30.496 300.165 30.487 300.349 30.48 C 300.721 29.268 301.092 28.061 301.463 26.86 C 301.835 25.661 302.206 24.464 302.577 23.277 C 302.948 22.089 303.319 20.908 303.689 19.734 C 304.06 18.56 304.431 17.393 304.802 16.234 C 304.842 16.076 304.905 15.926 304.982 15.796 C 305.06 15.664 305.155 15.548 305.26 15.453 C 305.367 15.356 305.489 15.282 305.614 15.232 C 305.746 15.183 305.883 15.159 306.026 15.163 C 306.172 15.168 306.31 15.201 306.44 15.259 C 306.569 15.316 306.692 15.398 306.796 15.498 C 306.903 15.599 307 15.719 307.077 15.852 C 307.155 15.985 307.215 16.135 307.257 16.292 C 307.57 17.271 307.886 18.245 308.2 19.211 C 308.513 20.178 308.828 21.138 309.14 22.09 C 309.453 23.043 309.769 23.989 310.082 24.929 C 310.395 25.867 310.711 26.798 311.024 27.723 C 310.532 27.753 310.038 27.786 309.545 27.816 C 309.053 27.846 308.561 27.877 308.066 27.905 C 307.574 27.932 307.082 27.961 306.587 27.988 C 306.095 28.013 305.601 28.04 305.108 28.064 C 305.108 28.245 305.108 28.422 305.108 28.603 C 305.108 28.783 305.108 28.959 305.108 29.14 C 305.108 29.319 305.108 29.497 305.108 29.678 C 305.108 29.858 305.108 30.036 305.108 30.217 C 305.841 30.17 306.577 30.12 307.308 30.069 C 308.04 30.018 308.776 29.964 309.507 29.907 C 310.239 29.85 310.974 29.791 311.705 29.729 C 312.435 29.667 313.17 29.604 313.901 29.539 C 313.531 28.446 313.16 27.34 312.79 26.224 C 312.419 25.107 312.05 23.979 311.679 22.838 C 311.308 21.698 310.937 20.547 310.569 19.387 C 310.198 18.225 309.826 17.054 309.455 15.87 C 309.349 15.478 309.184 15.113 308.97 14.777 C 308.753 14.444 308.491 14.145 308.189 13.89 C 307.888 13.637 307.548 13.43 307.183 13.281 C 306.819 13.131 306.425 13.041 306.017 13.022 C 305.612 13.003 305.22 13.059 304.855 13.18 C 304.493 13.299 304.155 13.483 303.853 13.719 C 303.554 13.956 303.29 14.245 303.077 14.577 C 302.866 14.906 302.7 15.28 302.592 15.683 L 302.592 15.683 L 302.592 15.683 L 302.592 15.683 L 302.592 15.683 L 302.592 15.683 Z  M 305.206 24.725 C 305.269 24.518 305.335 24.31 305.398 24.103 C 305.462 23.896 305.528 23.689 305.592 23.483 C 305.655 23.277 305.72 23.07 305.784 22.864 C 305.847 22.658 305.914 22.452 305.978 22.247 C 306.044 22.451 306.114 22.654 306.181 22.855 C 306.248 23.059 306.317 23.261 306.383 23.462 C 306.451 23.664 306.519 23.866 306.587 24.068 C 306.653 24.269 306.722 24.471 306.789 24.672 C 306.657 24.677 306.524 24.681 306.393 24.685 C 306.26 24.689 306.126 24.695 305.995 24.699 C 305.864 24.703 305.729 24.707 305.599 24.711 C 305.469 24.715 305.338 24.721 305.206 24.725 Z  M 304.88 17.639 C 304.548 18.683 304.216 19.735 303.884 20.79 C 303.553 21.849 303.221 22.91 302.89 23.978 C 302.558 25.045 302.226 26.122 301.892 27.2 C 301.562 28.279 301.23 29.363 300.898 30.45 C 301.114 30.438 301.327 30.429 301.543 30.418 C 301.757 30.407 301.971 30.397 302.185 30.386 C 302.401 30.373 302.616 30.364 302.831 30.35 C 303.045 30.337 303.259 30.327 303.474 30.313 C 303.612 29.867 303.748 29.42 303.886 28.977 C 304.025 28.533 304.159 28.087 304.299 27.646 C 304.435 27.205 304.571 26.762 304.708 26.323 C 304.845 25.883 304.98 25.442 305.12 25.004 C 305.12 25.21 305.12 25.415 305.12 25.62 C 305.12 25.826 305.12 26.031 305.12 26.236 C 305.12 26.44 305.12 26.645 305.12 26.85 C 305.12 27.055 305.12 27.261 305.12 27.466 C 305.553 27.445 305.982 27.425 306.416 27.403 C 306.847 27.382 307.278 27.36 307.709 27.338 C 308.141 27.316 308.571 27.292 309.003 27.269 C 309.435 27.246 309.864 27.221 310.297 27.196 C 310.04 26.422 309.784 25.641 309.526 24.857 C 309.269 24.074 309.013 23.285 308.756 22.492 C 308.5 21.698 308.243 20.899 307.987 20.096 C 307.728 19.292 307.472 18.487 307.216 17.673 C 307.177 17.538 307.119 17.339 307.044 17.116 C 306.971 16.891 306.88 16.645 306.777 16.416 C 306.673 16.187 306.561 15.972 306.436 15.812 C 306.315 15.654 306.182 15.552 306.044 15.547 C 305.906 15.543 305.773 15.637 305.649 15.789 C 305.527 15.942 305.412 16.151 305.309 16.38 C 305.206 16.609 305.12 16.855 305.043 17.077 C 304.975 17.302 304.917 17.502 304.88 17.639 L 304.88 17.639 L 304.88 17.639 L 304.88 17.639 L 304.88 17.639 L 304.88 17.639 L 304.88 17.639 L 304.88 17.639 L 304.88 17.639 L 304.88 17.639 Z  M 290.797 15.507 C 291.442 15.51 292.082 15.514 292.727 15.519 C 293.371 15.524 294.01 15.531 294.655 15.538 C 295.298 15.544 295.939 15.553 296.583 15.559 C 297.228 15.567 297.868 15.578 298.512 15.585 C 298.512 15.384 298.511 15.182 298.511 14.979 C 298.511 14.778 298.511 14.576 298.511 14.373 C 298.511 14.17 298.511 13.969 298.511 13.766 C 298.51 13.563 298.51 13.362 298.511 13.159 C 297.853 13.142 297.196 13.128 296.536 13.114 C 295.879 13.099 295.222 13.089 294.56 13.078 C 293.905 13.067 293.247 13.057 292.587 13.052 C 291.928 13.043 291.272 13.037 290.611 13.032 C 290.08 13.029 289.572 13.147 289.111 13.366 C 288.648 13.583 288.234 13.9 287.885 14.294 C 287.534 14.688 287.253 15.155 287.058 15.676 C 286.865 16.196 286.755 16.767 286.755 17.364 C 286.755 18.122 286.755 18.879 286.755 19.636 C 286.755 20.393 286.755 21.151 286.755 21.907 C 286.755 22.663 286.755 23.422 286.755 24.179 C 286.755 24.936 286.755 25.695 286.755 26.45 C 286.754 27.05 286.862 27.619 287.058 28.138 C 287.253 28.659 287.537 29.124 287.886 29.517 C 288.234 29.909 288.648 30.225 289.113 30.442 C 289.572 30.659 290.082 30.775 290.613 30.768 C 291.271 30.76 291.929 30.748 292.59 30.738 C 293.248 30.724 293.905 30.71 294.566 30.692 C 295.224 30.673 295.88 30.654 296.541 30.631 C 297.198 30.61 297.855 30.583 298.517 30.557 C 298.517 29.613 298.517 28.667 298.517 27.723 C 298.515 26.779 298.515 25.832 298.514 24.889 C 298.515 23.945 298.514 22.999 298.514 22.056 C 298.514 21.113 298.513 20.166 298.513 19.223 C 297.992 19.222 297.472 19.221 296.95 19.221 C 296.429 19.22 295.911 19.219 295.388 19.218 C 294.868 19.218 294.349 19.217 293.829 19.217 C 293.308 19.217 292.788 19.216 292.266 19.216 C 292.266 19.404 292.266 19.593 292.266 19.78 C 292.266 19.968 292.266 20.157 292.266 20.345 C 292.266 20.533 292.266 20.723 292.266 20.91 C 292.268 21.098 292.266 21.287 292.266 21.474 C 292.602 21.474 292.941 21.472 293.277 21.471 C 293.613 21.47 293.951 21.469 294.288 21.467 C 294.624 21.466 294.96 21.465 295.296 21.463 C 295.632 21.461 295.968 21.459 296.304 21.457 C 296.305 22.019 296.305 22.579 296.305 23.14 C 296.306 23.702 296.305 24.261 296.305 24.823 C 296.305 25.384 296.306 25.944 296.306 26.504 C 296.306 27.066 296.307 27.625 296.307 28.187 C 295.848 28.2 295.391 28.209 294.931 28.22 C 294.471 28.23 294.012 28.24 293.553 28.246 C 293.094 28.252 292.636 28.262 292.176 28.267 C 291.717 28.274 291.258 28.28 290.799 28.285 C 290.545 28.288 290.304 28.232 290.084 28.131 C 289.862 28.027 289.666 27.878 289.502 27.693 C 289.337 27.506 289.2 27.285 289.108 27.039 C 289.014 26.792 288.962 26.519 288.962 26.235 C 288.962 25.511 288.962 24.789 288.962 24.067 C 288.963 23.343 288.962 22.622 288.962 21.899 C 288.962 21.175 288.962 20.453 288.962 19.729 C 288.963 19.006 288.963 18.284 288.963 17.561 C 288.963 17.278 289.012 17.004 289.106 16.758 C 289.198 16.511 289.335 16.289 289.5 16.104 C 289.666 15.916 289.86 15.767 290.082 15.664 C 290.301 15.562 290.542 15.504 290.797 15.507 Z  M 292.268 22.099 C 292.268 22.305 292.268 22.511 292.268 22.717 C 292.268 22.922 292.268 23.128 292.268 23.334 C 292.268 23.54 292.268 23.746 292.268 23.952 C 292.268 24.158 292.268 24.364 292.268 24.571 C 292.374 24.57 292.483 24.569 292.589 24.568 C 292.695 24.567 292.803 24.567 292.909 24.565 C 293.014 24.564 293.124 24.563 293.229 24.562 C 293.334 24.561 293.443 24.561 293.547 24.559 C 293.547 24.612 293.548 24.663 293.547 24.712 C 293.547 24.765 293.548 24.816 293.548 24.866 C 293.548 24.916 293.548 24.97 293.548 25.018 C 293.548 25.072 293.548 25.122 293.548 25.173 C 293.443 25.174 293.335 25.176 293.229 25.177 C 293.124 25.178 293.014 25.179 292.909 25.18 C 292.803 25.181 292.695 25.182 292.589 25.183 C 292.483 25.184 292.374 25.185 292.268 25.186 C 292.192 25.187 292.121 25.169 292.053 25.139 C 291.987 25.11 291.927 25.063 291.876 25.008 C 291.826 24.951 291.788 24.886 291.757 24.812 C 291.731 24.739 291.715 24.659 291.715 24.573 C 291.715 24.127 291.715 23.679 291.715 23.233 C 291.715 22.787 291.715 22.339 291.714 21.893 C 291.714 21.448 291.714 20.999 291.714 20.553 C 291.714 20.108 291.714 19.659 291.714 19.213 C 291.715 19.128 291.731 19.047 291.756 18.974 C 291.786 18.901 291.824 18.833 291.875 18.778 C 291.926 18.723 291.984 18.676 292.052 18.645 C 292.117 18.615 292.19 18.596 292.268 18.597 C 292.789 18.598 293.307 18.599 293.828 18.6 C 294.349 18.6 294.867 18.602 295.391 18.604 C 295.912 18.606 296.43 18.608 296.953 18.61 C 297.474 18.612 297.992 18.614 298.513 18.617 C 298.513 18.415 298.513 18.214 298.513 18.012 C 298.513 17.81 298.514 17.609 298.513 17.407 C 298.513 17.204 298.514 17.002 298.513 16.801 C 298.513 16.599 298.513 16.397 298.513 16.197 C 297.916 16.188 297.322 16.181 296.722 16.176 C 296.125 16.169 295.531 16.162 294.934 16.157 C 294.337 16.152 293.742 16.146 293.143 16.142 C 292.546 16.138 291.952 16.134 291.354 16.13 C 291.1 16.129 290.858 16.187 290.638 16.289 C 290.418 16.393 290.22 16.543 290.053 16.728 C 289.886 16.915 289.752 17.135 289.658 17.383 C 289.564 17.628 289.512 17.902 289.512 18.185 C 289.512 18.804 289.512 19.423 289.512 20.041 C 289.512 20.661 289.512 21.28 289.512 21.9 C 289.511 22.519 289.511 23.138 289.512 23.758 C 289.513 24.377 289.512 24.995 289.512 25.615 C 289.512 25.9 289.565 26.172 289.658 26.418 C 289.752 26.665 289.886 26.886 290.053 27.071 C 290.221 27.258 290.419 27.406 290.639 27.509 C 290.86 27.612 291.102 27.666 291.356 27.663 C 291.723 27.659 292.089 27.654 292.46 27.649 C 292.825 27.643 293.193 27.638 293.563 27.631 C 293.93 27.624 294.296 27.617 294.666 27.61 C 295.033 27.603 295.401 27.594 295.77 27.587 C 295.77 27.128 295.77 26.67 295.769 26.21 C 295.769 25.751 295.769 25.291 295.769 24.832 C 295.769 24.373 295.769 23.914 295.769 23.454 C 295.768 22.995 295.769 22.536 295.768 22.077 C 295.477 22.079 295.186 22.08 294.895 22.082 C 294.606 22.084 294.313 22.085 294.024 22.087 C 293.733 22.09 293.442 22.091 293.151 22.092 C 292.86 22.093 292.559 22.098 292.268 22.099 L 292.268 22.099 L 292.268 22.099 L 292.268 22.099 L 292.268 22.099 L 292.268 22.099 Z  M 278.13 15.557 C 278.774 15.549 279.415 15.54 280.059 15.536 C 280.703 15.529 281.343 15.523 281.987 15.517 C 282.63 15.513 283.272 15.509 283.915 15.505 C 284.558 15.502 285.198 15.5 285.842 15.499 C 285.842 15.292 285.842 15.085 285.842 14.878 C 285.842 14.671 285.842 14.466 285.842 14.259 C 285.842 14.052 285.842 13.846 285.842 13.638 C 285.842 13.431 285.842 13.224 285.842 13.018 C 285.185 13.02 284.527 13.024 283.868 13.029 C 283.211 13.034 282.553 13.041 281.895 13.05 C 281.237 13.058 280.58 13.067 279.92 13.077 C 279.26 13.087 278.606 13.099 277.945 13.114 C 277.414 13.125 276.906 13.258 276.445 13.483 C 275.984 13.71 275.57 14.031 275.221 14.421 C 274.871 14.813 274.589 15.275 274.396 15.782 C 274.201 16.291 274.089 16.845 274.09 17.428 C 274.09 18.157 274.09 18.883 274.09 19.612 C 274.09 20.341 274.09 21.066 274.089 21.795 C 274.089 22.523 274.089 23.25 274.089 23.978 C 274.089 24.707 274.089 25.433 274.088 26.161 C 274.088 26.744 274.196 27.301 274.392 27.81 C 274.585 28.324 274.87 28.789 275.217 29.185 C 275.566 29.581 275.982 29.912 276.443 30.143 C 276.902 30.375 277.41 30.515 277.943 30.534 C 278.601 30.555 279.258 30.576 279.919 30.595 C 280.577 30.614 281.234 30.627 281.895 30.641 C 282.551 30.654 283.209 30.664 283.87 30.672 C 284.528 30.681 285.186 30.687 285.845 30.691 C 285.845 30.484 285.845 30.277 285.845 30.072 C 285.845 29.865 285.845 29.658 285.845 29.452 C 285.845 29.245 285.847 29.038 285.847 28.832 C 285.847 28.625 285.847 28.419 285.847 28.212 C 285.203 28.21 284.562 28.205 283.918 28.198 C 283.274 28.192 282.631 28.183 281.989 28.174 C 281.346 28.165 280.704 28.153 280.061 28.141 C 279.416 28.127 278.774 28.113 278.131 28.096 C 277.878 28.089 277.639 28.026 277.418 27.916 C 277.198 27.808 277 27.653 276.834 27.467 C 276.668 27.279 276.534 27.056 276.441 26.812 C 276.347 26.568 276.295 26.3 276.295 26.02 C 276.295 25.319 276.295 24.619 276.296 23.916 C 276.296 23.215 276.296 22.515 276.296 21.812 C 276.297 21.111 276.297 20.411 276.297 19.708 C 276.297 19.005 276.298 18.308 276.297 17.605 C 276.297 17.326 276.35 17.059 276.443 16.815 C 276.536 16.573 276.671 16.352 276.837 16.168 C 277.003 15.98 277.2 15.831 277.42 15.726 C 277.635 15.619 277.877 15.561 278.13 15.557 L 278.13 15.557 L 278.13 15.557 L 278.13 15.557 L 278.13 15.557 L 278.13 15.557 Z  M 284.184 21.486 C 284.184 21.297 284.184 21.107 284.184 20.919 C 284.184 20.73 284.184 20.54 284.186 20.353 C 284.186 20.165 284.186 19.974 284.186 19.786 C 284.186 19.598 284.186 19.408 284.186 19.22 C 283.756 19.22 283.331 19.22 282.901 19.22 C 282.471 19.22 282.045 19.221 281.616 19.221 C 281.188 19.221 280.761 19.222 280.333 19.222 C 279.905 19.222 279.478 19.222 279.048 19.223 C 279.048 19.138 279.064 19.058 279.09 18.985 C 279.118 18.912 279.159 18.846 279.209 18.791 C 279.259 18.734 279.317 18.689 279.384 18.659 C 279.45 18.628 279.525 18.609 279.599 18.608 C 280.12 18.607 280.639 18.606 281.16 18.604 C 281.681 18.604 282.201 18.603 282.722 18.601 C 283.243 18.601 283.762 18.6 284.284 18.599 C 284.805 18.599 285.323 18.598 285.845 18.598 C 285.844 18.392 285.844 18.185 285.844 17.98 C 285.845 17.773 285.845 17.567 285.845 17.36 C 285.845 17.154 285.845 16.948 285.845 16.742 C 285.845 16.536 285.845 16.33 285.845 16.124 C 285.248 16.125 284.654 16.126 284.056 16.129 C 283.459 16.131 282.865 16.135 282.266 16.139 C 281.669 16.143 281.074 16.146 280.475 16.152 C 279.878 16.156 279.283 16.163 278.687 16.169 C 278.433 16.172 278.193 16.232 277.972 16.336 C 277.752 16.44 277.555 16.592 277.389 16.777 C 277.222 16.965 277.088 17.181 276.995 17.424 C 276.901 17.667 276.849 17.935 276.849 18.214 C 276.849 18.485 276.849 18.755 276.849 19.027 C 276.849 19.298 276.849 19.568 276.849 19.839 C 276.849 20.11 276.849 20.38 276.849 20.652 C 276.849 20.923 276.849 21.192 276.849 21.464 C 277.461 21.468 278.075 21.473 278.684 21.475 C 279.295 21.478 279.909 21.481 280.518 21.484 C 281.129 21.487 281.743 21.488 282.354 21.49 C 282.962 21.483 283.572 21.485 284.184 21.486 L 284.184 21.486 L 284.184 21.486 L 284.184 21.486 L 284.184 21.486 L 284.184 21.486 Z  M 284.184 22.312 C 284.184 22.5 284.184 22.691 284.184 22.879 C 284.184 23.068 284.184 23.258 284.184 23.446 C 284.184 23.634 284.186 23.824 284.184 24.013 C 284.184 24.201 284.186 24.391 284.184 24.578 C 283.755 24.576 283.329 24.574 282.899 24.57 C 282.47 24.567 282.044 24.562 281.616 24.558 C 281.188 24.554 280.76 24.549 280.331 24.544 C 279.903 24.539 279.476 24.534 279.046 24.528 C 279.046 24.613 279.062 24.693 279.088 24.766 C 279.116 24.84 279.157 24.908 279.207 24.963 C 279.256 25.019 279.315 25.066 279.382 25.097 C 279.448 25.129 279.523 25.148 279.597 25.149 C 280.118 25.156 280.637 25.163 281.158 25.169 C 281.679 25.176 282.199 25.181 282.721 25.186 C 283.241 25.191 283.761 25.195 284.284 25.198 C 284.804 25.201 285.323 25.203 285.845 25.205 C 285.845 25.411 285.845 25.618 285.845 25.824 C 285.845 26.03 285.845 26.236 285.845 26.442 C 285.845 26.648 285.845 26.854 285.845 27.06 C 285.845 27.266 285.845 27.472 285.845 27.679 C 285.248 27.677 284.654 27.672 284.055 27.667 C 283.457 27.662 282.863 27.655 282.264 27.647 C 281.666 27.638 281.072 27.627 280.473 27.619 C 279.876 27.609 279.281 27.597 278.683 27.582 C 278.43 27.576 278.191 27.514 277.97 27.405 C 277.75 27.297 277.553 27.141 277.387 26.955 C 277.221 26.767 277.087 26.547 276.993 26.302 C 276.901 26.057 276.848 25.788 276.848 25.509 C 276.848 25.238 276.848 24.968 276.848 24.697 C 276.848 24.426 276.848 24.156 276.848 23.885 C 276.848 23.614 276.848 23.343 276.848 23.072 C 276.848 22.801 276.848 22.53 276.848 22.259 C 277.46 22.265 278.073 22.271 278.683 22.276 C 279.294 22.281 279.907 22.285 280.517 22.289 C 281.129 22.292 281.743 22.297 282.352 22.3 C 282.961 22.308 283.572 22.311 284.184 22.312 L 284.184 22.312 L 284.184 22.312 L 284.184 22.312 L 284.184 22.312 L 284.184 22.312 L 284.184 22.312 L 284.184 22.312 L 284.184 22.312 L 284.184 22.312 Z  M 265.324 24.97 C 264.939 24.954 264.553 24.94 264.169 24.925 C 263.783 24.908 263.398 24.893 263.016 24.876 C 262.628 24.86 262.245 24.844 261.86 24.827 C 261.477 24.81 261.089 24.793 260.706 24.776 C 260.706 24.943 260.706 25.111 260.706 25.279 C 260.706 25.447 260.706 25.614 260.706 25.782 C 260.706 25.95 260.706 26.117 260.706 26.285 C 260.706 26.453 260.706 26.62 260.706 26.787 C 261.294 26.825 261.882 26.861 262.469 26.896 C 263.056 26.932 263.646 26.966 264.234 27 C 264.822 27.034 265.41 27.066 265.998 27.098 C 266.586 27.13 267.174 27.161 267.762 27.189 C 267.77 27.189 267.778 27.19 267.783 27.19 C 267.792 27.19 267.799 27.191 267.805 27.191 C 267.811 27.191 267.822 27.191 267.827 27.193 C 267.835 27.193 267.843 27.194 267.85 27.194 C 268.18 27.197 268.496 27.131 268.78 27.006 C 269.065 26.879 269.323 26.696 269.538 26.468 C 269.754 26.239 269.927 25.961 270.047 25.655 C 270.167 25.347 270.235 25.009 270.235 24.649 C 270.235 24.284 270.166 23.933 270.041 23.613 C 269.916 23.294 269.735 23.004 269.511 22.759 C 269.288 22.515 269.023 22.319 268.726 22.18 C 268.43 22.042 268.105 21.964 267.762 21.958 C 267.531 21.955 267.298 21.952 267.068 21.948 C 266.836 21.945 266.603 21.941 266.372 21.937 C 266.14 21.934 265.908 21.93 265.676 21.927 C 265.446 21.924 265.213 21.92 264.983 21.915 C 264.702 21.801 264.43 21.643 264.182 21.448 C 263.934 21.255 263.71 21.027 263.522 20.772 C 263.333 20.517 263.176 20.236 263.069 19.936 C 262.964 19.637 262.903 19.319 262.903 18.989 C 262.903 18.565 263 18.158 263.171 17.785 C 263.342 17.414 263.586 17.076 263.883 16.786 C 264.18 16.498 264.529 16.261 264.907 16.091 C 265.287 15.922 265.696 15.82 266.114 15.808 C 266.688 15.789 267.26 15.775 267.835 15.758 C 268.409 15.741 268.981 15.727 269.556 15.712 C 270.13 15.696 270.702 15.684 271.277 15.671 C 271.851 15.657 272.423 15.646 272.999 15.634 C 272.999 15.435 272.999 15.237 272.999 15.035 C 272.999 14.837 272.999 14.637 272.999 14.435 C 272.999 14.236 272.999 14.037 272.999 13.836 C 272.999 13.635 272.999 13.438 272.999 13.235 C 272.402 13.255 271.806 13.274 271.209 13.297 C 270.613 13.318 270.016 13.341 269.419 13.364 C 268.822 13.386 268.227 13.412 267.629 13.439 C 267.031 13.464 266.436 13.492 265.84 13.521 C 265.131 13.554 264.457 13.739 263.843 14.035 C 263.231 14.332 262.676 14.742 262.212 15.231 C 261.747 15.72 261.372 16.29 261.111 16.913 C 260.851 17.535 260.709 18.212 260.709 18.916 C 260.709 19.623 260.863 20.297 261.141 20.914 C 261.417 21.531 261.817 22.095 262.304 22.575 C 262.79 23.055 263.367 23.457 263.996 23.742 C 264.628 24.029 265.312 24.2 266.021 24.223 C 266.021 24.221 266.021 24.219 266.021 24.217 C 266.021 24.215 266.021 24.212 266.021 24.21 C 266.021 24.207 266.021 24.205 266.021 24.202 C 266.021 24.201 266.021 24.199 266.021 24.197 C 266.021 24.199 266.023 24.201 266.025 24.203 C 266.027 24.205 266.027 24.207 266.029 24.211 C 266.029 24.213 266.031 24.215 266.033 24.217 C 266.033 24.219 266.035 24.221 266.035 24.223 C 266.172 24.228 266.306 24.233 266.445 24.237 C 266.58 24.241 266.716 24.246 266.852 24.25 C 266.99 24.255 267.125 24.259 267.262 24.263 C 267.398 24.268 267.534 24.273 267.671 24.277 C 267.72 24.278 267.769 24.291 267.812 24.31 C 267.855 24.331 267.896 24.361 267.928 24.395 C 267.961 24.431 267.99 24.474 268.007 24.52 C 268.027 24.567 268.036 24.619 268.036 24.672 C 268.036 24.725 268.024 24.776 268.006 24.821 C 267.985 24.866 267.961 24.908 267.927 24.941 C 267.893 24.974 267.855 25.003 267.81 25.02 C 267.767 25.039 267.719 25.046 267.669 25.044 C 267.474 25.036 267.278 25.029 267.083 25.023 C 266.888 25.014 266.692 25.007 266.497 25.001 C 266.302 24.995 266.106 24.987 265.911 24.98 C 265.714 24.986 265.52 24.977 265.324 24.97 L 265.324 24.97 L 265.324 24.97 L 265.324 24.97 L 265.324 24.97 L 265.324 24.97 L 265.324 24.97 L 265.324 24.97 L 265.324 24.97 L 265.324 24.97 Z  M 268.359 18.473 C 268.746 18.47 269.13 18.466 269.517 18.462 C 269.904 18.459 270.288 18.456 270.674 18.453 C 271.062 18.45 271.446 18.447 271.833 18.444 C 272.218 18.441 272.604 18.437 272.991 18.435 C 272.991 18.251 272.991 18.07 272.991 17.887 C 272.991 17.703 272.991 17.52 272.991 17.337 C 272.991 17.154 272.991 16.971 272.991 16.788 C 272.991 16.606 272.991 16.423 272.991 16.24 C 272.401 16.25 271.813 16.261 271.225 16.271 C 270.634 16.283 270.045 16.293 269.457 16.307 C 268.868 16.321 268.279 16.332 267.691 16.348 C 267.101 16.364 266.513 16.376 265.924 16.392 C 265.916 16.392 265.908 16.393 265.902 16.392 C 265.894 16.392 265.885 16.392 265.879 16.393 C 265.871 16.393 265.863 16.393 265.856 16.393 C 265.85 16.393 265.839 16.393 265.834 16.393 C 265.503 16.414 265.188 16.501 264.901 16.644 C 264.616 16.787 264.36 16.981 264.145 17.213 C 263.93 17.446 263.755 17.72 263.635 18.023 C 263.516 18.322 263.449 18.646 263.449 18.989 C 263.449 19.341 263.517 19.673 263.642 19.975 C 263.767 20.277 263.95 20.553 264.172 20.786 C 264.398 21.017 264.663 21.207 264.96 21.341 C 265.256 21.473 265.583 21.55 265.925 21.555 C 266.157 21.557 266.39 21.561 266.621 21.563 C 266.852 21.566 267.084 21.569 267.315 21.572 C 267.546 21.575 267.78 21.578 268.012 21.58 C 268.242 21.582 268.475 21.585 268.705 21.588 C 268.986 21.705 269.258 21.868 269.504 22.069 C 269.752 22.269 269.977 22.508 270.165 22.777 C 270.353 23.046 270.51 23.342 270.615 23.661 C 270.72 23.978 270.781 24.318 270.781 24.667 C 270.781 25.117 270.683 25.543 270.513 25.926 C 270.343 26.31 270.097 26.649 269.802 26.93 C 269.504 27.208 269.156 27.429 268.777 27.574 C 268.396 27.719 267.986 27.786 267.568 27.762 C 266.996 27.731 266.423 27.699 265.851 27.665 C 265.279 27.633 264.705 27.599 264.133 27.561 C 263.56 27.527 262.987 27.49 262.415 27.453 C 261.845 27.415 261.27 27.377 260.699 27.337 C 260.699 27.521 260.699 27.703 260.699 27.887 C 260.699 28.071 260.699 28.253 260.699 28.436 C 260.699 28.62 260.699 28.803 260.699 28.986 C 260.699 29.169 260.699 29.351 260.699 29.535 C 261.294 29.589 261.889 29.64 262.483 29.69 C 263.079 29.742 263.673 29.791 264.27 29.836 C 264.865 29.885 265.46 29.931 266.055 29.975 C 266.652 30.019 267.246 30.062 267.844 30.103 C 268.551 30.153 269.227 30.042 269.842 29.803 C 270.456 29.561 271.012 29.187 271.477 28.707 C 271.942 28.228 272.32 27.644 272.581 26.986 C 272.843 26.328 272.985 25.595 272.986 24.824 C 272.986 24.053 272.831 23.313 272.553 22.642 C 272.276 21.97 271.877 21.368 271.389 20.862 C 270.903 20.358 270.326 19.953 269.695 19.674 C 269.063 19.395 268.377 19.245 267.668 19.249 C 267.668 19.251 267.668 19.253 267.668 19.257 C 267.668 19.259 267.668 19.263 267.668 19.265 C 267.668 19.268 267.668 19.27 267.668 19.272 C 267.668 19.275 267.668 19.278 267.668 19.281 C 267.667 19.279 267.665 19.276 267.664 19.273 C 267.663 19.271 267.661 19.268 267.66 19.266 C 267.658 19.264 267.656 19.261 267.655 19.259 C 267.654 19.257 267.651 19.253 267.651 19.251 C 267.514 19.251 267.38 19.252 267.242 19.252 C 267.106 19.253 266.971 19.253 266.834 19.254 C 266.698 19.254 266.562 19.256 266.427 19.256 C 266.289 19.257 266.155 19.257 266.019 19.258 C 265.968 19.258 265.917 19.248 265.873 19.23 C 265.829 19.21 265.79 19.184 265.759 19.15 C 265.726 19.117 265.698 19.075 265.681 19.029 C 265.662 18.982 265.653 18.933 265.653 18.88 C 265.653 18.828 265.663 18.778 265.681 18.734 C 265.7 18.688 265.726 18.647 265.759 18.612 C 265.79 18.577 265.829 18.549 265.873 18.529 C 265.916 18.508 265.966 18.498 266.017 18.498 C 266.212 18.496 266.408 18.493 266.601 18.491 C 266.796 18.489 266.993 18.487 267.187 18.485 C 267.382 18.482 267.578 18.479 267.773 18.477 C 267.97 18.477 268.166 18.475 268.359 18.473 L 268.359 18.473 L 268.359 18.473 L 268.359 18.473 L 268.359 18.473 L 268.359 18.473 L 268.359 18.473 L 268.359 18.473 L 268.359 18.473 L 268.359 18.473 Z " fill="rgb(255,255,255)"/></g><path d=" M 413.979 49.74 L 418.417 56.391 L 430.551 56.391 L 426.113 49.74 L 413.979 49.74 Z " fill="rgb(255,255,255)"/><path d=" M 450.821 49.74 L 446.384 56.391 L 458.517 56.391 L 462.954 49.74 L 450.821 49.74 Z " fill="rgb(255,255,255)"/><path d=" M 64.252 50.311 L 64.252 56.393 L 118.169 56.393 L 123.554 56.393 C 123.554 53.071 121.149 50.368 118.169 50.311 L 64.252 50.311 Z " fill="rgb(255,255,255)"/><path d=" M 129.731 50.311 L 129.731 56.393 L 168.758 56.393 L 168.758 50.311 L 129.731 50.311 Z " fill="rgb(255,255,255)"/><path d=" M 179.783 50.311 C 176.773 50.331 174.334 53.045 174.334 56.393 L 179.783 56.393 L 185.295 56.393 L 220.458 56.393 L 220.458 50.311 L 179.814 50.311 L 179.783 50.311 Z " fill="rgb(255,255,255)"/><path d=" M 231.355 50.311 C 228.359 50.348 225.937 53.058 225.937 56.393 L 231.355 56.393 L 236.867 56.393 L 263.982 56.393 L 269.622 56.393 C 269.622 53.036 267.165 50.311 264.143 50.311 C 264.086 50.311 264.039 50.309 263.985 50.311 L 231.355 50.311 Z " fill="rgb(255,255,255)"/><path d=" M 295.28 50.311 L 295.28 56.393 L 335.48 56.393 L 340.896 56.393 C 340.896 53.059 338.472 50.351 335.48 50.311 L 295.28 50.311 Z " fill="rgb(255,255,255)"/><path d=" M 353.126 50.311 L 353.126 50.342 C 350.308 50.59 348.089 53.197 348.089 56.393 L 353.126 56.393 L 359.019 56.393 L 379.134 56.393 L 381.732 56.393 L 390.633 56.393 L 392.693 56.393 C 392.693 53.058 390.271 50.348 387.277 50.311 L 353.126 50.311 Z " fill="rgb(255,255,255)"/><path d=" M 399.186 50.311 L 399.186 56.393 L 410.117 56.393 L 410.117 50.311 L 399.186 50.311 Z " fill="rgb(255,255,255)"/><path d=" M 467.198 50.311 L 467.198 56.393 L 506.226 56.393 L 506.226 50.311 L 467.198 50.311 Z " fill="rgb(255,255,255)"/><path d=" M 64.252 58.419 L 64.252 76.477 L 75.086 76.477 L 75.086 58.419 L 64.252 58.419 Z " fill="rgb(255,255,255)"/><path d=" M 88.359 58.419 L 88.359 76.477 L 99.224 76.477 L 99.224 58.419 L 88.359 58.419 Z " fill="rgb(255,255,255)"/><path d=" M 112.498 58.419 L 112.498 76.477 L 123.458 76.477 L 123.458 58.419 L 112.498 58.419 Z " fill="rgb(255,255,255)"/><path d=" M 129.731 58.419 L 129.731 69.982 C 129.877 73.593 133.191 76.476 137.239 76.476 L 168.759 76.476 L 168.759 70.394 L 143.1 70.394 C 141.755 70.394 140.693 69.298 140.693 67.956 L 140.693 66.435 L 166.86 66.435 L 166.86 60.861 L 143.1 60.861 C 141.755 60.861 140.693 59.764 140.693 58.422 L 139.678 58.422 L 129.731 58.419 L 129.731 58.419 Z " fill="rgb(255,255,255)"/><path d=" M 174.334 58.419 L 174.334 70.172 L 174.365 70.172 C 174.603 73.485 177.495 76.14 181.144 76.444 L 181.144 76.474 L 213.17 76.474 L 213.17 76.444 C 217.239 76.179 220.456 72.821 220.456 68.681 C 220.456 64.369 216.976 60.858 212.663 60.858 C 212.621 60.858 212.579 60.856 212.537 60.858 L 193.815 60.858 L 193.815 66.432 L 207.34 66.432 C 208.436 66.432 209.305 67.332 209.305 68.428 C 209.305 69.524 208.436 70.392 207.34 70.392 L 187.256 70.392 C 186.161 70.392 185.292 69.523 185.292 68.428 L 185.292 58.418 L 174.334 58.419 L 174.334 58.419 Z " fill="rgb(255,255,255)"/><path d=" M 225.938 58.419 L 225.938 76.477 L 236.868 76.477 L 236.868 58.419 L 225.938 58.419 Z " fill="rgb(255,255,255)"/><path d=" M 258.662 58.419 L 258.662 63.806 L 238.8 63.806 L 238.8 70.903 L 258.662 70.903 L 258.662 76.477 L 269.623 76.477 L 269.623 58.419 L 258.662 58.419 Z " fill="rgb(255,255,255)"/><path d=" M 295.28 58.419 L 295.28 76.477 L 306.21 76.477 L 306.21 58.419 L 295.28 58.419 Z " fill="rgb(255,255,255)"/><path d=" M 329.938 58.419 L 329.938 68.431 C 329.938 69.527 329.07 70.395 327.973 70.395 L 307.73 70.395 L 307.73 76.477 L 334.024 76.477 L 334.024 76.447 C 337.866 76.154 340.899 73.264 340.899 69.73 L 340.899 58.419 L 329.938 58.419 Z " fill="rgb(255,255,255)"/><path d=" M 348.088 58.419 L 348.088 76.477 L 359.018 76.477 L 359.018 58.419 L 348.088 58.419 Z " fill="rgb(255,255,255)"/><path d=" M 381.73 58.419 L 381.73 61.842 C 381.73 61.863 381.733 61.884 381.73 61.905 C 381.7 62.968 380.837 63.804 379.767 63.804 L 377.36 63.804 L 361.458 63.804 L 361.458 70.901 L 376.728 70.901 L 382.271 76.475 L 395.355 76.475 L 387.816 68.905 C 390.67 67.746 392.696 64.951 392.696 61.681 L 392.696 58.417 L 391.967 58.417 L 381.73 58.419 L 381.73 58.419 Z " fill="rgb(255,255,255)"/><path d=" M 399.186 58.419 L 399.186 76.477 L 410.117 76.477 L 410.117 58.419 L 399.186 58.419 Z " fill="rgb(255,255,255)"/><path d=" M 419.745 58.419 L 431.782 76.477 L 433.017 76.477 L 443.913 76.477 L 445.149 76.477 L 457.185 58.419 L 445.052 58.419 L 438.462 68.304 L 431.872 58.419 L 419.745 58.419 Z " fill="rgb(255,255,255)"/><path d=" M 467.198 58.419 L 467.198 69.982 C 467.345 73.593 470.659 76.476 474.706 76.476 L 506.227 76.476 L 506.227 70.394 L 480.568 70.394 C 479.225 70.394 478.129 69.298 478.129 67.956 L 478.129 66.435 L 504.297 66.435 L 504.297 60.861 L 480.568 60.861 C 479.225 60.861 478.129 59.764 478.129 58.422 L 467.198 58.419 L 467.198 58.419 Z " fill="rgb(255,255,255)"/></svg>