<?xml version="1.0" encoding="UTF-8" standalone="no"?>
<!-- Generator: Adobe Illustrator 13.0.0, SVG Export Plug-In . SVG Version: 6.00 Build 14948)  -->

<svg
   xmlns:ns="&amp;#38;#38;#38;#38;#38;#38;ns_sfw;"
   xmlns:dc="http://purl.org/dc/elements/1.1/"
   xmlns:cc="http://creativecommons.org/ns#"
   xmlns:rdf="http://www.w3.org/1999/02/22-rdf-syntax-ns#"
   xmlns:svg="http://www.w3.org/2000/svg"
   xmlns="http://www.w3.org/2000/svg"
   xmlns:sodipodi="http://sodipodi.sourceforge.net/DTD/sodipodi-0.dtd"
   xmlns:inkscape="http://www.inkscape.org/namespaces/inkscape"
   version="1.1"
   id="svg2"
   x="0px"
   y="0px"
   width="253.14752"
   height="109.20614"
   viewBox="0.25 0 253.14752 109.20615"
   enable-background="new 0.25 0 567.927 113.032"
   xml:space="preserve"
   inkscape:version="0.92.2 (5c3e80d, 2017-08-06)"
   sodipodi:docname="system_BLANCO_TOTAL.svg"><defs
     id="defs21" /><sodipodi:namedview
     pagecolor="#ffffff"
     bordercolor="#666666"
     borderopacity="1"
     objecttolerance="10"
     gridtolerance="10"
     guidetolerance="10"
     inkscape:pageopacity="0"
     inkscape:pageshadow="2"
     inkscape:window-width="1440"
     inkscape:window-height="837"
     id="namedview19"
     showgrid="false"
     inkscape:zoom="3.9107631"
     inkscape:cx="126.57376"
     inkscape:cy="54.60307"
     inkscape:window-x="-8"
     inkscape:window-y="-8"
     inkscape:window-maximized="1"
     inkscape:current-layer="g4889"
     fit-margin-top="0"
     fit-margin-left="0"
     fit-margin-right="0"
     fit-margin-bottom="0"
     showguides="true"
     inkscape:guide-bbox="true"
     inkscape:pagecheckerboard="true" /><metadata
     id="metadata3"><ns:sfw><ns:slices /><ns:sliceSourceBounds
         x="677.036"
         y="482.984"
         width="567.927"
         height="113.032"
         bottomLeftOrigin="true" /></ns:sfw><rdf:RDF><cc:Work
         rdf:about=""><dc:format>image/svg+xml</dc:format><dc:type
           rdf:resource="http://purl.org/dc/dcmitype/StillImage" /><dc:title></dc:title></cc:Work></rdf:RDF></metadata><g
     transform="matrix(0.77798037,0,0,0.77798037,-29.57926,-210.77839)"
     id="g4889"><path
       style="color:#000000;clip-rule:nonzero;display:inline;overflow:visible;visibility:visible;opacity:1;isolation:auto;mix-blend-mode:normal;color-interpolation:sRGB;color-interpolation-filters:linearRGB;solid-color:#000000;solid-opacity:1;fill:#ffffff;fill-opacity:1;fill-rule:evenodd;stroke:none;stroke-width:0.33317575px;stroke-linecap:butt;stroke-linejoin:miter;stroke-miterlimit:4;stroke-dasharray:none;stroke-dashoffset:0;stroke-opacity:1;color-rendering:auto;image-rendering:auto;shape-rendering:auto;text-rendering:auto;enable-background:accumulate"
       d="M 93.939453 0 L 93.939453 5.7753906 L 94.089844 5.7753906 C 94.564225 5.7753906 115.8457 6.1730032 115.8457 15.232422 L 115.8457 22.228516 C 119.05757 23.700352 120.7922 26.120821 122.64453 29.457031 C 126.26687 24.57957 130.99138 21.047645 137.30273 19.853516 L 137.30273 15.232422 C 137.30273 6.1730032 158.58422 5.7753906 159.05859 5.7753906 L 159.20703 5.7753906 L 159.20703 0 L 130.42188 0 L 122.72656 0 L 93.939453 0 z M 119.71484 46.048828 C 119.13656 46.601964 117.75511 47.659856 115.8457 48.839844 L 115.8457 69.304688 L 28.945312 69.304688 C 23.663034 69.304688 19.410156 73.555612 19.410156 78.837891 L 19.410156 80.320312 C 19.410156 85.602593 23.663034 89.853516 28.945312 89.853516 L 115.8457 89.853516 L 115.8457 93.263672 C 115.8457 98.503253 106.14219 102.7207 94.089844 102.7207 L 93.939453 102.7207 L 93.939453 108.49609 L 122.72656 108.49609 L 130.42188 108.49609 L 159.20703 108.49609 L 159.20703 102.7207 L 159.05859 102.7207 C 147.00625 102.7207 137.30273 98.503253 137.30273 93.263672 L 137.30273 89.853516 L 224.20117 89.853516 C 229.48345 89.853516 233.73633 85.602593 233.73633 80.320312 L 233.73633 78.837891 C 233.73633 73.555612 229.48345 69.304688 224.20117 69.304688 L 137.30273 69.304688 L 137.30273 64.554688 C 128.71879 61.938394 122.01056 55.603205 119.71484 46.048828 z M 122.84961 74.847656 C 123.45061 74.847656 124.0423 74.906819 124.62695 75.025391 C 125.21569 75.139863 125.72501 75.285136 126.1543 75.460938 L 125.16211 77.09375 C 124.97137 76.997265 124.7675 76.908249 124.54883 76.828125 C 124.01733 76.627787 123.47205 76.527344 122.91602 76.527344 C 122.71977 76.527344 122.52438 76.541683 122.32812 76.570312 C 122.13596 76.59482 121.94942 76.645161 121.76953 76.71875 C 121.61008 76.780055 121.47385 76.873251 121.35938 77 C 121.24489 77.122649 121.1875 77.264381 121.1875 77.423828 C 121.1875 77.665049 121.27891 77.851589 121.46289 77.982422 C 121.64688 78.109163 121.9948 78.225728 122.50586 78.332031 C 122.84111 78.401505 123.16212 78.467791 123.46875 78.533203 C 123.77948 78.598631 124.11306 78.688262 124.46875 78.802734 C 125.16788 79.031694 125.68251 79.345611 126.01367 79.742188 C 126.34893 80.134679 126.51564 80.645771 126.51562 81.275391 C 126.51562 82.174853 126.13368 82.906496 125.36914 83.470703 C 124.60869 84.030826 123.57588 84.310547 122.26758 84.310547 C 121.51121 84.310547 120.84936 84.244099 120.28516 84.113281 C 119.72503 83.978356 119.1996 83.809891 118.70898 83.605469 L 119.4668 81.841797 C 119.7628 82.010953 120.26701 82.195834 120.59766 82.310547 C 121.20275 82.519061 121.78381 82.623047 122.33984 82.623047 C 122.48295 82.623047 122.67126 82.612397 122.9043 82.587891 C 123.13734 82.563384 123.32742 82.522064 123.47461 82.464844 C 123.6545 82.391247 123.80154 82.299841 123.91602 82.189453 C 124.03458 82.079065 124.09375 81.913956 124.09375 81.697266 C 124.09375 81.496936 124.00765 81.326688 123.83594 81.183594 C 123.66831 81.036408 123.42083 80.923377 123.09375 80.845703 C 122.75032 80.76393 122.38822 80.688645 122.00391 80.619141 C 121.62368 80.545544 121.26493 80.452185 120.92969 80.341797 C 120.16105 80.0924 119.60692 79.755276 119.26758 79.330078 C 118.93232 78.900789 118.76564 78.37004 118.76562 77.736328 C 118.76562 76.885933 119.14581 76.193788 119.90625 75.658203 C 120.67079 75.118526 121.65169 74.847656 122.84961 74.847656 z M 145.04297 74.847656 C 145.64397 74.847656 146.23762 74.906819 146.82227 75.025391 C 147.41101 75.139863 147.92032 75.285136 148.34961 75.460938 L 147.35742 77.09375 C 147.16669 76.997265 146.96086 76.908249 146.74219 76.828125 C 146.21069 76.627787 145.66735 76.527344 145.11133 76.527344 C 144.91507 76.527344 144.71968 76.541683 144.52344 76.570312 C 144.33128 76.59482 144.14473 76.645161 143.96484 76.71875 C 143.80539 76.780055 143.66721 76.873251 143.55273 77 C 143.43825 77.122649 143.38281 77.264381 143.38281 77.423828 C 143.38281 77.665049 143.47422 77.851589 143.6582 77.982422 C 143.84218 78.109163 144.19012 78.225728 144.70117 78.332031 C 145.03643 78.401505 145.35743 78.467791 145.66406 78.533203 C 145.97478 78.598631 146.30641 78.688262 146.66211 78.802734 C 147.36123 79.031694 147.87781 79.345611 148.20898 79.742188 C 148.54423 80.134679 148.71094 80.645771 148.71094 81.275391 C 148.71094 82.174853 148.329 82.906496 147.56445 83.470703 C 146.80401 84.030826 145.76924 84.310547 144.46094 84.310547 C 143.70457 84.310547 143.04468 84.244099 142.48047 84.113281 C 141.92035 83.978356 141.39491 83.809891 140.9043 83.605469 L 141.66016 81.841797 C 141.95615 82.010953 142.46233 82.195834 142.79297 82.310547 C 143.39806 82.519061 143.97913 82.623047 144.53516 82.623047 C 144.67825 82.623047 144.86657 82.612397 145.09961 82.587891 C 145.33265 82.563384 145.52274 82.522064 145.66992 82.464844 C 145.84981 82.391247 145.99686 82.299841 146.11133 82.189453 C 146.2299 82.079065 146.28906 81.913956 146.28906 81.697266 C 146.28906 81.496936 146.20297 81.326688 146.03125 81.183594 C 145.86362 81.036408 145.61613 80.923377 145.28906 80.845703 C 144.94563 80.76393 144.58158 80.688645 144.19727 80.619141 C 143.81704 80.545544 143.46026 80.452185 143.125 80.341797 C 142.35637 80.0924 141.80224 79.755276 141.46289 79.330078 C 141.12764 78.900789 140.95898 78.37004 140.95898 77.736328 C 140.95898 76.885933 141.33916 76.193788 142.09961 75.658203 C 142.86415 75.118526 143.84506 74.847656 145.04297 74.847656 z M 67.615234 75.179688 L 71.490234 75.179688 C 72.070794 75.179688 72.560453 75.22982 72.957031 75.332031 C 73.357702 75.430155 73.710945 75.578967 74.017578 75.779297 C 74.385542 76.020517 74.665266 76.32894 74.857422 76.705078 C 75.053665 77.081216 75.152344 77.533138 75.152344 78.060547 C 75.152344 78.469396 75.080597 78.871181 74.9375 79.263672 C 74.794403 79.652071 74.589966 79.978388 74.324219 80.244141 C 73.960347 80.603925 73.553245 80.87657 73.103516 81.060547 C 72.657873 81.244529 72.101965 81.335937 71.435547 81.335938 L 69.96875 81.335938 L 69.96875 84.310547 L 67.615234 84.310547 L 67.615234 75.179688 z M 79.15625 75.179688 L 81.511719 75.179688 L 81.511719 82.544922 L 85.742188 82.544922 L 85.742188 84.310547 L 79.15625 84.310547 L 79.15625 75.179688 z M 91.376953 75.179688 L 94.087891 75.179688 L 98.253906 84.310547 L 95.820312 84.310547 L 95.039062 82.464844 L 90.408203 82.464844 L 89.583984 84.310547 L 87.210938 84.310547 L 91.376953 75.179688 z M 100.31445 75.179688 L 102.98828 75.179688 L 105.14062 78.710938 L 107.19531 75.179688 L 109.7832 75.179688 L 106.26758 80.777344 L 106.26758 84.310547 L 103.91406 84.310547 L 103.91406 80.888672 L 100.31445 75.179688 z M 129.20898 75.179688 L 131.88281 75.179688 L 134.03516 78.710938 L 136.08984 75.179688 L 138.67773 75.179688 L 135.16406 80.777344 L 135.16406 84.310547 L 132.80859 84.310547 L 132.80859 80.888672 L 129.20898 75.179688 z M 151.75586 75.179688 L 159.81445 75.179688 L 159.81445 76.945312 L 156.96289 76.945312 L 156.96289 84.310547 L 154.60938 84.310547 L 154.60938 76.945312 L 151.75586 76.945312 L 151.75586 75.179688 z M 162.80273 75.179688 L 169.82617 75.179688 L 169.82617 76.945312 L 165.14648 76.945312 L 165.14648 78.521484 L 169.51953 78.521484 L 169.51953 80.287109 L 165.14648 80.287109 L 165.14648 82.544922 L 169.82617 82.544922 L 169.82617 84.310547 L 162.80273 84.310547 L 162.80273 75.179688 z M 173.91211 75.179688 L 176.20703 75.179688 L 179.55859 81.490234 L 182.90234 75.179688 L 185.19727 75.179688 L 185.5332 84.310547 L 183.06445 84.310547 L 182.85547 79.910156 L 180.30664 84.308594 L 178.68164 84.308594 L 176.13281 79.910156 L 175.92188 84.310547 L 173.57617 84.310547 L 173.91211 75.179688 z M 69.96875 76.884766 L 69.96875 79.619141 L 70.644531 79.619141 C 71.045202 79.619141 71.373286 79.593987 71.630859 79.544922 C 71.89252 79.495857 72.111307 79.399137 72.287109 79.251953 C 72.43838 79.121123 72.547869 78.965051 72.613281 78.785156 C 72.682786 78.601179 72.716797 78.378848 72.716797 78.117188 C 72.716797 77.859613 72.646818 77.63906 72.507812 77.455078 C 72.368803 77.267009 72.207414 77.136092 72.023438 77.0625 C 71.778124 76.964376 71.539682 76.910518 71.306641 76.902344 C 71.073599 76.890104 70.763404 76.884766 70.375 76.884766 L 69.96875 76.884766 z M 92.701172 77.515625 L 91.082031 80.791016 L 94.335938 80.791016 L 92.701172 77.515625 z "
       transform="matrix(1.2853795,0,0,1.2853795,38.341919,270.93022)"
       id="path4785" /><path
       style="clip-rule:evenodd;fill:#ffffff;fill-opacity:1;fill-rule:evenodd;stroke-width:0.42825726"
       inkscape:connector-curvature="0"
       d="m 88.53775,310.6444 -8.195804,8.59364 c 0,0 -0.435657,0.21934 -0.797192,0.21934 -0.364562,0 -0.874343,-0.36456 -0.874343,-0.36456 l -1.013505,-0.86678 c 0,0 -0.291951,-0.0711 -0.291951,-0.36456 0,-0.28589 0.798704,-1.01653 0.798704,-2.3946 0,-1.37958 -0.288928,-7.1112 -9.13973,-7.1112 -8.850802,0 -12.768692,8.27143 -12.768692,15.0922 0,6.82077 4.205303,19.29901 17.995067,19.29901 8.018822,0 9.717581,-4.50179 9.717581,-4.50179 h 2.75614 v 11.7567 H 71.634851 c -17.992047,0 -28.006115,-14.07869 -28.006115,-24.23495 0,-15.57324 13.541683,-24.21529 25.829339,-24.21529 11.898893,0.001 19.079675,9.09284 19.079675,9.09284 z"
       id="path4817" /><path
       style="clip-rule:evenodd;fill:#ffffff;fill-opacity:1;fill-rule:evenodd;stroke-width:0.42825726"
       inkscape:connector-curvature="0"
       d="m 113.93446,302.84492 h 12.40564 l 15.09221,39.46934 c 0.43263,1.08461 1.15872,2.1072 1.8833,2.97246 0.72308,0.87131 2.4657,1.45521 2.4657,1.45521 v 3.40509 h -18.20533 v -3.48223 c 0,0 1.15721,0.14975 1.7396,-0.86829 0.57937,-1.01654 0.57937,-1.81372 0.14673,-2.82875 -0.43565,-1.01804 -3.48979,-9.06863 -3.48979,-9.06863 h -14.86983 c 0,0 -3.04507,8.1247 -3.33854,8.84929 -0.29043,0.72459 -0.29043,1.88785 0,2.61091 0.48256,1.20715 2.17829,1.38413 2.17829,1.38413 v 3.40509 H 95.356998 v -3.40509 c 0,0 1.326638,-0.45684 2.321993,-1.45522 1.087628,-1.08763 1.449167,-2.25089 1.449167,-2.25089 z m -0.36607,23.65105 h 9.57991 l -4.93291,-13.78372 z"
       id="path4819" /><path
       style="clip-rule:evenodd;fill:#ffffff;fill-opacity:1;fill-rule:evenodd;stroke-width:0.42825726"
       inkscape:connector-curvature="0"
       d="m 151.58553,302.84492 c 0,0 14.65503,0 23.21843,0 8.56187,0 17.12073,3.04354 17.12073,12.91088 0,9.86735 -6.23989,13.3526 -11.60695,15.81981 -6.19753,2.8469 -14.36458,5.07965 -14.36458,5.07965 v 7.54231 c 0,0 0.0726,0.50978 0.79719,1.37505 0.7276,0.87131 1.5248,1.09066 1.5248,1.09066 v 3.48222 h -16.83332 v -3.40507 c 0,0 1.01502,-0.22086 1.74415,-0.94545 0.72307,-0.72609 0.8713,-1.59741 0.8713,-1.59741 v -34.09926 c 0,0 0.0666,-1.45219 -0.50977,-2.03004 -0.57937,-0.58542 -1.96046,-1.37958 -1.96046,-1.37958 v -3.84377 h -0.001 v 0 z m 14.51133,7.10817 v 20.16881 c 0,0 13.63849,-5.65748 13.63849,-13.63849 0,-9.86734 -13.63849,-6.53032 -13.63849,-6.53032 z"
       id="path4821" /><path
       style="clip-rule:evenodd;fill:#ffffff;fill-opacity:1;fill-rule:evenodd;stroke-width:0.42825726"
       inkscape:connector-curvature="0"
       d="m 242.20681,310.72759 -8.19883,8.59364 c 0,0 -0.43566,0.21784 -0.79871,0.21784 -0.36002,0 -0.86829,-0.36305 -0.86829,-0.36305 l -1.01805,-0.87284 c 0,0 -0.28891,-0.068 -0.28891,-0.35699 0,-0.29194 0.79568,-1.02258 0.79568,-2.3946 0,-1.38109 -0.28591,-7.11272 -9.13974,-7.11272 -8.85382,0 -12.7702,8.26843 -12.7702,15.0907 0,6.81622 4.20832,19.29901 17.99658,19.29901 8.01882,0 9.71909,-4.50028 9.71909,-4.50028 h 2.75917 v 11.75368 h -15.09523 c -17.99053,0 -28.00612,-14.07416 -28.00612,-24.23193 0,-15.57172 13.54018,-24.21681 25.82934,-24.21681 11.90041,0 19.08422,9.09435 19.08422,9.09435 z"
       id="path4823" /><path
       style="clip-rule:evenodd;fill:#ffffff;fill-opacity:1;fill-rule:evenodd;stroke-width:0.42825726"
       inkscape:connector-curvature="0"
       d="m 271.5925,351.50845 c -15.67458,0 -26.93966,-11.44508 -26.93966,-25.3725 0,-13.9365 11.55703,-24.72961 26.93966,-24.72961 15.37659,0 26.93361,10.79311 26.93361,24.72961 0,13.9259 -11.26658,25.3725 -26.93361,25.3725 z m -13.93498,-25.1577 c 0,13.93044 7.1112,17.41268 13.93498,17.41268 6.81472,0 14.07416,-4.35354 14.07416,-17.41268 0,-13.05761 -8.12622,-17.41268 -14.07416,-17.41268 -5.95096,0 -13.93498,3.47921 -13.93498,17.41268 z"
       id="path4825" /><path
       style="clip-rule:evenodd;fill:#ffffff;fill-opacity:1;fill-rule:evenodd;stroke-width:0.42825726"
       inkscape:connector-curvature="0"
       d="m 305.54201,302.87517 h 17.27049 l 6.23989,19.26876 6.67251,-19.29901 h 18.06315 v 2.82723 c 0,0 -1.2011,0.50827 -1.73507,1.16176 -0.65349,0.7987 -0.65349,1.37807 -0.50979,2.54284 0.14523,1.15721 4.7877,32.64707 4.93443,33.80882 0.14673,1.16176 0.28893,1.81373 0.57936,2.61244 0.28741,0.79115 1.67002,1.44765 1.67002,1.44765 v 2.92708 h -17.3431 v -3.14339 c 0,0 1.52329,-0.21632 2.03459,-0.94544 0.50827,-0.72609 0.72307,-1.16175 0.57936,-2.32048 -0.14522,-1.16024 -4.27791,-27.57045 -4.27791,-27.57045 l -7.54686,23.36212 h -9.14124 l -7.47576,-21.91447 -3.77116,25.83085 c 0,0 -0.14673,1.55051 0.43566,2.39612 0.79719,1.16175 2.25241,1.16175 2.25241,1.16175 v 3.11767 h -15.02413 v -3.33248 c 0,0 1.19655,-0.18455 2.06635,-1.20259 0.8698,-1.012 1.01653,-2.322 1.01653,-2.322 l 5.48051,-34.06295 c 0,0 0.32825,-1.27219 -0.0362,-1.85003 -0.38272,-0.61114 -2.43242,-1.12394 -2.43242,-1.12394 v -3.37786 h -0.001 z"
       id="path4827" /></g></svg>